<svg width="24" height="24" viewBox="0 0 24 24" fill="none" xmlns="http://www.w3.org/2000/svg">
<rect width="24" height="24" rx="12" fill="#D9D9D9"/>
<path d="M6.66 19V16.9L12.06 11.8C12.4867 11.4133 12.8 11.0667 13 10.76C13.2 10.4533 13.3333 10.1733 13.4 9.92C13.48 9.66667 13.52 9.43333 13.52 9.22C13.52 8.66 13.3267 8.23333 12.94 7.94C12.5667 7.63333 12.0133 7.48 11.28 7.48C10.6933 7.48 10.1467 7.59333 9.64 7.82C9.14667 8.04667 8.72667 8.4 8.38 8.88L6.02 7.36C6.55333 6.56 7.3 5.92667 8.26 5.46C9.22 4.99333 10.3267 4.76 11.58 4.76C12.62 4.76 13.5267 4.93333 14.3 5.28C15.0867 5.61333 15.6933 6.08667 16.12 6.7C16.56 7.31333 16.78 8.04667 16.78 8.9C16.78 9.35333 16.72 9.80667 16.6 10.26C16.4933 10.7 16.2667 11.1667 15.92 11.66C15.5867 12.1533 15.0933 12.7067 14.44 13.32L9.96 17.54L9.34 16.36H17.24V19H6.66Z" fill="#363636"/>
</svg>
