<svg width="20" height="21" viewBox="0 0 20 21" fill="none" xmlns="http://www.w3.org/2000/svg">
<g id="mingcute:arrow-up-line" clip-path="url(#clip0_1296_66)">
<g id="Group">
<path id="Vector" d="M18.9709 11.0892C19.1271 10.9329 19.2148 10.721 19.2148 10.5C19.2148 10.279 19.1271 10.0671 18.9709 9.91083L14.2567 5.19667C14.1798 5.11708 14.0879 5.05359 13.9862 5.00992C13.8845 4.96624 13.7752 4.94325 13.6645 4.94229C13.5539 4.94133 13.4441 4.96242 13.3417 5.00432C13.2393 5.04622 13.1463 5.10809 13.068 5.18634C12.9898 5.26458 12.9279 5.35763 12.886 5.46004C12.8441 5.56245 12.823 5.67219 12.824 5.78284C12.8249 5.89348 12.8479 6.00283 12.8916 6.1045C12.9353 6.20617 12.9988 6.29813 13.0784 6.375L16.37 9.66667L5.33419 9.66667C5.11318 9.66667 4.90121 9.75447 4.74493 9.91075C4.58865 10.067 4.50086 10.279 4.50086 10.5C4.50086 10.721 4.58865 10.933 4.74493 11.0893C4.90121 11.2455 5.11318 11.3333 5.33419 11.3333L16.37 11.3333L13.0784 14.625C12.9266 14.7822 12.8426 14.9927 12.8445 15.2112C12.8464 15.4297 12.934 15.6387 13.0885 15.7932C13.243 15.9477 13.452 16.0353 13.6705 16.0372C13.889 16.0391 14.0995 15.9551 14.2567 15.8033L18.9709 11.0892Z" fill="#4375BB"/>
</g>
</g>
<defs>
<clipPath id="clip0_1296_66">
<rect width="20" height="20" fill="white" transform="matrix(0 1 -1 0 20 0.5)"/>
</clipPath>
</defs>
</svg>
