<svg width="40" height="40" viewBox="0 0 40 40" fill="none" xmlns="http://www.w3.org/2000/svg">
<g id="bi:stars" clip-path="url(#clip0_1465_1690)">
<path id="Vector" d="M19.1406 15.6174C19.4156 14.7924 20.5806 14.7924 20.8556 15.6174L22.4681 20.4599C22.823 21.5244 23.421 22.4916 24.2147 23.2849C25.0083 24.0781 25.9759 24.6756 27.0406 25.0299L31.8806 26.6424C32.7056 26.9174 32.7056 28.0824 31.8806 28.3574L27.0381 29.9699C25.9736 30.3248 25.0064 30.9228 24.2131 31.7165C23.4199 32.5102 22.8224 33.4777 22.4681 34.5424L20.8556 39.3824C20.7963 39.5631 20.6814 39.7204 20.5275 39.8319C20.3735 39.9434 20.1882 40.0035 19.9981 40.0035C19.8079 40.0035 19.6227 39.9434 19.4687 39.8319C19.3147 39.7204 19.1999 39.5631 19.1406 39.3824L17.5281 34.5399C17.1734 33.4757 16.5758 32.5087 15.7825 31.7154C14.9893 30.9222 14.0223 30.3246 12.9581 29.9699L8.11556 28.3574C7.93491 28.2981 7.77759 28.1833 7.66606 28.0293C7.55453 27.8753 7.49449 27.6901 7.49449 27.4999C7.49449 27.3098 7.55453 27.1245 7.66606 26.9705C7.77759 26.8165 7.93491 26.7017 8.11556 26.6424L12.9581 25.0299C14.0223 24.6752 14.9893 24.0776 15.7825 23.2844C16.5758 22.4912 17.1734 21.5242 17.5281 20.4599L19.1406 15.6174ZM9.48306 2.86992C9.51891 2.76165 9.58797 2.66744 9.68042 2.60067C9.77287 2.53389 9.88402 2.49795 9.99806 2.49795C10.1121 2.49795 10.2233 2.53389 10.3157 2.60067C10.4082 2.66744 10.4772 2.76165 10.5131 2.86992L11.4806 5.77492C11.9131 7.06992 12.9281 8.08492 14.2231 8.51742L17.1281 9.48492C17.2363 9.52077 17.3305 9.58983 17.3973 9.68228C17.4641 9.77473 17.5 9.88587 17.5 9.99992C17.5 10.114 17.4641 10.2251 17.3973 10.3176C17.3305 10.41 17.2363 10.4791 17.1281 10.5149L14.2231 11.4824C13.584 11.6945 13.0033 12.0529 12.5272 12.529C12.051 13.0051 11.6927 13.5859 11.4806 14.2249L10.5131 17.1299C10.4772 17.2382 10.4082 17.3324 10.3157 17.3992C10.2233 17.4659 10.1121 17.5019 9.99806 17.5019C9.88402 17.5019 9.77287 17.4659 9.68042 17.3992C9.58797 17.3324 9.51891 17.2382 9.48306 17.1299L8.51556 14.2249C8.30347 13.5859 7.94509 13.0051 7.46896 12.529C6.99284 12.0529 6.41212 11.6945 5.77306 11.4824L2.86806 10.5149C2.7598 10.4791 2.66558 10.41 2.59881 10.3176C2.53203 10.2251 2.49609 10.114 2.49609 9.99992C2.49609 9.88587 2.53203 9.77473 2.59881 9.68228C2.66558 9.58983 2.7598 9.52077 2.86806 9.48492L5.77306 8.51742C6.41212 8.30532 6.99284 7.94694 7.46896 7.47082C7.94509 6.9947 8.30347 6.41398 8.51556 5.77492L9.48306 2.86992ZM27.1556 0.247419C27.1802 0.176234 27.2265 0.114509 27.2879 0.0708227C27.3493 0.0271369 27.4227 0.00366211 27.4981 0.00366211C27.5734 0.00366211 27.6469 0.0271369 27.7083 0.0708227C27.7696 0.114509 27.8159 0.176234 27.8406 0.247419L28.4856 2.18242C28.7731 3.04742 29.4506 3.72492 30.3156 4.01242L32.2506 4.65742C32.3217 4.6821 32.3835 4.72834 32.4272 4.78973C32.4708 4.85111 32.4943 4.92458 32.4943 4.99992C32.4943 5.07526 32.4708 5.14873 32.4272 5.21011C32.3835 5.27149 32.3217 5.31774 32.2506 5.34242L30.3156 5.98742C29.8897 6.12992 29.5027 6.36939 29.1851 6.68696C28.8675 7.00453 28.6281 7.39152 28.4856 7.81742L27.8406 9.75242C27.8159 9.8236 27.7696 9.88533 27.7083 9.92902C27.6469 9.9727 27.5734 9.99618 27.4981 9.99618C27.4227 9.99618 27.3493 9.9727 27.2879 9.92902C27.2265 9.88533 27.1802 9.8236 27.1556 9.75242L26.5106 7.81742C26.3681 7.39152 26.1286 7.00453 25.811 6.68696C25.4935 6.36939 25.1065 6.12992 24.6806 5.98742L22.7481 5.34242C22.6769 5.31774 22.6152 5.27149 22.5715 5.21011C22.5278 5.14873 22.5043 5.07526 22.5043 4.99992C22.5043 4.92458 22.5278 4.85111 22.5715 4.78973C22.6152 4.72834 22.6769 4.6821 22.7481 4.65742L24.6831 4.01242C25.5481 3.72492 26.2256 3.04742 26.5131 2.18242L27.1556 0.247419Z" fill="white"/>
</g>
<defs>
<clipPath id="clip0_1465_1690">
<rect width="40" height="40" fill="white"/>
</clipPath>
</defs>
</svg>
