<svg width="35" height="35" viewBox="0 0 35 35" fill="none" xmlns="http://www.w3.org/2000/svg">
<g id="material-symbols-light:meeting-room">
<path id="Vector" d="M6.5625 29.1668V27.7085H9.47917V5.8335H21.1458V7.29183H25.5208V27.7085H28.4375V29.1668H24.0625V8.75016H21.1458V29.1668H6.5625ZM16.7708 18.6231C17.0722 18.6231 17.3347 18.5113 17.5583 18.2877C17.7819 18.0641 17.8938 17.8016 17.8938 17.5002C17.8938 17.1988 17.7819 16.9363 17.5583 16.7127C17.3347 16.4891 17.0722 16.3772 16.7708 16.3772C16.4694 16.3772 16.2069 16.4891 15.9833 16.7127C15.7597 16.9363 15.6479 17.1988 15.6479 17.5002C15.6479 17.8016 15.7597 18.0641 15.9833 18.2877C16.2069 18.5113 16.4694 18.6231 16.7708 18.6231Z" fill="black"/>
</g>
</svg>
