<svg width="473" height="471" viewBox="0 0 473 471" fill="none" xmlns="http://www.w3.org/2000/svg">
<g clip-path="url(#clip0_474_816)">
<path d="M473 0H0V471H473V0Z" fill="#008080"/>
<mask id="mask0_474_816" style="mask-type:luminance" maskUnits="userSpaceOnUse" x="0" y="0" width="473" height="471">
<path d="M473 0H0V471H473V0Z" fill="white"/>
</mask>
<g mask="url(#mask0_474_816)">
<path d="M495.226 411.758H-22.2263V488.972H495.226V411.758Z" fill="#008080"/>
<path d="M248.565 225.936C248.565 225.936 258.655 227.522 269.276 239.156C279.897 250.79 296.36 319.006 296.36 319.006C296.36 319.006 311.229 286.22 319.196 282.519C327.162 278.817 342.031 280.404 348.935 290.98C355.839 301.556 343.093 325.881 334.596 336.986C326.099 348.092 303.796 367.129 291.05 365.014C278.305 362.899 257.063 354.438 257.063 354.438L248.565 225.936Z" fill="#0939A3"/>
<path d="M161.333 379.342C161.333 379.342 154.505 393.556 154.505 408.39C154.505 423.224 157.63 471 157.63 471H266.868C266.868 471 269.33 396.029 261.882 381.813C234.572 386.758 161.333 379.342 161.333 379.342Z" fill="#4A2D3E"/>
<path opacity="0.25" d="M265.516 398.815C244.373 403.958 203.477 409.648 156.3 394.17C158.315 385.617 161.333 379.343 161.333 379.343C161.333 379.343 234.572 386.757 261.883 381.811C263.539 384.977 264.702 391.137 265.516 398.815Z" fill="#4A2D3E"/>
<path d="M201.192 219.268C201.192 219.268 171.884 220.546 167.055 230.434C162.226 240.323 152.29 361.418 154.705 367.599C157.12 373.779 161.346 375.015 161.346 375.015C161.346 375.015 158.327 384.285 161.95 386.758C165.572 389.23 243.452 400.973 265.187 388.612C266.998 385.522 263.979 375.015 263.979 375.015C263.979 375.015 265.187 378.724 269.413 370.07C273.639 361.418 270.814 258.969 258.582 232.578C254.831 224.487 228.359 218.033 201.192 219.268Z" fill="#0939A3"/>
<path opacity="0.25" d="M172.695 300.844C176.889 320.562 214.569 338.828 214.569 338.828C214.569 338.828 170.911 326.974 167.179 326.438L172.695 300.844Z" fill="#6B8BD1"/>
<path d="M199.525 222.272C205.973 231.368 228.311 234.923 231.7 232.112C233.348 230.746 233.59 225.261 233.417 219.982C233.221 214.415 232.541 209.068 232.541 209.068C232.541 209.068 217.478 205.315 207.786 199.462C205.907 198.337 202.261 194.879 200.936 193.605C199.525 203.723 196.138 217.494 199.525 222.272Z" fill="#FCA695"/>
<path opacity="0.46" d="M204.317 198.659C204.317 198.659 206.299 207.381 214.482 214.118C219.783 218.489 228.173 219.684 233.417 219.982C233.221 214.415 232.541 209.068 232.541 209.068C232.541 209.068 217.478 205.315 207.786 199.462L204.317 198.659Z" fill="#FCA695"/>
<path d="M256.509 159.256C258.372 167.592 258.585 200.672 249.764 208.5C236.781 220.023 205.246 210.754 196.704 189.671C189.457 171.787 190.24 141.304 210.105 135.6C234.255 128.664 252.666 142.071 256.509 159.256Z" fill="#FCA695"/>
<path d="M203.759 181.801C203.759 181.801 212.226 168.311 208.839 148.638C217.589 153.978 254.561 153.697 259.924 152.573C265.287 151.449 261.053 139.926 239.603 130.932C218.153 121.939 199.243 129.809 198.961 138.239C196.138 129.809 193.598 129.527 191.905 132.899C190.211 136.272 197.831 139.644 197.831 139.644C197.831 139.644 189.647 145.265 188.8 159.036C187.953 172.808 196.703 194.167 203.759 181.801Z" fill="#5A2402"/>
<path d="M237.627 169.505C237.627 169.505 242.284 183.417 240.591 186.579C238.897 189.74 233.605 188.687 232.123 186.79" stroke="#DB7665" stroke-miterlimit="10" stroke-linecap="round"/>
<path d="M252.656 158.123C249.551 154.54 243.765 154.329 240.591 155.805C237.415 157.28 239.532 162.55 242.072 161.918C244.612 161.285 249.057 160.653 251.385 161.496C253.714 162.34 253.736 159.37 252.656 158.123Z" fill="#5A2402"/>
<path d="M213.858 158.966C216.962 155.383 222.748 155.172 225.923 156.648C229.098 158.124 226.981 163.393 224.441 162.761C221.901 162.129 217.456 161.496 215.128 162.339C212.799 163.183 212.777 160.214 213.858 158.966Z" fill="#5A2402"/>
<path d="M242.496 170.981C242.496 172.844 243.633 174.354 245.036 174.354C246.439 174.354 247.576 172.844 247.576 170.981C247.576 169.119 246.439 167.609 245.036 167.609C243.633 167.609 242.496 169.118 242.496 170.981Z" fill="#5A2402"/>
<path d="M219.846 171.825C219.846 173.687 220.983 175.197 222.386 175.197C223.789 175.197 224.926 173.687 224.926 171.825C224.926 169.962 223.789 168.452 222.386 168.452C220.984 168.452 219.846 169.961 219.846 171.825Z" fill="#5A2402"/>
<path d="M237.204 193.957C237.204 193.957 231.488 193.957 228.525 192.482C225.561 191.007 224.292 191.217 223.868 192.903C223.445 194.589 226.196 198.172 230.219 199.015C234.24 199.859 237.204 198.383 238.685 196.275C240.167 194.167 238.685 194.167 237.204 193.957Z" fill="black"/>
<path d="M201.642 175.619C201.642 175.619 198.043 168.874 192.539 171.193C187.724 173.221 188.518 178.148 189.999 181.943C191.481 185.737 195.926 189.53 199.102 189.32C202.278 189.11 205.452 185.104 201.642 175.619Z" fill="#FCA695"/>
<path d="M199.737 184.893C201.783 182.996 200.173 176.309 196.562 174.354C193.316 172.597 191.905 177.094 191.905 177.094" stroke="#DB7665" stroke-miterlimit="10" stroke-linecap="round"/>
<path opacity="0.46" d="M200.583 183.418C200.583 183.418 195.291 185.736 194.021 178.359C193.174 174.355 196.561 174.355 196.561 174.355C196.561 174.355 200.795 177.515 200.583 183.418Z" fill="#FCA695"/>
<path d="M199.525 177.656C199.525 177.656 195.856 177.235 195.432 180.607" stroke="#DB7665" stroke-miterlimit="10" stroke-linecap="round"/>
<path d="M232.829 213.699C232.829 213.699 210.249 213.699 200.653 196.556" stroke="#DB7665" stroke-miterlimit="10" stroke-linecap="round"/>
<path d="M189.884 226.067C189.884 226.067 192.783 210.391 197.884 209.414C201.349 208.751 205.857 212.99 217.001 214.538C229.284 216.245 232.621 213.65 235.547 216.639C237.935 219.078 236.929 237.283 236.929 237.283C236.929 237.283 203.539 242.136 189.884 226.067Z" fill="#0939A3"/>
<path d="M191.664 223.865C191.664 223.865 210.177 240.344 237.473 231.054" stroke="#4264A0" stroke-miterlimit="10" stroke-linecap="round"/>
<path d="M161.949 374.225C161.949 374.225 216.543 385.235 255.934 375.601" stroke="#4264A0" stroke-miterlimit="10" stroke-linecap="round"/>
<path d="M175.372 224.156C159.919 230.065 145.61 247.312 140.756 265.956C135.902 284.6 125.664 345.102 129.824 358.222C133.985 371.342 195.704 391.367 212.347 385.843C228.99 380.319 231.07 369.961 230.377 354.769C229.683 339.578 197.091 331.291 166.578 327.148C179.06 290.55 175.372 224.156 175.372 224.156Z" fill="#0939A3"/>
<path d="M166.404 379.025C184.434 384.981 204.025 388.606 212.346 385.844C228.989 380.32 231.069 369.962 230.376 354.77C229.682 339.579 197.09 331.292 166.577 327.149C179.06 290.55 176.23 228.797 176.23 228.797" stroke="#4264A0" stroke-miterlimit="10" stroke-linecap="round"/>
<path d="M167.179 326.437C159.347 331.045 155.497 339.566 155.497 339.566" stroke="#4264A0" stroke-miterlimit="10" stroke-linecap="round"/>
<path d="M271.493 353.673H350.946C355.301 353.673 359.86 350.157 361.129 345.821L374.036 301.733C375.306 297.397 372.804 293.881 368.45 293.881H288.996C284.642 293.881 280.082 297.397 278.814 301.733L265.906 345.821C264.637 350.157 267.138 353.673 271.493 353.673Z" fill="#87A1CF"/>
<path d="M274.051 353.673H353.505C357.86 353.673 362.419 350.157 363.688 345.821L376.595 301.733C377.865 297.397 375.363 293.881 371.009 293.881H291.556C287.202 293.881 282.642 297.397 281.374 301.733L268.466 345.821C267.196 350.157 269.696 353.673 274.051 353.673Z" fill="#F44877"/>
<path d="M241.354 353.673H355.454C357.597 353.673 359.334 355.403 359.334 357.537C359.334 359.672 357.597 361.401 355.454 361.401H241.354C239.211 361.401 237.473 359.671 237.473 357.537C237.473 355.403 239.211 353.673 241.354 353.673Z" fill="#87A1CF"/>
<path d="M263.265 353.673H355.454C357.597 353.673 359.334 355.403 359.334 357.537C359.334 359.672 357.597 361.401 355.454 361.401H263.265C261.122 361.401 259.385 359.671 259.385 357.537C259.385 355.403 261.122 353.673 263.265 353.673Z" fill="#F44877"/>
<path d="M353.504 353.673H274.052" stroke="#4E6989" stroke-miterlimit="10"/>
<path d="M324.559 333.002C324.559 333.002 337.598 325.279 335.864 320.058C334.131 314.837 327.86 319.732 327.86 319.732C327.86 319.732 324.024 314.837 319.693 320.058C315.362 325.279 324.559 333.002 324.559 333.002Z" fill="#008080"/>
<path d="M230.354 353.286C230.354 353.286 224.137 355.234 224.098 362.895C224.059 370.556 226.036 371.319 226.036 371.319C226.036 371.319 248.728 374.085 255.49 373.08C262.253 372.076 287.663 367.311 288.559 362.69C289.457 358.069 268.417 362.712 253.126 359.639C245.888 356.622 249.065 353.445 251.891 350.583C254.716 347.721 257.337 342.185 254.723 340.725C252.109 339.266 248.948 342.111 247.127 345.022C245.306 347.932 230.354 353.286 230.354 353.286Z" fill="#FCA695"/>
<path d="M255.469 233.869C255.469 233.869 269.276 285.163 269.808 325.881" stroke="#4264A0" stroke-miterlimit="10" stroke-linecap="round"/>
<path d="M326.422 284.307C326.422 284.307 331.029 294.4 345.772 292.106C351.3 287.518 359.593 276.049 362.357 270.544C365.121 265.039 372.953 244.854 371.571 240.725C370.189 236.597 361.896 231.55 356.828 232.468C351.761 233.385 341.625 249.9 339.782 252.653C337.94 255.405 337.479 250.818 336.557 246.23C335.636 241.643 333.333 236.138 329.647 237.514C325.961 238.89 325.501 239.349 327.804 245.772C330.108 252.194 326.883 260.452 327.343 265.498C327.804 270.544 329.186 273.297 329.186 276.967C329.186 280.637 326.422 284.307 326.422 284.307Z" fill="#FCA695"/>
<path d="M338.085 252.84C340.655 258.656 339.602 265.213 339.602 265.213" stroke="#DB7665" stroke-miterlimit="10" stroke-linecap="round"/>
<path d="M359.766 232.921L346.033 256.562" stroke="#DB7665" stroke-miterlimit="10" stroke-linecap="round"/>
<path d="M364.188 234.079L352.084 260.038" stroke="#DB7665" stroke-miterlimit="10" stroke-linecap="round"/>
<path d="M367.679 236.629L357.67 262.82" stroke="#DB7665" stroke-miterlimit="10" stroke-linecap="round"/>
<path d="M189.682 431.032L219.916 441.414L249.106 428.956" stroke="#7F5571" stroke-miterlimit="10" stroke-linecap="round"/>
<path d="M219.916 441.414V470.791" stroke="#7F5571" stroke-miterlimit="10" stroke-linecap="round"/>
<path d="M392.871 42.522C390.312 42.522 387.839 42.8837 385.493 43.544C382.369 34.8258 374.009 28.5851 364.181 28.5851C351.685 28.5851 341.554 38.672 341.554 51.1158C341.554 51.2845 341.564 51.4512 341.567 51.6198C340.422 51.4418 339.25 51.3485 338.055 51.3485C325.559 51.3485 315.429 61.4355 315.429 73.8793C315.429 86.3222 325.558 96.41 338.055 96.41C350.552 96.41 379.324 96.41 392.871 96.41C407.815 96.41 419.929 84.3468 419.929 69.466C419.929 54.5852 407.815 42.522 392.871 42.522Z" fill="#DCDDDE"/>
<path d="M387.867 42.522C385.308 42.522 382.835 42.8837 380.489 43.544C377.365 34.8258 369.003 28.5851 359.176 28.5851C346.68 28.5851 336.55 38.672 336.55 51.1158C336.55 51.2845 336.559 51.4512 336.562 51.6198C335.418 51.4418 334.245 51.3485 333.051 51.3485C320.554 51.3485 310.424 61.4355 310.424 73.8793C310.424 86.3222 320.554 96.41 333.051 96.41C345.546 96.41 374.32 96.41 387.867 96.41C402.811 96.41 414.925 84.3468 414.925 69.466C414.925 54.5852 402.811 42.522 387.867 42.522Z" fill="#008080"/>
<path d="M392.871 42.522C390.312 42.522 387.839 42.8837 385.493 43.544C382.369 34.8258 374.009 28.5851 364.181 28.5851C351.685 28.5851 341.554 38.672 341.554 51.1158C341.554 51.2845 341.564 51.4512 341.567 51.6198C340.422 51.4418 339.25 51.3485 338.055 51.3485C325.559 51.3485 315.429 61.4355 315.429 73.8793C315.429 86.3222 325.558 96.41 338.055 96.41C350.552 96.41 379.324 96.41 392.871 96.41C407.815 96.41 419.929 84.3468 419.929 69.466C419.929 54.5852 407.815 42.522 392.871 42.522Z" fill="#CF9166"/>
<path d="M387.867 42.522C385.308 42.522 382.835 42.8837 380.489 43.544C377.365 34.8258 369.003 28.5851 359.176 28.5851C346.68 28.5851 336.55 38.672 336.55 51.1158C336.55 51.2845 336.559 51.4512 336.562 51.6198C335.418 51.4418 334.245 51.3485 333.051 51.3485C320.554 51.3485 310.424 61.4355 310.424 73.8793C310.424 86.3222 320.554 96.41 333.051 96.41C345.546 96.41 374.32 96.41 387.867 96.41C402.811 96.41 414.925 84.3468 414.925 69.466C414.925 54.5852 402.811 42.522 387.867 42.522Z" fill="#EDAC7C"/>
<path d="M343.124 166.208C340.565 166.208 338.092 166.57 335.746 167.23C332.622 158.512 324.261 152.271 314.433 152.271C301.937 152.271 291.807 162.358 291.807 174.802C291.807 174.971 291.816 175.138 291.819 175.306C290.675 175.129 289.503 175.035 288.308 175.035C275.812 175.035 265.681 185.122 265.681 197.566C265.681 210.009 275.811 220.096 288.308 220.096C300.803 220.096 329.577 220.096 343.124 220.096C358.068 220.096 370.182 208.033 370.182 193.152C370.181 178.272 358.067 166.208 343.124 166.208Z" fill="#BA68C8"/>
<path d="M338.118 166.208C335.56 166.208 333.087 166.57 330.741 167.23C327.617 158.512 319.256 152.271 309.428 152.271C296.932 152.271 286.802 162.358 286.802 174.802C286.802 174.971 286.811 175.138 286.814 175.306C285.669 175.129 284.497 175.035 283.302 175.035C270.806 175.035 260.676 185.122 260.676 197.566C260.676 210.009 270.806 220.096 283.302 220.096C295.798 220.096 324.572 220.096 338.118 220.096C353.062 220.096 365.177 208.033 365.177 193.152C365.177 178.272 353.062 166.208 338.118 166.208Z" fill="#BA68C8"/>
<path d="M200.742 34.027C198.183 34.027 195.71 34.3887 193.364 35.049C190.241 26.3308 181.879 20.0901 172.052 20.0901C159.555 20.0901 149.425 30.177 149.425 42.6208C149.425 42.7895 149.435 42.9562 149.439 43.1248C148.294 42.9468 147.122 42.8535 145.927 42.8535C133.431 42.8535 123.301 52.9405 123.301 65.3843C123.301 77.8281 133.43 87.915 145.927 87.915C158.424 87.915 187.196 87.915 200.743 87.915C215.687 87.915 227.802 75.8518 227.802 60.971C227.801 46.0902 215.686 34.027 200.742 34.027Z" fill="#EDAC7C"/>
<path d="M195.738 34.027C193.179 34.027 190.706 34.3887 188.36 35.049C185.236 26.3308 176.875 20.0901 167.048 20.0901C154.552 20.0901 144.421 30.177 144.421 42.6208C144.421 42.7895 144.431 42.9562 144.434 43.1248C143.29 42.9468 142.118 42.8535 140.923 42.8535C128.426 42.8535 118.296 52.9405 118.296 65.3843C118.296 77.8281 128.426 87.915 140.923 87.915C153.418 87.915 182.192 87.915 195.739 87.915C210.683 87.915 222.797 75.8518 222.797 60.971C222.796 46.0902 210.682 34.027 195.738 34.027Z" fill="#EDAC7C"/>
<path d="M359.334 357.537L366.685 358.057C369.529 358.259 371.734 360.615 371.734 363.454V426.856C371.734 431.456 375.478 435.184 380.097 435.184C384.756 435.184 388.517 431.394 388.461 426.754L385.743 204.206C385.69 199.873 382.148 196.388 377.796 196.388H371.734" stroke="#A8C5E2" stroke-miterlimit="10"/>
<path d="M370.448 199.825H367.645V192.954H370.448C372.353 192.954 373.898 194.492 373.898 196.389C373.898 198.287 372.353 199.825 370.448 199.825Z" fill="#2C4C7C"/>
<path d="M367.645 193.998H366.097V198.78H367.645V193.998Z" fill="#4375BB"/>
<path d="M367.405 194.441H366.338V194.682H367.405V194.441Z" fill="#2C4C7C"/>
<path d="M367.405 195.051H366.338V195.292H367.405V195.051Z" fill="#2C4C7C"/>
<path d="M367.405 195.66H366.338V195.901H367.405V195.66Z" fill="#2C4C7C"/>
<path d="M367.405 196.27H366.338V196.511H367.405V196.27Z" fill="#2C4C7C"/>
<path d="M367.405 196.878H366.338V197.119H367.405V196.878Z" fill="#2C4C7C"/>
<path d="M367.405 197.488H366.338V197.729H367.405V197.488Z" fill="#2C4C7C"/>
<path d="M367.405 198.097H366.338V198.338H367.405V198.097Z" fill="#2C4C7C"/>
<path d="M313.265 147.939V150.73H306.365V147.939C306.365 146.042 307.91 144.504 309.815 144.504C311.72 144.504 313.265 146.042 313.265 147.939Z" fill="#2C4C7C"/>
<path d="M307.414 150.731V152.272H312.216V150.731H307.414Z" fill="#4375BB"/>
<path d="M307.858 150.97V152.033H308.1V150.97H307.858Z" fill="#2C4C7C"/>
<path d="M308.47 150.97V152.033H308.712V150.97H308.47Z" fill="#2C4C7C"/>
<path d="M309.082 150.97V152.033H309.324V150.97H309.082Z" fill="#2C4C7C"/>
<path d="M309.694 150.97V152.032H309.936V150.97H309.694Z" fill="#2C4C7C"/>
<path d="M310.306 150.97V152.032H310.548V150.97H310.306Z" fill="#2C4C7C"/>
<path d="M310.918 150.97V152.032H311.16V150.97H310.918Z" fill="#2C4C7C"/>
<path d="M311.53 150.97V152.033H311.772V150.97H311.53Z" fill="#2C4C7C"/>
<path d="M361.12 101.048V98.2573H354.22V101.048C354.22 102.946 355.765 104.484 357.67 104.484C359.576 104.484 361.12 102.946 361.12 101.048Z" fill="#2C4C7C"/>
<path d="M360.071 98.2569V96.7158H355.269V98.2569H360.071Z" fill="#4375BB"/>
<path d="M355.956 98.0183V96.9557H355.713V98.0183H355.956Z" fill="#2C4C7C"/>
<path d="M356.568 98.0174V96.9548H356.325V98.0174H356.568Z" fill="#2C4C7C"/>
<path d="M357.179 98.0176V96.9551H356.937V98.0176H357.179Z" fill="#2C4C7C"/>
<path d="M357.791 98.0176V96.9551H357.549V98.0176H357.791Z" fill="#2C4C7C"/>
<path d="M358.403 98.0179V96.9553H358.161V98.0179H358.403Z" fill="#2C4C7C"/>
<path d="M359.015 98.0179V96.9553H358.773V98.0179H359.015Z" fill="#2C4C7C"/>
<path d="M359.627 98.0183V96.9557H359.385V98.0183H359.627Z" fill="#2C4C7C"/>
<path d="M229.382 64.836H226.579V57.9651H229.382C231.288 57.9651 232.832 59.5034 232.832 61.4006C232.832 63.2987 231.288 64.836 229.382 64.836Z" fill="#2C4C7C"/>
<path d="M226.579 59.0098H225.032V63.7914H226.579V59.0098Z" fill="#4375BB"/>
<path d="M226.339 59.4525H225.272V59.6937H226.339V59.4525Z" fill="#2C4C7C"/>
<path d="M226.339 60.062H225.272V60.3032H226.339V60.062Z" fill="#2C4C7C"/>
<path d="M226.339 60.6715H225.272V60.9127H226.339V60.6715Z" fill="#2C4C7C"/>
<path d="M226.339 61.2809H225.272V61.522H226.339V61.2809Z" fill="#2C4C7C"/>
<path d="M226.339 61.8904H225.272V62.1315H226.339V61.8904Z" fill="#2C4C7C"/>
<path d="M226.339 62.4989H225.272V62.7401H226.339V62.4989Z" fill="#2C4C7C"/>
<path d="M226.339 63.1084H225.272V63.3495H226.339V63.1084Z" fill="#2C4C7C"/>
<path d="M231.562 61.4015H255.614C258.461 61.4015 260.771 63.7 260.771 66.5363V108.008C260.771 110.843 263.079 113.143 265.927 113.143H304.658C307.506 113.143 309.815 115.441 309.815 118.278V145.205" stroke="#A8C5E2" stroke-miterlimit="10"/>
<path d="M357.67 103.303V126.944H309.694" stroke="#A8C5E2" stroke-miterlimit="10"/>
<path d="M133.77 194.219H63.8399C59.7116 194.219 56.3647 190.886 56.3647 186.775V148.442C56.3647 144.331 59.7116 140.999 63.8399 140.999H133.77C137.898 140.999 141.245 144.331 141.245 148.442V186.775C141.245 190.886 137.898 194.219 133.77 194.219Z" fill="#FDBB3B"/>
<path d="M83.6418 162.85H86.2338V174.05H83.6418V162.85ZM78.5538 174.05H75.9618V162.85H78.5538V174.05ZM83.8338 169.458H78.3618V167.266H83.8338V169.458ZM94.3237 174.242C93.4383 174.242 92.617 174.098 91.8597 173.81C91.113 173.522 90.4623 173.116 89.9077 172.594C89.3637 172.071 88.937 171.458 88.6277 170.754C88.329 170.05 88.1797 169.282 88.1797 168.45C88.1797 167.618 88.329 166.85 88.6277 166.146C88.937 165.442 89.369 164.828 89.9237 164.306C90.4783 163.783 91.129 163.378 91.8757 163.09C92.6223 162.802 93.433 162.658 94.3077 162.658C95.193 162.658 96.0037 162.802 96.7397 163.09C97.4863 163.378 98.1317 163.783 98.6757 164.306C99.2303 164.828 99.6623 165.442 99.9717 166.146C100.281 166.839 100.436 167.607 100.436 168.45C100.436 169.282 100.281 170.055 99.9717 170.77C99.6623 171.474 99.2303 172.087 98.6757 172.61C98.1317 173.122 97.4863 173.522 96.7397 173.81C96.0037 174.098 95.1983 174.242 94.3237 174.242ZM94.3077 172.034C94.809 172.034 95.2677 171.948 95.6837 171.778C96.1103 171.607 96.4837 171.362 96.8037 171.042C97.1237 170.722 97.369 170.343 97.5397 169.906C97.721 169.468 97.8117 168.983 97.8117 168.45C97.8117 167.916 97.721 167.431 97.5397 166.994C97.369 166.556 97.1237 166.178 96.8037 165.858C96.4943 165.538 96.1263 165.292 95.6997 165.122C95.273 164.951 94.809 164.866 94.3077 164.866C93.8063 164.866 93.3423 164.951 92.9157 165.122C92.4997 165.292 92.1317 165.538 91.8117 165.858C91.4917 166.178 91.241 166.556 91.0597 166.994C90.889 167.431 90.8037 167.916 90.8037 168.45C90.8037 168.972 90.889 169.458 91.0597 169.906C91.241 170.343 91.4863 170.722 91.7957 171.042C92.1157 171.362 92.489 171.607 92.9157 171.778C93.3423 171.948 93.8063 172.034 94.3077 172.034ZM106.064 174.242C105.168 174.242 104.309 174.124 103.488 173.89C102.666 173.644 102.005 173.33 101.504 172.946L102.384 170.994C102.864 171.335 103.429 171.618 104.08 171.842C104.741 172.055 105.408 172.162 106.08 172.162C106.592 172.162 107.002 172.114 107.312 172.018C107.632 171.911 107.866 171.767 108.016 171.586C108.165 171.404 108.24 171.196 108.24 170.962C108.24 170.663 108.122 170.428 107.888 170.258C107.653 170.076 107.344 169.932 106.96 169.826C106.576 169.708 106.149 169.602 105.68 169.506C105.221 169.399 104.757 169.271 104.288 169.122C103.829 168.972 103.408 168.78 103.024 168.546C102.64 168.311 102.325 168.002 102.08 167.618C101.845 167.234 101.728 166.743 101.728 166.146C101.728 165.506 101.898 164.924 102.24 164.402C102.592 163.868 103.114 163.447 103.808 163.138C104.512 162.818 105.392 162.658 106.448 162.658C107.152 162.658 107.845 162.743 108.528 162.914C109.21 163.074 109.813 163.319 110.336 163.65L109.536 165.618C109.013 165.319 108.49 165.1 107.968 164.962C107.445 164.812 106.933 164.738 106.432 164.738C105.93 164.738 105.52 164.796 105.2 164.914C104.88 165.031 104.65 165.186 104.512 165.378C104.373 165.559 104.304 165.772 104.304 166.018C104.304 166.306 104.421 166.54 104.656 166.722C104.89 166.892 105.2 167.031 105.584 167.138C105.968 167.244 106.389 167.351 106.848 167.458C107.317 167.564 107.781 167.687 108.24 167.826C108.709 167.964 109.136 168.151 109.52 168.386C109.904 168.62 110.213 168.93 110.448 169.314C110.693 169.698 110.816 170.183 110.816 170.77C110.816 171.399 110.64 171.975 110.288 172.498C109.936 173.02 109.408 173.442 108.704 173.762C108.01 174.082 107.13 174.242 106.064 174.242ZM114.751 174.05V164.962H111.167V162.85H120.927V164.962H117.343V174.05H114.751Z" fill="#008080"/>
<path d="M172.48 87.9141V113.399C172.48 118.452 168.366 122.549 163.292 122.549H106.994C101.919 122.549 97.8051 126.645 97.8051 131.698V140.999" stroke="#A8C5E2" stroke-miterlimit="10"/>
<path d="M169.03 89.8216V87.0314H175.93V89.8225C175.93 91.7197 174.386 93.258 172.48 93.258C170.574 93.2571 169.03 91.7197 169.03 89.8216Z" fill="#2C4C7C"/>
<path d="M174.882 87.0312V85.4901H170.08V87.0312H174.882Z" fill="#4375BB"/>
<path d="M174.436 86.7915V85.7289H174.194V86.7915H174.436Z" fill="#2C4C7C"/>
<path d="M173.825 86.7913V85.7288H173.582V86.7913H173.825Z" fill="#2C4C7C"/>
<path d="M173.213 86.7912V85.7286H172.97V86.7912H173.213Z" fill="#2C4C7C"/>
<path d="M172.601 86.792V85.7294H172.359V86.792H172.601Z" fill="#2C4C7C"/>
<path d="M171.989 86.7917V85.7291H171.747V86.7917H171.989Z" fill="#2C4C7C"/>
<path d="M171.377 86.7917V85.7291H171.135V86.7917H171.377Z" fill="#2C4C7C"/>
<path d="M170.765 86.7915V85.7289H170.523V86.7915H170.765Z" fill="#2C4C7C"/>
<path d="M101.255 137.169V139.961H94.355V137.169C94.355 135.272 95.8998 133.734 97.805 133.734C99.7103 133.734 101.255 135.272 101.255 137.169Z" fill="#2C4C7C"/>
<path d="M95.4041 139.96V141.501H100.206V139.96H95.4041Z" fill="#4375BB"/>
<path d="M95.8481 140.2V141.262H96.0903V140.2H95.8481Z" fill="#2C4C7C"/>
<path d="M96.4601 140.2V141.262H96.7023V140.2H96.4601Z" fill="#2C4C7C"/>
<path d="M97.072 140.2V141.262H97.3142V140.2H97.072Z" fill="#2C4C7C"/>
<path d="M97.684 140.2V141.262H97.9261V140.2H97.684Z" fill="#2C4C7C"/>
<path d="M98.2959 140.199V141.262H98.5381V140.199H98.2959Z" fill="#2C4C7C"/>
<path d="M98.9077 140.2V141.263H99.1499V140.2H98.9077Z" fill="#2C4C7C"/>
<path d="M99.5197 140.2V141.263H99.7618V140.2H99.5197Z" fill="#2C4C7C"/>
<path d="M275.288 116.612C280.653 111.269 280.653 102.608 275.288 97.2658C269.923 91.9236 261.225 91.9236 255.86 97.2658C250.495 102.608 250.495 111.269 255.86 116.612C261.225 121.954 269.923 121.954 275.288 116.612Z" fill="#76A87E"/>
<path d="M259.094 106.422L263.647 110.574C264.524 111.374 265.904 111.237 266.605 110.281L272.265 102.571" stroke="#008080" stroke-width="2" stroke-miterlimit="10"/>
<path d="M112.254 283.794H47.4996C46.7116 283.794 46.0731 283.158 46.0731 282.373V270.035C46.0731 269.25 46.7116 268.614 47.4996 268.614H112.254C113.042 268.614 113.681 269.25 113.681 270.035V282.373C113.681 283.158 113.042 283.794 112.254 283.794Z" fill="#BCCCDD"/>
<path d="M107.698 283.794H52.0565V287.967H107.698V283.794Z" fill="#96AABC"/>
<path d="M107.698 303.145H52.0565V307.317H107.698V303.145Z" fill="#96AABC"/>
<path d="M107.77 278.572H85.7766C85.2327 278.572 84.7928 278.133 84.7928 277.592V275.01C84.7928 274.47 85.2336 274.031 85.7766 274.031H107.77C108.314 274.031 108.754 274.47 108.754 275.01V277.592C108.754 278.133 108.313 278.572 107.77 278.572Z" fill="#008080"/>
<path d="M55.4943 276.301C55.4943 277.555 54.4735 278.572 53.2135 278.572C51.9534 278.572 50.9326 277.556 50.9326 276.301C50.9326 275.047 51.9534 274.03 53.2135 274.03C54.4726 274.031 55.4943 275.047 55.4943 276.301Z" fill="#008080"/>
<path d="M63.7472 276.301C63.7472 277.555 62.7264 278.572 61.4664 278.572C60.2063 278.572 59.1855 277.556 59.1855 276.301C59.1855 275.047 60.2063 274.03 61.4664 274.03C62.7264 274.03 63.7472 275.047 63.7472 276.301Z" fill="#008080"/>
<path d="M112.254 303.145H47.4996C46.7116 303.145 46.0731 302.509 46.0731 301.725V289.386C46.0731 288.602 46.7116 287.966 47.4996 287.966H112.254C113.042 287.966 113.681 288.602 113.681 289.386V301.725C113.681 302.509 113.042 303.145 112.254 303.145Z" fill="#BCCCDD"/>
<path d="M107.77 297.924H85.7766C85.2327 297.924 84.7928 297.485 84.7928 296.944V294.362C84.7928 293.82 85.2336 293.382 85.7766 293.382H107.77C108.314 293.382 108.754 293.821 108.754 294.362V296.944C108.754 297.486 108.313 297.924 107.77 297.924Z" fill="#008080"/>
<path d="M55.4943 295.653C55.4943 296.907 54.4735 297.925 53.2135 297.925C51.9534 297.925 50.9326 296.908 50.9326 295.653C50.9326 294.4 51.9534 293.382 53.2135 293.382C54.4726 293.382 55.4943 294.399 55.4943 295.653Z" fill="#008080"/>
<path d="M63.7472 295.653C63.7472 296.907 62.7264 297.925 61.4664 297.925C60.2063 297.925 59.1855 296.908 59.1855 295.653C59.1855 294.4 60.2063 293.382 61.4664 293.382C62.7264 293.382 63.7472 294.399 63.7472 295.653Z" fill="#008080"/>
<path d="M112.254 322.497H47.4996C46.7116 322.497 46.0731 321.861 46.0731 321.076V308.738C46.0731 307.953 46.7116 307.317 47.4996 307.317H112.254C113.042 307.317 113.681 307.953 113.681 308.738V321.076C113.681 321.861 113.042 322.497 112.254 322.497Z" fill="#BCCCDD"/>
<path d="M107.77 317.276H85.7766C85.2327 317.276 84.7928 316.837 84.7928 316.296V313.714C84.7928 313.173 85.2336 312.735 85.7766 312.735H107.77C108.314 312.735 108.754 313.174 108.754 313.714V316.296C108.754 316.837 108.313 317.276 107.77 317.276Z" fill="#008080"/>
<path d="M55.4943 315.005C55.4943 316.259 54.4735 317.276 53.2135 317.276C51.9534 317.276 50.9326 316.26 50.9326 315.005C50.9326 313.751 51.9534 312.734 53.2135 312.734C54.4726 312.734 55.4943 313.751 55.4943 315.005Z" fill="#008080"/>
<path d="M61.4673 317.276C62.727 317.276 63.7481 316.259 63.7481 315.005C63.7481 313.751 62.727 312.734 61.4673 312.734C60.2076 312.734 59.1865 313.751 59.1865 315.005C59.1865 316.259 60.2076 317.276 61.4673 317.276Z" fill="#008080"/>
<path d="M81.8328 264.282V267.073H74.9327V264.282C74.9327 262.385 76.4775 260.846 78.3827 260.846C80.288 260.846 81.8328 262.385 81.8328 264.282Z" fill="#2C4C7C"/>
<path d="M75.9822 267.073V268.614H80.7841V267.073H75.9822Z" fill="#4375BB"/>
<path d="M76.4264 267.312V268.374H76.6686V267.312H76.4264Z" fill="#2C4C7C"/>
<path d="M77.0382 267.313V268.375H77.2804V267.313H77.0382Z" fill="#2C4C7C"/>
<path d="M77.6502 267.312V268.375H77.8924V267.312H77.6502Z" fill="#2C4C7C"/>
<path d="M78.2621 267.312V268.375H78.5042V267.312H78.2621Z" fill="#2C4C7C"/>
<path d="M78.874 267.312V268.375H79.1162V267.312H78.874Z" fill="#2C4C7C"/>
<path d="M79.4859 267.312V268.375H79.7281V267.312H79.4859Z" fill="#2C4C7C"/>
<path d="M80.0978 267.312V268.374H80.34V267.312H80.0978Z" fill="#2C4C7C"/>
<path d="M78.3828 261.889V235.278C78.3828 234.048 79.3836 233.051 80.6191 233.051H99.0197C100.254 233.051 101.256 232.054 101.256 230.824V198.872" stroke="#A8C5E2" stroke-miterlimit="10"/>
<path d="M97.8051 198.551V195.76H104.705V198.551C104.705 200.448 103.16 201.987 101.255 201.987C99.3499 201.987 97.8051 200.448 97.8051 198.551Z" fill="#2C4C7C"/>
<path d="M103.656 195.76V194.219H98.8545V195.76H103.656Z" fill="#4375BB"/>
<path d="M103.212 195.52V194.458H102.97V195.52H103.212Z" fill="#2C4C7C"/>
<path d="M102.6 195.521V194.458H102.358V195.521H102.6Z" fill="#2C4C7C"/>
<path d="M101.988 195.521V194.458H101.746V195.521H101.988Z" fill="#2C4C7C"/>
<path d="M101.377 195.521V194.458H101.134V195.521H101.377Z" fill="#2C4C7C"/>
<path d="M100.765 195.521V194.458H100.522V195.521H100.765Z" fill="#2C4C7C"/>
<path d="M100.153 195.521V194.458H99.9106V195.521H100.153Z" fill="#2C4C7C"/>
<path d="M99.5408 195.52V194.458H99.2986V195.52H99.5408Z" fill="#2C4C7C"/>
<path d="M394.469 127.067C384.796 127.067 376.946 134.868 376.946 144.499C376.946 154.131 384.796 161.948 394.469 161.948C404.142 161.948 411.975 154.131 411.975 144.499C411.975 134.868 404.142 127.067 394.469 127.067ZM394.469 154.279C389.033 154.279 384.631 149.913 384.631 144.5C384.631 139.103 389.032 134.721 394.469 134.721C399.888 134.721 404.289 139.104 404.289 144.5C404.289 149.913 399.888 154.279 394.469 154.279Z" fill="#E2EAF2"/>
<path d="M399.213 144.499C399.213 147.116 397.085 149.227 394.465 149.227C391.837 149.227 389.708 147.116 389.708 144.499C389.708 141.89 391.836 139.771 394.465 139.771C397.084 139.771 399.213 141.891 399.213 144.499Z" fill="#E2EAF2"/>
<path d="M400.641 115.274H388.284V131.095H400.641V115.274Z" fill="#E2EAF2"/>
<path d="M378.071 119.487L369.333 128.188L380.568 139.375L389.306 130.674L378.071 119.487Z" fill="#E2EAF2"/>
<path d="M365.108 138.351V150.657H380.997V138.351H365.108Z" fill="#E2EAF2"/>
<path d="M369.337 160.827L378.075 169.528L389.31 158.34L380.572 149.639L369.337 160.827Z" fill="#E2EAF2"/>
<path d="M388.283 173.734H400.641V157.913H388.283V173.734Z" fill="#E2EAF2"/>
<path d="M410.853 169.522L419.591 160.82L408.356 149.633L399.618 158.334L410.853 169.522Z" fill="#E2EAF2"/>
<path d="M423.817 150.657V138.351H407.928V150.657H423.817Z" fill="#E2EAF2"/>
<path d="M419.584 128.183L410.846 119.482L399.611 130.67L408.349 139.371L419.584 128.183Z" fill="#E2EAF2"/>
<path d="M424.632 208.814C424.632 210.045 425.633 211.037 426.868 211.037C428.101 211.037 429.101 210.044 429.101 208.814C429.101 207.587 428.1 206.591 426.868 206.591C425.633 206.591 424.632 207.588 424.632 208.814Z" stroke="#E2EAF2" stroke-miterlimit="10"/>
<path d="M440.671 211.71V205.923H434.567C434.505 205.759 434.44 205.598 434.368 205.44L438.683 201.143L434.574 197.051L430.258 201.349C430.099 201.277 429.937 201.213 429.773 201.151V195.071H423.961V201.153C423.798 201.214 423.636 201.279 423.478 201.351L419.161 197.052L415.052 201.144L419.367 205.441C419.295 205.599 419.229 205.761 419.167 205.924H413.063V211.711H419.169C419.231 211.874 419.296 212.035 419.367 212.193L415.052 216.49L419.161 220.583L423.477 216.285C423.636 216.357 423.798 216.422 423.962 216.484V222.563H429.773V216.486C429.938 216.424 430.101 216.359 430.26 216.287L434.574 220.583L438.683 216.49L434.367 212.193C434.439 212.035 434.504 211.874 434.566 211.711H440.671V211.71ZM431.489 208.814C431.489 211.359 429.419 213.413 426.87 213.413C424.314 213.413 422.244 211.359 422.244 208.814C422.244 206.276 424.314 204.215 426.87 204.215C429.419 204.216 431.489 206.277 431.489 208.814Z" stroke="#E2EAF2" stroke-miterlimit="10"/>
<path d="M98.3812 82.4044C98.3812 89.2998 95.5214 95.5151 90.9087 99.9472C86.4947 104.206 80.4772 106.83 73.8505 106.83C67.2114 106.83 61.2062 104.206 56.7799 99.9472C52.1672 95.5151 49.3074 89.2876 49.3074 82.4044C49.3074 75.5212 52.1672 69.2936 56.7799 64.8615C61.2062 60.5905 67.2114 57.9661 73.8505 57.9661C80.4772 57.9661 86.4947 60.5905 90.9087 64.8615C95.5224 69.2814 98.3812 75.508 98.3812 82.4044Z" stroke="#E2EAF2" stroke-width="2" stroke-miterlimit="10"/>
<path d="M90.9097 64.8615C88.995 66.7059 86.7946 68.2414 84.3577 69.3925C81.1744 70.9026 77.6193 71.7447 73.8524 71.7447C70.0854 71.7447 66.5294 70.9026 63.3338 69.3925C60.9092 68.2414 58.6965 66.7059 56.7818 64.8615C61.2081 60.5905 67.2133 57.9661 73.8524 57.9661C80.4782 57.9661 86.4957 60.5905 90.9097 64.8615Z" stroke="#E2EAF2" stroke-width="2" stroke-miterlimit="10"/>
<path d="M90.9097 99.9472C86.4956 104.206 80.4781 106.83 73.8514 106.83C67.2124 106.83 61.2072 104.206 56.7808 99.9472C58.6955 98.0905 60.9082 96.5551 63.3328 95.4039C66.5284 93.8939 70.0835 93.0518 73.8514 93.0518C77.6184 93.0518 81.1744 93.8939 84.3567 95.4039C86.7946 96.5551 88.995 98.0896 90.9097 99.9472Z" stroke="#E2EAF2" stroke-width="2" stroke-miterlimit="10"/>
<path d="M73.8495 106.834C80.7136 106.834 86.2781 95.8954 86.2781 82.4017C86.2781 68.9079 80.7136 57.969 73.8495 57.969C66.9854 57.969 61.421 68.9079 61.421 82.4017C61.421 95.8954 66.9854 106.834 73.8495 106.834Z" stroke="#E2EAF2" stroke-width="2" stroke-miterlimit="10"/>
<path d="M73.8495 57.969V106.833" stroke="#E2EAF2" stroke-width="2" stroke-miterlimit="10"/>
<path d="M49.3131 82.4015H98.3859" stroke="#E2EAF2" stroke-width="2" stroke-miterlimit="10"/>
<path d="M87.6422 345.449H46.0731V353.673H87.6422V345.449Z" fill="#E2EAF2"/>
<path d="M110.091 359.818H46.0731V368.041H110.091V359.818Z" fill="#E2EAF2"/>
<path d="M68.3741 373.245H46.0731V381.469H68.3741V373.245Z" fill="#E2EAF2"/>
</g>
</g>
<defs>
<clipPath id="clip0_474_816">
<rect width="473" height="471" fill="white"/>
</clipPath>
</defs>
</svg>
