<svg width="45" height="45" viewBox="0 0 45 45" fill="none" xmlns="http://www.w3.org/2000/svg">
<g id="typcn:camera-outline">
<path id="Vector" d="M35.875 37.5H9.625C6.52375 37.5 4 34.9762 4 31.875V16.875C4 13.7737 6.52375 11.25 9.625 11.25H12.5988L14.4738 9.375C15.5594 8.28938 17.4663 7.5 19 7.5H26.5C28.0338 7.5 29.9406 8.28938 31.0262 9.375L32.9012 11.25H35.875C38.9762 11.25 41.5 13.7737 41.5 16.875V31.875C41.5 34.9762 38.9762 37.5 35.875 37.5ZM9.625 15C9.12772 15 8.65081 15.1975 8.29918 15.5492C7.94754 15.9008 7.75 16.3777 7.75 16.875V31.875C7.75 32.3723 7.94754 32.8492 8.29918 33.2008C8.65081 33.5525 9.12772 33.75 9.625 33.75H35.875C36.3723 33.75 36.8492 33.5525 37.2008 33.2008C37.5525 32.8492 37.75 32.3723 37.75 31.875V16.875C37.75 16.3777 37.5525 15.9008 37.2008 15.5492C36.8492 15.1975 36.3723 15 35.875 15H32.125C31.6278 14.9999 31.1509 14.8023 30.7994 14.4506L28.375 12.0262C27.9981 11.6494 27.0344 11.25 26.5 11.25H19C18.4656 11.25 17.5019 11.6494 17.125 12.0262L14.7006 14.4506C14.3491 14.8023 13.8722 14.9999 13.375 15H9.625ZM22.75 18.75C25.3356 18.75 27.4375 20.8519 27.4375 23.4375C27.4375 26.0231 25.3356 28.125 22.75 28.125C20.1644 28.125 18.0625 26.0231 18.0625 23.4375C18.0625 20.8519 20.1644 18.75 22.75 18.75ZM22.75 16.875C21.0095 16.875 19.3403 17.5664 18.1096 18.7971C16.8789 20.0278 16.1875 21.697 16.1875 23.4375C16.1875 25.178 16.8789 26.8472 18.1096 28.0779C19.3403 29.3086 21.0095 30 22.75 30C24.4905 30 26.1597 29.3086 27.3904 28.0779C28.6211 26.8472 29.3125 25.178 29.3125 23.4375C29.3125 21.697 28.6211 20.0278 27.3904 18.7971C26.1597 17.5664 24.4905 16.875 22.75 16.875ZM34 16.3106C33.6799 16.3106 33.3629 16.3737 33.0672 16.4962C32.7715 16.6187 32.5028 16.7982 32.2764 17.0246C32.0501 17.2509 31.8705 17.5196 31.748 17.8153C31.6255 18.1111 31.5625 18.428 31.5625 18.7481C31.5625 19.0682 31.6255 19.3852 31.748 19.6809C31.8705 19.9766 32.0501 20.2454 32.2764 20.4717C32.5028 20.698 32.7715 20.8776 33.0672 21.0001C33.3629 21.1226 33.6799 21.1856 34 21.1856C34.6465 21.1856 35.2665 20.9288 35.7236 20.4717C36.1807 20.0146 36.4375 19.3946 36.4375 18.7481C36.4375 18.1017 36.1807 17.4817 35.7236 17.0246C35.2665 16.5674 34.6465 16.3106 34 16.3106Z" fill="black"/>
</g>
</svg>
