<svg width="483" height="341" viewBox="0 0 483 341" fill="none" xmlns="http://www.w3.org/2000/svg">
<path d="M478.877 166.64C450.238 286.808 315.304 335.469 212.109 337.314C153.406 338.363 88.2717 323.636 42.4768 277.309C-41.4466 192.409 6.177 -18.0809 131.737 2.1386C180.703 10.0237 230.058 43.4899 279.876 30.1756C311.032 21.848 335.364 5.36173 369.244 7.36624C424.098 10.6112 471.072 52.8051 480.822 112.97C483.865 131.757 482.914 149.704 478.877 166.64Z" fill="#EDEDFF"/>
<path d="M475.404 340.222H11.4874C9.0414 340.222 7.05762 338.201 7.05762 335.709C7.05762 333.217 9.04033 331.197 11.4874 331.197H475.404C477.85 331.197 479.834 333.217 479.834 335.709C479.834 338.201 477.851 340.222 475.404 340.222Z" fill="#A7A7BA"/>
<path d="M215.02 209.731C236.071 244.861 250.08 287.8 251.717 288.189C253.935 288.717 303.394 303.026 329.513 309.859L326.224 327.882C292.94 326.978 239.946 323.776 231.929 317.459C219.515 307.68 187.207 238.721 178.052 222.065C191.451 219.779 203.557 217.563 215.02 209.731Z" fill="#FFA45E"/>
<path d="M321.507 308.905C321.507 308.905 329.675 310.434 333.935 308.787C338.196 307.14 342.839 302.72 346.634 302.986C350.428 303.252 361.459 303.913 366.179 305.871C370.898 307.829 376.751 309.753 375.762 311.653C374.772 313.553 372.403 314.221 370.5 313.895C370.5 313.895 372.397 315.144 372.038 317.111C371.677 319.08 367.533 319.235 367.533 319.235C367.533 319.235 371.246 323.069 366.827 324.307C366.827 324.307 366.182 328.188 363.833 329.893C361.485 331.596 357.75 332.338 353.798 331.661C349.845 330.984 342.279 331.223 337.544 330.719C332.811 330.215 319.182 327.396 319.182 327.396C319.182 327.396 315.147 310.817 321.507 308.905Z" fill="#FFA45E"/>
<path d="M370.499 313.895C367.088 313.615 363.776 312.928 360.486 312.147C358.842 311.728 357.223 311.313 355.579 310.783C353.954 310.244 352.362 309.586 350.884 308.698L355.843 309.751C357.48 310.055 359.153 310.423 360.793 310.816C364.076 311.643 367.338 312.566 370.499 313.895Z" fill="#FFA45E"/>
<path d="M367.532 319.235C365.973 319.298 364.447 319.23 362.93 319.116C361.423 318.991 359.904 318.863 358.347 318.597C356.822 318.301 355.331 317.915 353.87 317.427C352.409 316.946 350.969 316.392 349.582 315.682C352.658 316.019 355.627 316.708 358.586 317.252C359.332 317.412 360.034 317.493 360.8 317.625C361.555 317.77 362.314 317.892 363.065 318.063C364.571 318.377 366.067 318.74 367.532 319.235Z" fill="#FFA45E"/>
<path d="M366.826 324.307C365.586 325.343 364.049 325.961 362.505 326.387L361.92 326.538L361.28 326.632C360.859 326.671 360.444 326.687 360.038 326.682C359.224 326.661 358.425 326.577 357.637 326.471C356.061 326.23 354.516 325.889 352.999 325.44C351.482 324.998 349.988 324.473 348.547 323.784C351.708 324.074 354.77 324.678 357.825 325.116C358.586 325.245 359.347 325.328 360.097 325.391C360.47 325.428 360.842 325.441 361.202 325.439C361.542 325.427 361.914 325.399 362.301 325.344C363.816 325.125 365.329 324.836 366.826 324.307Z" fill="#FFA45E"/>
<path d="M164.003 205.811C164.003 205.811 196.09 214.279 212.392 203.234C212.392 203.234 218.943 18.3752 139.738 29.273C60.5329 40.1708 81.246 205.811 81.246 205.811H164.003Z" fill="#1B1B1B"/>
<path d="M109.218 169.883C110.595 169 113.823 166.672 116.712 162.7C120.616 157.333 125.409 148.567 122.612 136.701C122.612 136.701 150.936 126.037 166.695 136.472C166.695 136.472 161.806 159.867 175.989 168.696C172.541 204.393 165.221 228.52 165.221 228.52L108.594 170.366C108.803 170.205 109.012 170.044 109.218 169.883Z" fill="#FFC685"/>
<path d="M145.164 148.384C166.357 148.384 183.538 124.914 183.538 95.9614C183.538 67.0093 166.357 43.5389 145.164 43.5389C123.97 43.5389 106.789 67.0093 106.789 95.9614C106.789 124.914 123.97 148.384 145.164 148.384Z" fill="#FFC685"/>
<path d="M123.632 88.4055C123.632 90.9277 124.825 92.9726 126.297 92.9726C127.77 92.9726 128.963 90.9277 128.963 88.4055C128.963 85.8832 127.77 83.8384 126.297 83.8384C124.825 83.8384 123.632 85.8832 123.632 88.4055Z" fill="#1B1B1B"/>
<path d="M166.695 88.4055C166.695 90.9277 165.502 92.9726 164.03 92.9726C162.558 92.9726 161.365 90.9277 161.365 88.4055C161.365 85.8832 162.558 83.8384 164.03 83.8384C165.502 83.8384 166.695 85.8832 166.695 88.4055Z" fill="#1B1B1B"/>
<g opacity="0.48">
<path d="M121.201 113.509C126.131 113.509 130.128 110.044 130.128 105.769C130.128 101.495 126.131 98.0292 121.201 98.0292C116.271 98.0292 112.274 101.495 112.274 105.769C112.274 110.044 116.271 113.509 121.201 113.509Z" fill="#FF9C91"/>
<path d="M169.126 113.509C174.056 113.509 178.053 110.044 178.053 105.769C178.053 101.495 174.056 98.0292 169.126 98.0292C164.196 98.0292 160.199 101.495 160.199 105.769C160.199 110.044 164.196 113.509 169.126 113.509Z" fill="#FF9C91"/>
</g>
<path d="M107.758 88.5843C106.387 87.9728 105.814 86.6451 104.004 86.3607C91.1447 84.3354 95.4483 114.489 109.243 112.175C109.243 112.175 112.876 90.8645 107.758 88.5843Z" fill="#FFC685"/>
<path d="M182.314 88.5843C183.686 87.9728 184.257 86.6451 186.068 86.3607C198.927 84.3354 194.623 114.489 180.829 112.175C180.829 112.175 177.195 90.8645 182.314 88.5843Z" fill="#FFC685"/>
<path d="M108.531 170.301C108.531 170.301 108.787 170.16 109.218 169.884C109.013 170.045 108.803 170.206 108.594 170.365L108.531 170.301Z" fill="#B85C44"/>
<path d="M87.3813 180.869V180.87L87.3823 180.869H87.3813Z" fill="#26A59A"/>
<path d="M97.373 249.19C99.3643 259.759 100.655 270.512 101.33 281.248C102.422 298.613 103.208 316.219 92.2755 331.046C91.809 331.679 91.3692 332.327 90.9091 332.963H210.393C208.992 330.666 207.721 328.294 206.687 325.785C206.449 325.205 206.233 324.63 206.04 324.059C200.99 309.126 211.145 296.95 215.713 283.161C218.017 276.208 219.183 269.116 218.889 261.746C218.05 240.697 205.674 222.097 197.613 203.401C194.182 195.445 190.789 187.471 187.432 179.483C187.028 178.522 184.71 170.751 183.679 170.508C170.954 167.511 167.887 155.903 167.887 155.903C153.885 167.104 119.261 158.457 119.261 158.457C113.777 167.393 103.636 173.597 96.2602 177.175C91.1649 179.647 87.3888 180.869 87.3813 180.871C98.0246 200.705 97.373 249.19 97.373 249.19Z" fill="#FF6454"/>
<path d="M145.664 86.2626C145.811 88.4371 145.951 90.5812 146.21 92.6947C146.485 94.7951 146.809 96.9064 147.559 98.7845C147.716 99.2717 147.962 99.6936 148.179 100.136C148.459 100.554 148.672 100.86 149.081 101.409C149.421 101.926 149.719 102.604 149.656 103.366C149.611 104.134 149.168 104.756 148.712 105.16C147.78 105.992 146.712 106.35 145.669 106.654C144.613 106.925 143.547 107.1 142.473 107.126C143.484 106.769 144.479 106.401 145.422 105.951C146.354 105.514 147.287 104.99 147.893 104.315C148.507 103.612 148.487 102.977 147.926 102.239C147.673 101.945 147.256 101.38 146.935 100.911C146.662 100.398 146.36 99.8876 146.175 99.3491C145.357 97.2007 145.102 94.9739 145.053 92.7786C145.007 90.5822 145.195 88.3935 145.664 86.2626Z" fill="#FFA45E"/>
<path d="M136.033 117.221H154.295C154.295 117.221 151.532 125.244 145.165 125.762C138.796 126.279 136.033 117.221 136.033 117.221Z" fill="white"/>
<path d="M153.996 80.4682C154.854 78.8615 156.341 77.7061 157.961 76.9377C159.597 76.1725 161.429 75.8204 163.237 75.8608C165.04 75.9567 166.818 76.3763 168.399 77.1742C169.202 77.5361 169.919 78.0756 170.628 78.5749C171.296 79.1569 171.933 79.7641 172.478 80.4682C171.567 80.4148 170.765 80.2197 169.959 80.0823C169.136 79.9962 168.38 79.7804 167.605 79.6976C166.076 79.436 164.598 79.3204 163.134 79.2278C161.668 79.1973 160.214 79.2605 158.717 79.4632C157.211 79.6616 155.689 79.9766 153.996 80.4682Z" fill="#1B1B1B"/>
<path d="M117.846 80.4682C118.705 78.8615 120.191 77.7061 121.811 76.9377C123.447 76.1725 125.279 75.8204 127.087 75.8608C128.89 75.9567 130.668 76.3763 132.249 77.1742C133.052 77.5361 133.77 78.0756 134.48 78.5749C135.147 79.1569 135.784 79.7641 136.33 80.4682C135.418 80.4148 134.617 80.2197 133.81 80.0823C132.987 79.9962 132.232 79.7804 131.456 79.6976C129.927 79.436 128.449 79.3204 126.985 79.2278C125.519 79.1973 124.065 79.2605 122.568 79.4632C121.061 79.6616 119.539 79.9766 117.846 80.4682Z" fill="#1B1B1B"/>
<path d="M124.769 57.2391C124.769 57.2391 132.815 69.2738 149.012 76.6509L143.373 62.6749C143.373 62.6749 160.918 80.1476 182.824 85.7764C182.824 85.7764 191.964 49.087 146.993 35.6931C102.023 22.2991 102.854 89.8508 102.854 89.8508C102.854 89.8508 124.275 70.439 124.769 57.2391Z" fill="#1B1B1B"/>
<path d="M186.668 95.9625C186.668 67.0099 168.085 43.54 145.163 43.54C122.241 43.54 103.659 67.0099 103.659 95.9625" stroke="#A7A7BA" stroke-width="4.3524" stroke-miterlimit="10" stroke-linecap="round" stroke-linejoin="round"/>
<path d="M185.006 112.327L181.917 112.217L182.823 85.7754L185.912 85.8855C193.08 86.1405 198.687 92.2663 198.437 99.5683C198.187 106.869 192.174 112.582 185.006 112.327Z" fill="#A7A7BA"/>
<path d="M184.92 86.0021L187.773 86.1035C187.165 85.9923 186.548 85.9073 185.913 85.8855L182.824 85.7754L181.918 112.217L184.019 112.291L184.92 86.0021Z" fill="#9090A1"/>
<path d="M105.621 112.553L108.71 112.443L107.803 86.0021L104.714 86.1122C97.5464 86.3672 91.9396 92.493 92.19 99.7949C92.4393 107.096 98.4537 112.808 105.621 112.553Z" fill="#A7A7BA"/>
<path d="M105.706 86.2288L102.854 86.3302C103.461 86.219 104.079 86.134 104.714 86.1122L107.803 86.0021L108.71 112.443L106.608 112.517L105.706 86.2288Z" fill="#9090A1"/>
<path d="M166.695 139.36C166.695 139.36 142.629 156.931 123.028 138.77L122.55 150.786C122.55 150.786 154.255 158.352 166.695 139.36Z" fill="#FFA45E"/>
<path d="M109.625 208.913C130.676 244.042 144.685 286.982 146.322 287.371C148.539 287.898 197.999 302.207 224.118 309.039L220.829 327.062C187.545 326.158 134.551 322.956 126.534 316.639C114.12 306.86 81.8121 237.901 72.6572 221.245C86.0547 218.961 98.1607 216.744 109.625 208.913Z" fill="#FFC685"/>
<path d="M216.111 308.086C216.111 308.086 224.278 309.615 228.539 307.969C232.8 306.32 237.443 301.902 241.237 302.168C245.032 302.433 256.062 303.094 260.781 305.053C265.501 307.01 271.354 308.934 270.364 310.834C269.375 312.734 267.007 313.402 265.103 313.076C265.103 313.076 267 314.325 266.641 316.293C266.28 318.261 262.136 318.416 262.136 318.416C262.136 318.416 265.849 322.251 261.43 323.488C261.43 323.488 260.785 327.369 258.436 329.074C256.087 330.778 252.353 331.519 248.4 330.842C244.448 330.165 236.882 330.404 232.148 329.9C227.415 329.397 213.786 326.577 213.786 326.577C213.786 326.577 209.752 309.998 216.111 308.086Z" fill="#FFC685"/>
<path d="M265.104 313.077C261.693 312.797 258.381 312.111 255.091 311.329C253.447 310.91 251.828 310.495 250.184 309.965C248.558 309.427 246.967 308.769 245.489 307.88L250.448 308.933C252.085 309.237 253.758 309.606 255.397 309.998C258.681 310.824 261.942 311.748 265.104 313.077Z" fill="#FFA45E"/>
<path d="M262.136 318.416C260.577 318.479 259.051 318.412 257.534 318.297C256.027 318.172 254.508 318.045 252.951 317.779C251.426 317.482 249.936 317.096 248.474 316.608C247.013 316.127 245.573 315.573 244.186 314.864C247.263 315.201 250.232 315.89 253.19 316.433C253.936 316.594 254.638 316.674 255.404 316.805C256.159 316.95 256.918 317.072 257.669 317.243C259.175 317.559 260.672 317.922 262.136 318.416Z" fill="#FFA45E"/>
<path d="M261.43 323.489C260.19 324.526 258.653 325.144 257.109 325.57L256.524 325.72L255.884 325.814C255.463 325.853 255.048 325.87 254.642 325.864C253.828 325.843 253.029 325.759 252.241 325.654C250.665 325.413 249.12 325.072 247.603 324.623C246.086 324.18 244.592 323.656 243.151 322.968C246.312 323.258 249.374 323.862 252.429 324.3C253.19 324.429 253.951 324.513 254.701 324.575C255.074 324.612 255.446 324.625 255.806 324.623C256.146 324.611 256.518 324.582 256.905 324.528C258.421 324.308 259.934 324.019 261.43 323.489Z" fill="#FFA45E"/>
<path d="M119.261 158.454C119.261 158.454 85.036 167.513 69.3306 184.333C53.6251 201.153 89.8681 261.867 89.8681 261.867L132.958 244.431L119.261 158.454Z" fill="#FF6454"/>
<path d="M128.743 246.137L116.271 201.563C116.271 201.563 134.367 243.87 132.958 255.74L128.743 246.137Z" fill="#CF5144"/>
<path d="M167.887 155.901C167.887 155.901 193.095 159.404 201.686 170.365C210.277 181.325 224.119 224.518 224.119 224.518L196.004 233.288C196.004 233.288 160.397 168.218 167.887 155.901Z" fill="#FF6454"/>
<path d="M209.931 228.943L213.714 227.763L195.485 192.538L209.931 228.943Z" fill="#CF5144"/>
<path d="M403.569 288.814H252.705C247.943 288.814 244.084 284.882 244.084 280.032V177.854C244.084 173.004 247.943 169.072 252.705 169.072H403.569C408.33 169.072 412.19 173.004 412.19 177.854V280.032C412.19 284.882 408.33 288.814 403.569 288.814Z" fill="#C2C2D1"/>
<path d="M249.022 280.032V177.854C249.022 173.004 252.882 169.072 257.643 169.072H252.705C247.943 169.072 244.084 173.004 244.084 177.854V280.032C244.084 284.882 247.943 288.814 252.705 288.814H257.643C252.882 288.814 249.022 284.882 249.022 280.032Z" fill="#A7A7BA"/>
<path d="M315.249 228.591V291.12C315.249 304.018 308.562 315.958 297.663 322.522L281.067 332.516H328.189C347.966 332.516 363.999 316.184 363.999 296.037V228.59H315.249V228.591Z" fill="#A7A7BA"/>
<path d="M315.249 228.591L305.442 288.814H315.249V228.591Z" fill="#9090A1"/>
<path d="M420.034 306.565C420.034 306.565 391.524 223.127 420.034 224.536C448.544 225.944 432.4 306.565 432.4 306.565H420.034Z" fill="#66B367"/>
<path d="M430.699 261.986C430.699 261.986 442.241 265.814 444.659 257.888C446.28 252.576 445.428 246.227 450.176 242.471C453.517 239.827 456.959 240.657 458.454 244.682C460.944 251.387 459.786 265.385 452.714 269.098C443.854 273.747 432.578 267.519 432.578 267.519L430.699 261.986Z" fill="#66B367"/>
<path d="M416.695 276.923C416.695 276.923 405.154 280.751 402.736 272.825C401.115 267.513 401.967 261.164 397.219 257.408C393.878 254.765 390.435 255.594 388.941 259.62C386.451 266.323 387.608 280.322 394.681 284.034C403.541 288.684 414.816 282.456 414.816 282.456L416.695 276.923Z" fill="#66B367"/>
<ellipse cx="455.533" cy="242.978" rx="0.394295" ry="0.401665" fill="#7AD67B"/>
<path d="M456.006 244.489C456.925 247.787 458.543 255.836 454.727 262.122C450.522 269.048 440.471 267.533 437.632 266.945" stroke="#7AD67B" stroke-width="0.737" stroke-linecap="round" stroke-linejoin="round"/>
<ellipse cx="436.875" cy="266.772" rx="0.394295" ry="0.401665" fill="#7AD67B"/>
<ellipse cx="451.641" cy="243.696" rx="0.394295" ry="0.401665" fill="#7AD67B"/>
<path d="M451.792 245.262C452.128 250.194 451.968 265.035 437.724 264.167" stroke="#7AD67B" stroke-width="0.737" stroke-linecap="round" stroke-linejoin="round"/>
<ellipse cx="436.953" cy="264.105" rx="0.394295" ry="0.401665" fill="#7AD67B"/>
<ellipse cx="391.1" cy="258.704" rx="0.394295" ry="0.401665" fill="#7AD67B"/>
<path d="M390.914 260.322C390.341 265.483 389.995 271.041 391.666 275.959C394.147 283.26 401.724 283.209 408.19 282.141C409.086 281.993 409.979 281.819 410.862 281.604" stroke="#7AD67B" stroke-width="0.737" stroke-linecap="round" stroke-linejoin="round"/>
<ellipse cx="411.637" cy="281.403" rx="0.394295" ry="0.401665" fill="#7AD67B"/>
<ellipse cx="411.637" cy="279.352" rx="0.394295" ry="0.401665" fill="#7AD67B"/>
<path d="M410.127 279.793C407.335 280.454 401.438 281.1 399.02 275.66C396.352 269.657 395.986 261.966 395.938 259.502" stroke="#7AD67B" stroke-width="0.737" stroke-linecap="round" stroke-linejoin="round"/>
<ellipse cx="395.932" cy="258.704" rx="0.394295" ry="0.401665" fill="#7AD67B"/>
<path d="M422.158 226.568C422.158 226.568 433.116 245.084 433.518 267.518C433.92 289.95 429.693 302.257 429.693 302.257" stroke="#7AD67B" stroke-width="0.737" stroke-miterlimit="10" stroke-linecap="round" stroke-linejoin="round"/>
<path d="M414.591 227.389C414.591 227.389 410.967 252.44 413.785 270.682C416.603 288.924 422.157 303.078 422.157 303.078" stroke="#7AD67B" stroke-width="0.737" stroke-miterlimit="10" stroke-linecap="round" stroke-linejoin="round"/>
<path d="M418.819 227.389C418.819 227.389 432.914 266.156 426.471 303.078" stroke="#7AD67B" stroke-width="0.737" stroke-miterlimit="10" stroke-linecap="round" stroke-linejoin="round"/>
<path d="M416.695 226.568C416.695 226.568 416.205 283.591 424.56 303.897" stroke="#7AD67B" stroke-width="0.737" stroke-miterlimit="10" stroke-linecap="round" stroke-linejoin="round"/>
<path d="M439.36 331.259H409.761L405.029 293.311H444.092L439.36 331.259Z" fill="#FF6454"/>
<path d="M447.246 291.056H401.875V297.331H447.246V291.056Z" fill="#FF6454"/>
<path d="M406.774 297.331H443.59L442.657 304.813L406.774 297.331Z" fill="#CF5144"/>
<path d="M73.5923 331.397H42.1258L37.0957 291.056H78.6224L73.5923 331.397Z" fill="#FFBFB8"/>
<path d="M41.242 300.018H32.1695C29.12 300.018 26.7703 302.821 27.3224 305.876C28.4384 312.057 31.7029 321.287 41.242 324.103" stroke="#FFBFB8" stroke-width="5.8963" stroke-miterlimit="10" stroke-linecap="round" stroke-linejoin="round"/>
<path opacity="0.3" d="M60.303 293.182H76.4108L71.8472 329.829H64.0619L60.303 293.182Z" fill="#FFDDD9"/>
<path d="M253.881 47.8914H215.918C213.225 47.8914 211.041 50.116 211.041 52.8596V70.3246C211.041 72.8851 212.95 74.9691 215.394 75.2384V82.5534L225.982 75.2929H253.881C256.574 75.2929 258.758 73.0693 258.758 70.3246V52.8596C258.757 50.115 256.574 47.8914 253.881 47.8914Z" fill="white"/>
<path d="M225.478 61.5119C225.478 63.3519 224.013 64.8441 222.207 64.8441C220.401 64.8441 218.936 63.3519 218.936 61.5119C218.936 59.672 220.401 58.1798 222.207 58.1798C224.013 58.1798 225.478 59.672 225.478 61.5119Z" fill="#C2C2D1"/>
<path d="M238.17 61.5119C238.17 63.3519 236.705 64.8441 234.899 64.8441C233.093 64.8441 231.628 63.3519 231.628 61.5119C231.628 59.672 233.093 58.1798 234.899 58.1798C236.706 58.1798 238.17 59.672 238.17 61.5119Z" fill="#C2C2D1"/>
<path d="M250.864 61.5119C250.864 63.3519 249.399 64.8441 247.593 64.8441C245.786 64.8441 244.322 63.3519 244.322 61.5119C244.322 59.672 245.786 58.1798 247.593 58.1798C249.399 58.1798 250.864 59.672 250.864 61.5119Z" fill="#C2C2D1"/>
<path d="M245.903 80.3134H280.179C282.612 80.3134 284.582 82.3211 284.582 84.7987V100.568C284.582 102.88 282.859 104.761 280.652 105.004V111.608L271.093 105.052H245.903C243.471 105.052 241.5 103.044 241.5 100.567V84.7976C241.5 82.3222 243.471 80.3134 245.903 80.3134Z" fill="white"/>
<path d="M274.502 95.6202C276.133 95.6202 277.455 94.2733 277.455 92.6118C277.455 90.9503 276.133 89.6034 274.502 89.6034C272.871 89.6034 271.549 90.9503 271.549 92.6118C271.549 94.2733 272.871 95.6202 274.502 95.6202Z" fill="#C2C2D1"/>
<path d="M260.088 92.6118C260.088 94.2729 261.41 95.6202 263.041 95.6202C264.672 95.6202 265.994 94.2729 265.994 92.6118C265.994 90.9506 264.672 89.6034 263.041 89.6034C261.41 89.6034 260.088 90.9506 260.088 92.6118Z" fill="#C2C2D1"/>
<path d="M248.627 92.6118C248.627 94.2729 249.95 95.6202 251.58 95.6202C253.211 95.6202 254.534 94.2729 254.534 92.6118C254.534 90.9506 253.211 89.6034 251.58 89.6034C249.95 89.6034 248.627 90.9506 248.627 92.6118Z" fill="#C2C2D1"/>
<path d="M434.673 159.422H395.443C392.973 159.422 390.971 157.383 390.971 154.867V133.861C390.971 131.345 392.973 129.306 395.443 129.306H434.673C437.143 129.306 439.145 131.345 439.145 133.861V154.867C439.145 157.383 437.143 159.422 434.673 159.422Z" fill="white"/>
<path d="M390.971 133.861L415.058 144.364L439.145 133.861" stroke="#EDEDFF" stroke-width="2.1768" stroke-miterlimit="10" stroke-linecap="round" stroke-linejoin="round"/>
<path d="M443.671 135.714C444.674 131.372 442.031 127.024 437.769 126.002C433.507 124.981 429.238 127.673 428.236 132.015C427.233 136.357 429.875 140.705 434.138 141.727C438.4 142.748 442.668 140.056 443.671 135.714Z" fill="#FF6454"/>
<path d="M432.077 135.994C431.952 135.994 431.85 135.956 431.77 135.88C431.69 135.8 431.65 135.702 431.65 135.586V132.223L431.743 132.37L431.256 132.73C431.194 132.779 431.116 132.804 431.022 132.804C430.916 132.804 430.822 132.764 430.742 132.684C430.662 132.604 430.622 132.508 430.622 132.397C430.622 132.254 430.691 132.139 430.829 132.05L431.79 131.409C431.834 131.378 431.883 131.356 431.937 131.342C431.994 131.329 432.048 131.322 432.097 131.322C432.226 131.322 432.328 131.362 432.404 131.442C432.479 131.518 432.517 131.614 432.517 131.729V135.586C432.517 135.702 432.475 135.8 432.39 135.88C432.31 135.956 432.206 135.994 432.077 135.994ZM436.139 135.259C436.245 135.259 436.334 135.295 436.405 135.366C436.477 135.437 436.512 135.526 436.512 135.633C436.512 135.735 436.477 135.822 436.405 135.893C436.334 135.96 436.245 135.994 436.139 135.994H433.87C433.754 135.994 433.663 135.958 433.596 135.887C433.529 135.816 433.496 135.724 433.496 135.613C433.496 135.502 433.536 135.404 433.616 135.32L435.071 133.765C435.235 133.587 435.364 133.404 435.458 133.217C435.556 133.031 435.605 132.868 435.605 132.73C435.605 132.508 435.54 132.33 435.411 132.196C435.282 132.059 435.111 131.99 434.897 131.99C434.813 131.99 434.726 132.01 434.637 132.05C434.548 132.09 434.461 132.145 434.377 132.216C434.297 132.288 434.221 132.37 434.15 132.463C434.097 132.535 434.043 132.579 433.99 132.597C433.936 132.615 433.887 132.624 433.843 132.624C433.745 132.624 433.654 132.588 433.569 132.517C433.489 132.441 433.449 132.354 433.449 132.257C433.449 132.181 433.474 132.108 433.523 132.036C433.576 131.965 433.641 131.892 433.716 131.816C433.827 131.705 433.952 131.607 434.09 131.522C434.228 131.438 434.37 131.373 434.517 131.329C434.664 131.28 434.806 131.256 434.944 131.256C435.242 131.256 435.5 131.316 435.718 131.436C435.941 131.551 436.112 131.718 436.232 131.936C436.352 132.15 436.412 132.403 436.412 132.697C436.412 132.942 436.339 133.215 436.192 133.518C436.05 133.816 435.856 134.096 435.611 134.359L434.71 135.32L434.637 135.259H436.139ZM437.629 135.053C437.669 135.053 437.711 135.059 437.756 135.073C437.805 135.086 437.858 135.113 437.916 135.153C437.991 135.211 438.08 135.262 438.183 135.306C438.29 135.351 438.412 135.373 438.55 135.373C438.688 135.373 438.817 135.34 438.937 135.273C439.061 135.202 439.164 135.104 439.244 134.979C439.324 134.85 439.364 134.697 439.364 134.519C439.364 134.35 439.328 134.21 439.257 134.098C439.19 133.987 439.099 133.903 438.984 133.845C438.872 133.787 438.752 133.758 438.623 133.758C438.525 133.758 438.443 133.767 438.376 133.785C438.314 133.802 438.252 133.823 438.189 133.845C438.132 133.863 438.063 133.871 437.983 133.871C437.88 133.871 437.8 133.836 437.742 133.765C437.689 133.694 437.662 133.609 437.662 133.511C437.662 133.449 437.673 133.393 437.696 133.344C437.722 133.295 437.76 133.242 437.809 133.184L438.984 131.936L439.164 132.09H437.522C437.415 132.09 437.326 132.054 437.255 131.983C437.184 131.912 437.148 131.823 437.148 131.716C437.148 131.614 437.184 131.529 437.255 131.462C437.326 131.391 437.415 131.356 437.522 131.356H439.564C439.702 131.356 439.804 131.393 439.871 131.469C439.942 131.545 439.978 131.64 439.978 131.756C439.978 131.814 439.962 131.872 439.931 131.93C439.9 131.983 439.862 132.032 439.818 132.076L438.637 133.344L438.456 133.117C438.505 133.095 438.572 133.075 438.657 133.057C438.746 133.04 438.819 133.031 438.877 133.031C439.139 133.031 439.366 133.1 439.557 133.237C439.753 133.371 439.902 133.547 440.005 133.765C440.111 133.978 440.165 134.21 440.165 134.459C440.165 134.788 440.091 135.073 439.945 135.313C439.798 135.553 439.591 135.738 439.324 135.867C439.057 135.996 438.746 136.06 438.39 136.06C438.225 136.06 438.063 136.04 437.903 136C437.742 135.96 437.604 135.907 437.489 135.84C437.391 135.787 437.324 135.729 437.289 135.667C437.257 135.6 437.242 135.538 437.242 135.48C437.242 135.377 437.277 135.282 437.349 135.193C437.424 135.099 437.518 135.053 437.629 135.053Z" fill="white"/>
<path d="M434.987 66.611C434.769 65.9952 434.185 65.5897 433.543 65.5897H431.816C431.508 64.4278 431.076 63.3181 430.533 62.2783L431.858 60.9278C432.313 60.4645 432.444 59.7571 432.171 59.1641C431.167 56.9809 429.593 55.3786 427.45 54.3551C426.868 54.0771 426.173 54.2101 425.719 54.6733L424.496 55.9192C423.492 55.3306 422.42 54.8488 421.292 54.4968V52.5893C421.292 51.9342 420.893 51.3401 420.289 51.1178C418.064 50.297 415.839 50.297 413.614 51.1178C413.009 51.3401 412.611 51.9353 412.611 52.5893V54.3485C411.471 54.6614 410.382 55.1017 409.361 55.6554L408.035 54.3049C407.58 53.8417 406.886 53.7087 406.304 53.9866C404.16 55.0102 402.587 56.6125 401.583 58.7957C401.31 59.3887 401.441 60.0961 401.895 60.5593L403.118 61.8052C402.54 62.8276 402.067 63.9198 401.722 65.0687H399.849C399.206 65.0687 398.623 65.4752 398.405 66.09C397.599 68.3572 397.599 70.6233 398.405 72.8905C398.623 73.5064 399.207 73.9118 399.849 73.9118H401.576C401.883 75.0738 402.316 76.1834 402.859 77.2233L401.533 78.5738C401.079 79.037 400.948 79.7444 401.221 80.3374C402.225 82.5207 403.799 84.123 405.942 85.1465C406.524 85.4244 407.218 85.2904 407.673 84.8282L408.896 83.5823C409.9 84.1709 410.972 84.6527 412.101 85.0048V86.9123C412.101 87.5663 412.5 88.1614 413.103 88.3838C415.329 89.2046 417.554 89.2046 419.779 88.3838C420.384 88.1614 420.782 87.5663 420.782 86.9123V85.153C421.922 84.8402 423.011 84.3998 424.032 83.8461L425.358 85.1966C425.813 85.6599 426.507 85.7928 427.089 85.5149C429.233 84.4925 430.805 82.8891 431.81 80.7058C432.083 80.1129 431.953 79.4054 431.498 78.9422L430.275 77.6963C430.853 76.6739 431.326 75.5817 431.671 74.4329H433.544C434.186 74.4329 434.77 74.0263 434.988 73.4115C435.793 71.1443 435.793 68.8771 434.987 66.611ZM416.695 80.7701C410.722 80.7701 405.879 75.8368 405.879 69.7502C405.879 63.6648 410.722 58.7314 416.695 58.7314C422.669 58.7314 427.513 63.6648 427.513 69.7502C427.513 75.8368 422.67 80.7701 416.695 80.7701Z" fill="#C2C2D1"/>
<path d="M74.6762 100.954C74.3413 100.01 73.4457 99.3874 72.4603 99.3874H69.812C69.3401 97.6063 68.6778 95.9049 67.8453 94.3091L69.8783 92.2381C70.5749 91.5285 70.7761 90.4429 70.3577 89.5338C68.818 86.1864 66.4051 83.7285 63.1192 82.1599C62.2268 81.7338 61.1621 81.9387 60.4656 82.6483L58.5898 84.559C57.0501 83.6565 55.4066 82.9186 53.6764 82.378V79.4535C53.6764 78.4496 53.0654 77.5383 52.1388 77.1961C48.7266 75.9382 45.3144 75.9382 41.9021 77.1961C40.9755 77.5373 40.3645 78.4496 40.3645 79.4535V82.1512C38.6162 82.6319 36.9459 83.3066 35.3794 84.1546L33.3464 82.0836C32.6498 81.3741 31.5841 81.1691 30.6928 81.5953C27.4068 83.1638 24.994 85.6218 23.4543 88.9692C23.0359 89.8782 23.237 90.9628 23.9336 91.6724L25.8093 93.5832C24.9234 95.1517 24.199 96.8259 23.6683 98.5884H20.7974C19.812 98.5884 18.9175 99.2108 18.5815 100.155C17.3467 103.631 17.3467 107.107 18.5815 110.583C18.9164 111.527 19.812 112.149 20.7974 112.149H23.4457C23.9176 113.93 24.5799 115.632 25.4124 117.227L23.3794 119.298C22.6828 120.008 22.4816 121.094 22.9 122.002C24.4397 125.349 26.8526 127.807 30.1385 129.375C31.0309 129.802 32.0956 129.597 32.7921 128.887L34.6679 126.976C36.2076 127.879 37.8511 128.617 39.5813 129.157V132.082C39.5813 133.086 40.1923 133.997 41.1189 134.339C44.5311 135.597 47.9433 135.597 51.3556 134.339C52.2822 133.998 52.8932 133.086 52.8932 132.082V129.384C54.6416 128.904 56.3118 128.229 57.8783 127.381L59.9113 129.452C60.6079 130.161 61.6736 130.366 62.566 129.94C65.8519 128.372 68.2648 125.914 69.8045 122.566C70.2229 121.657 70.0217 120.573 69.3252 119.863L67.4494 117.952C68.3354 116.384 69.0598 114.71 69.5905 112.947H72.4613C73.4468 112.947 74.3413 112.325 74.6773 111.381C75.911 107.906 75.911 104.43 74.6762 100.954ZM46.6283 122.667C37.467 122.667 30.0412 115.101 30.0412 105.769C30.0412 96.4379 37.468 88.8722 46.6283 88.8722C55.7886 88.8722 63.2155 96.4379 63.2155 105.769C63.2155 115.101 55.7886 122.667 46.6283 122.667Z" fill="#C2C2D1"/>
<path d="M339.985 140.14C339.86 139.788 339.526 139.555 339.158 139.555H338.169C337.993 138.89 337.745 138.255 337.435 137.659L338.194 136.887C338.454 136.622 338.529 136.216 338.372 135.877C337.798 134.627 336.897 133.709 335.67 133.124C335.337 132.965 334.939 133.041 334.679 133.306L333.979 134.019C333.404 133.682 332.79 133.406 332.145 133.205V132.112C332.145 131.737 331.917 131.397 331.57 131.27C330.296 130.8 329.023 130.8 327.748 131.27C327.403 131.397 327.175 131.737 327.175 132.112V133.12C326.522 133.299 325.898 133.551 325.313 133.867L324.554 133.094C324.294 132.83 323.896 132.753 323.564 132.912C322.336 133.498 321.436 134.416 320.861 135.666C320.705 136.005 320.779 136.41 321.039 136.675L321.739 137.388C321.409 137.973 321.138 138.599 320.94 139.256H319.868C319.5 139.256 319.166 139.488 319.041 139.842C318.58 141.14 318.58 142.437 319.041 143.735C319.166 144.087 319.5 144.32 319.868 144.32H320.857C321.032 144.985 321.28 145.621 321.591 146.216L320.832 146.989C320.572 147.254 320.497 147.659 320.653 147.998C321.228 149.247 322.129 150.165 323.356 150.751C323.689 150.911 324.087 150.834 324.347 150.569L325.047 149.857C325.621 150.193 326.235 150.469 326.881 150.671V151.763C326.881 152.138 327.109 152.478 327.455 152.605C328.73 153.075 330.003 153.075 331.277 152.605C331.623 152.478 331.852 152.138 331.852 151.763V150.756C332.505 150.576 333.128 150.324 333.713 150.008L334.471 150.781C334.731 151.046 335.129 151.122 335.462 150.963C336.688 150.378 337.589 149.46 338.165 148.21C338.321 147.871 338.246 147.465 337.986 147.2L337.286 146.487C337.617 145.902 337.888 145.276 338.086 144.619H339.158C339.526 144.619 339.86 144.387 339.985 144.034C340.446 142.736 340.446 141.437 339.985 140.14ZM329.514 148.247C326.094 148.247 323.321 145.422 323.321 141.938C323.321 138.453 326.093 135.629 329.514 135.629C332.934 135.629 335.707 138.453 335.707 141.938C335.707 145.422 332.934 148.247 329.514 148.247Z" fill="#C2C2D1"/>
<path d="M65.0376 162.179C64.9124 161.827 64.5786 161.594 64.2105 161.594H63.2218C63.0463 160.929 62.7981 160.293 62.4878 159.698L63.2464 158.925C63.5064 158.66 63.5813 158.255 63.4251 157.916C62.8505 156.667 61.9496 155.749 60.7223 155.163C60.3895 155.003 59.9915 155.08 59.7315 155.345L59.0317 156.058C58.4571 155.721 57.8429 155.445 57.1977 155.243V154.151C57.1977 153.776 56.9698 153.436 56.6231 153.309C55.3488 152.839 54.0755 152.839 52.8011 153.309C52.4555 153.436 52.2276 153.776 52.2276 154.151V155.158C51.5749 155.338 50.9511 155.59 50.3658 155.906L49.6071 155.133C49.3471 154.868 48.9491 154.792 48.6163 154.951C47.3901 155.536 46.4892 156.454 45.9135 157.704C45.7573 158.043 45.8322 158.449 46.0922 158.714L46.792 159.427C46.4613 160.012 46.1906 160.638 45.9927 161.295H44.9205C44.5525 161.295 44.2186 161.527 44.0934 161.88C43.6323 163.178 43.6323 164.476 44.0934 165.774C44.2186 166.126 44.5525 166.358 44.9205 166.358H45.9092C46.0847 167.023 46.3329 167.658 46.6432 168.255L45.8846 169.027C45.6246 169.292 45.5497 169.698 45.7059 170.037C46.2805 171.287 47.1815 172.204 48.4087 172.79C48.7415 172.949 49.1396 172.873 49.3996 172.608L50.0993 171.895C50.6739 172.232 51.2881 172.508 51.9333 172.709V173.802C51.9333 174.177 52.1612 174.517 52.5079 174.644C53.7823 175.114 55.0556 175.114 56.33 174.644C56.6756 174.517 56.9045 174.177 56.9045 173.802V172.794C57.5572 172.615 58.1811 172.363 58.7653 172.047L59.5239 172.82C59.7839 173.084 60.182 173.161 60.5147 173.002C61.7409 172.416 62.6419 171.498 63.2175 170.248C63.3738 169.909 63.2989 169.504 63.0388 169.239L62.3391 168.526C62.6697 167.941 62.9404 167.315 63.1384 166.658H64.2105C64.5786 166.658 64.9124 166.426 65.0376 166.072C65.4988 164.774 65.4988 163.477 65.0376 162.179ZM54.5666 170.285C51.1469 170.285 48.3734 167.461 48.3734 163.976C48.3734 160.493 51.1458 157.667 54.5666 157.667C57.9863 157.667 60.7598 160.492 60.7598 163.976C60.7598 167.461 57.9863 170.285 54.5666 170.285Z" fill="#C2C2D1"/>
<path d="M360.692 121.501C387.17 121.501 408.635 99.635 408.635 72.6617C408.635 45.6883 387.17 23.822 360.692 23.822C334.213 23.822 312.748 45.6883 312.748 72.6617C312.748 99.635 334.213 121.501 360.692 121.501Z" fill="white"/>
<mask id="mask0_639_1069" style="mask-type:luminance" maskUnits="userSpaceOnUse" x="312" y="23" width="97" height="99">
<path d="M360.692 121.501C387.17 121.501 408.635 99.635 408.635 72.6617C408.635 45.6883 387.17 23.822 360.692 23.822C334.213 23.822 312.748 45.6883 312.748 72.6617C312.748 99.635 334.213 121.501 360.692 121.501Z" fill="white"/>
</mask>
<g mask="url(#mask0_639_1069)">
<path d="M355.064 123.716L377.421 100.756C377.325 100.683 377.229 100.61 377.135 100.536C376.505 100.132 375.028 99.0668 373.707 97.2498C371.921 94.7951 369.729 90.785 371.008 85.3568C371.008 85.3568 358.051 80.478 350.842 85.2522C350.842 85.2522 353.078 95.9538 346.591 99.9933C347.629 110.739 349.434 119.192 350.547 123.716H355.064Z" fill="#FFC685"/>
<path d="M360.692 90.7022C370.387 90.7022 378.246 79.9655 378.246 66.7211C378.246 53.4767 370.387 42.74 360.692 42.74C350.997 42.74 343.137 53.4767 343.137 66.7211C343.137 79.9655 350.997 90.7022 360.692 90.7022Z" fill="#FFC685"/>
<path d="M370.542 63.2636C370.542 64.4179 369.996 65.3531 369.322 65.3531C368.649 65.3531 368.103 64.4179 368.103 63.2636C368.103 62.1093 368.648 61.1741 369.322 61.1741C369.995 61.1741 370.542 62.1093 370.542 63.2636Z" fill="#1B1B1B"/>
<path d="M352.062 65.3531C352.736 65.3531 353.282 64.4176 353.282 63.2636C353.282 62.1096 352.736 61.1741 352.062 61.1741C351.388 61.1741 350.842 62.1096 350.842 63.2636C350.842 64.4176 351.388 65.3531 352.062 65.3531Z" fill="#1B1B1B"/>
<g opacity="0.48">
<path d="M375.738 71.2065C375.738 73.1619 373.909 74.7479 371.654 74.7479C369.398 74.7479 367.57 73.163 367.57 71.2065C367.57 69.251 369.398 67.6661 371.654 67.6661C373.909 67.6661 375.738 69.251 375.738 71.2065Z" fill="#FF9C91"/>
<path d="M345.646 71.2065C345.646 73.1619 347.475 74.7479 349.73 74.7479C351.986 74.7479 353.815 73.163 353.815 71.2065C353.815 69.251 351.986 67.6661 349.73 67.6661C347.475 67.6661 345.646 69.251 345.646 71.2065Z" fill="#FF9C91"/>
</g>
<path d="M377.804 63.3454C378.431 63.0652 378.693 62.4581 379.521 62.3284C385.404 61.4019 383.436 75.1958 377.125 74.1375C377.125 74.1375 375.462 64.3885 377.804 63.3454Z" fill="#FFC685"/>
<path d="M343.698 63.3454C343.071 63.0652 342.809 62.4581 341.981 62.3284C336.098 61.4019 338.066 75.1958 344.377 74.1375C344.377 74.1375 346.039 64.3885 343.698 63.3454Z" fill="#FFC685"/>
<path d="M377.45 100.727C377.45 100.727 377.332 100.663 377.135 100.536C377.229 100.61 377.325 100.683 377.421 100.756L377.45 100.727Z" fill="#B85C44"/>
<path d="M383.088 123.716C383.651 117.24 384.796 109.902 387.125 105.562C387.122 105.561 385.395 105.002 383.063 103.872C379.689 102.234 375.05 99.3971 372.541 95.3085C372.541 95.3085 356.701 99.2641 350.296 94.14C350.296 94.14 348.894 99.4505 343.072 100.822C342.6 100.933 341.54 104.488 341.356 104.928C339.819 108.583 338.268 112.23 336.698 115.869C335.573 118.479 334.265 121.083 332.979 123.717H383.088V123.716Z" fill="#66B367"/>
<path d="M360.463 62.2837C360.668 63.2592 360.769 64.2588 360.743 65.2627C360.72 66.2666 360.604 67.2846 360.23 68.2667C360.146 68.513 360.008 68.7463 359.884 68.9817C359.74 69.1965 359.539 69.4548 359.442 69.5921C359.195 69.9235 359.153 70.2233 359.448 70.5405C360.047 71.1465 361.02 71.5084 361.923 71.8277C360.954 71.7504 359.944 71.6337 359.071 70.9241C358.859 70.7432 358.664 70.45 358.644 70.1077C358.634 69.9344 358.646 69.7666 358.71 69.6238C358.753 69.4635 358.823 69.3338 358.908 69.2204L359.313 68.6275C359.413 68.4248 359.525 68.2318 359.597 68.0095C359.939 67.1505 360.087 66.1848 360.213 65.2245C360.327 64.2588 360.405 63.2778 360.463 62.2837Z" fill="#FFA45E"/>
<path d="M364.869 76.446H356.515C356.515 76.446 357.779 80.1161 360.693 80.3537C363.605 80.5891 364.869 76.446 364.869 76.446Z" fill="white"/>
<path d="M356.651 59.6328C355.12 59.187 353.818 59.0312 352.471 59.065C351.802 59.1107 351.124 59.1543 350.424 59.2753C350.072 59.32 349.722 59.4083 349.349 59.4552C348.979 59.5184 348.612 59.6078 348.195 59.6317C348.696 58.9886 349.336 58.4785 350.063 58.1297C350.786 57.7657 351.598 57.5651 352.424 57.5248C353.252 57.5041 354.089 57.6719 354.837 58.0218C355.579 58.3674 356.259 58.8982 356.651 59.6328Z" fill="#1B1B1B"/>
<path d="M373.188 59.6328C371.657 59.187 370.355 59.0312 369.008 59.065C368.339 59.1107 367.66 59.1543 366.961 59.2753C366.609 59.32 366.258 59.4083 365.885 59.4552C365.516 59.5184 365.149 59.6078 364.733 59.6317C365.234 58.9886 365.874 58.4785 366.601 58.1297C367.323 57.7657 368.136 57.5651 368.962 57.5248C369.79 57.5041 370.626 57.6719 371.374 58.0218C372.116 58.3674 372.795 58.8982 373.188 59.6328Z" fill="#1B1B1B"/>
<path d="M350.842 86.5733C350.842 86.5733 361.852 94.611 370.818 86.3041L371.036 91.8009C371.036 91.8009 356.533 95.2617 350.842 86.5733Z" fill="#FFA45E"/>
<path d="M394.919 123.716C397.248 117.015 398.369 110.345 395.382 107.147C388.197 99.4528 372.541 95.3086 372.541 95.3086L368.016 123.716H394.919Z" fill="#66B367"/>
<path d="M340.479 123.716C345.015 114.755 352.763 98.1959 350.297 94.14C350.297 94.14 338.765 95.7423 334.835 100.756C331.633 104.843 326.835 118.72 325.169 123.716H340.479Z" fill="#66B367"/>
<path d="M343.698 63.3453C343.698 63.3453 338.531 59.6404 340.027 53.6825C341.523 47.7245 344.244 47.5861 344.244 47.5861C344.244 47.5861 339.983 38.441 349.73 34.699C359.478 30.9571 363.559 36.6392 363.559 36.6392C363.559 36.6392 370.99 33.5905 377.136 40.2417C383.282 46.8929 379.796 51.0501 379.796 51.0501C379.796 51.0501 385.137 56.935 382.17 63.3453C382.17 63.3453 378.535 62.2335 377.136 66.72C377.136 66.72 373.081 55.6216 372.265 55.4832C371.448 55.3447 359.674 60.8874 356.652 51.7423C356.652 51.7423 349.001 64.2784 343.698 63.3453Z" fill="#1B1B1B"/>
</g>
<path d="M276.543 142.402C277.821 131.778 270.404 122.109 259.975 120.807C249.547 119.504 240.056 127.061 238.777 137.685C237.499 148.309 244.916 157.978 255.345 159.28C265.773 160.583 275.264 153.026 276.543 142.402Z" fill="white" stroke="#EDEDFF" stroke-width="0.9722" stroke-miterlimit="10" stroke-linecap="round" stroke-linejoin="round"/>
<path d="M257.643 159.422C264.491 159.422 270.043 150.746 270.043 140.042C270.043 129.339 264.491 120.662 257.643 120.662C250.794 120.662 245.243 129.339 245.243 140.042C245.243 150.746 250.794 159.422 257.643 159.422Z" stroke="#EDEDFF" stroke-width="0.9722" stroke-miterlimit="10" stroke-linecap="round" stroke-linejoin="round"/>
<path d="M261.793 140.042C261.793 150.745 259.935 159.422 257.643 159.422C255.351 159.422 253.492 150.746 253.492 140.042C253.492 129.339 255.351 120.662 257.643 120.662C259.935 120.662 261.793 129.339 261.793 140.042Z" stroke="#EDEDFF" stroke-width="0.9722" stroke-miterlimit="10" stroke-linecap="round" stroke-linejoin="round"/>
<path d="M257.643 152.674C268.149 152.674 276.666 147.019 276.666 140.042C276.666 133.066 268.149 127.41 257.643 127.41C247.137 127.41 238.619 133.066 238.619 140.042C238.619 147.019 247.137 152.674 257.643 152.674Z" stroke="#EDEDFF" stroke-width="0.9722" stroke-miterlimit="10" stroke-linecap="round" stroke-linejoin="round"/>
<path d="M257.643 144.27C268.149 144.27 276.666 142.377 276.666 140.042C276.666 137.707 268.149 135.814 257.643 135.814C247.137 135.814 238.619 137.707 238.619 140.042C238.619 142.377 247.137 144.27 257.643 144.27Z" stroke="#EDEDFF" stroke-width="0.9722" stroke-miterlimit="10" stroke-linecap="round" stroke-linejoin="round"/>
<path d="M280.647 127.41C280.647 131.872 277.097 135.487 272.717 135.487C268.338 135.487 264.789 131.87 264.789 127.41C264.789 122.949 268.339 119.333 272.717 119.333C277.097 119.333 280.647 122.95 280.647 127.41Z" fill="#FF6454"/>
<path d="M269.384 128.809C269.49 128.809 269.579 128.845 269.651 128.916C269.722 128.987 269.757 129.076 269.757 129.183C269.757 129.285 269.722 129.372 269.651 129.443C269.579 129.51 269.49 129.543 269.384 129.543H267.115C266.999 129.543 266.908 129.508 266.841 129.437C266.774 129.366 266.741 129.274 266.741 129.163C266.741 129.052 266.781 128.954 266.861 128.869L268.316 127.315C268.481 127.137 268.61 126.954 268.703 126.767C268.801 126.581 268.85 126.418 268.85 126.28C268.85 126.058 268.785 125.88 268.656 125.746C268.527 125.608 268.356 125.54 268.143 125.54C268.058 125.54 267.971 125.56 267.882 125.6C267.793 125.64 267.707 125.695 267.622 125.766C267.542 125.838 267.466 125.92 267.395 126.013C267.342 126.085 267.288 126.129 267.235 126.147C267.182 126.165 267.133 126.173 267.088 126.173C266.99 126.173 266.899 126.138 266.815 126.067C266.734 125.991 266.694 125.904 266.694 125.806C266.694 125.731 266.719 125.657 266.768 125.586C266.821 125.515 266.886 125.442 266.961 125.366C267.073 125.255 267.197 125.157 267.335 125.072C267.473 124.988 267.615 124.923 267.762 124.879C267.909 124.83 268.051 124.805 268.189 124.805C268.487 124.805 268.745 124.866 268.963 124.986C269.186 125.101 269.357 125.268 269.477 125.486C269.597 125.7 269.657 125.953 269.657 126.247C269.657 126.492 269.584 126.765 269.437 127.068C269.295 127.366 269.101 127.646 268.857 127.909L267.956 128.869L267.882 128.809H269.384ZM270.874 128.603C270.914 128.603 270.956 128.609 271.001 128.623C271.05 128.636 271.103 128.663 271.161 128.703C271.237 128.76 271.326 128.812 271.428 128.856C271.535 128.901 271.657 128.923 271.795 128.923C271.933 128.923 272.062 128.889 272.182 128.823C272.307 128.752 272.409 128.654 272.489 128.529C272.569 128.4 272.609 128.247 272.609 128.069C272.609 127.9 272.574 127.759 272.502 127.648C272.436 127.537 272.344 127.453 272.229 127.395C272.118 127.337 271.997 127.308 271.868 127.308C271.771 127.308 271.688 127.317 271.621 127.335C271.559 127.352 271.497 127.372 271.435 127.395C271.377 127.412 271.308 127.421 271.228 127.421C271.125 127.421 271.045 127.386 270.988 127.315C270.934 127.243 270.907 127.159 270.907 127.061C270.907 126.999 270.919 126.943 270.941 126.894C270.968 126.845 271.005 126.792 271.054 126.734L272.229 125.486L272.409 125.64H270.767C270.661 125.64 270.572 125.604 270.5 125.533C270.429 125.462 270.394 125.373 270.394 125.266C270.394 125.164 270.429 125.079 270.5 125.012C270.572 124.941 270.661 124.906 270.767 124.906H272.809C272.947 124.906 273.05 124.943 273.116 125.019C273.187 125.095 273.223 125.19 273.223 125.306C273.223 125.364 273.207 125.422 273.176 125.479C273.145 125.533 273.107 125.582 273.063 125.626L271.882 126.894L271.702 126.667C271.75 126.645 271.817 126.625 271.902 126.607C271.991 126.589 272.064 126.581 272.122 126.581C272.384 126.581 272.611 126.65 272.803 126.787C272.998 126.921 273.147 127.097 273.25 127.315C273.357 127.528 273.41 127.759 273.41 128.009C273.41 128.338 273.336 128.623 273.19 128.863C273.043 129.103 272.836 129.288 272.569 129.417C272.302 129.546 271.991 129.61 271.635 129.61C271.47 129.61 271.308 129.59 271.148 129.55C270.988 129.51 270.85 129.457 270.734 129.39C270.636 129.337 270.569 129.279 270.534 129.216C270.503 129.15 270.487 129.087 270.487 129.03C270.487 128.927 270.523 128.832 270.594 128.743C270.669 128.649 270.763 128.603 270.874 128.603ZM276.767 128.809C276.874 128.809 276.963 128.845 277.034 128.916C277.105 128.987 277.141 129.076 277.141 129.183C277.141 129.285 277.105 129.372 277.034 129.443C276.963 129.51 276.874 129.543 276.767 129.543H274.498C274.383 129.543 274.291 129.508 274.225 129.437C274.158 129.366 274.125 129.274 274.125 129.163C274.125 129.052 274.165 128.954 274.245 128.869L275.7 127.315C275.864 127.137 275.993 126.954 276.087 126.767C276.184 126.581 276.233 126.418 276.233 126.28C276.233 126.058 276.169 125.88 276.04 125.746C275.911 125.608 275.74 125.54 275.526 125.54C275.442 125.54 275.355 125.56 275.266 125.6C275.177 125.64 275.09 125.695 275.006 125.766C274.925 125.838 274.85 125.92 274.779 126.013C274.725 126.085 274.672 126.129 274.618 126.147C274.565 126.165 274.516 126.173 274.472 126.173C274.374 126.173 274.283 126.138 274.198 126.067C274.118 125.991 274.078 125.904 274.078 125.806C274.078 125.731 274.102 125.657 274.151 125.586C274.205 125.515 274.269 125.442 274.345 125.366C274.456 125.255 274.581 125.157 274.719 125.072C274.856 124.988 274.999 124.923 275.146 124.879C275.292 124.83 275.435 124.805 275.573 124.805C275.871 124.805 276.129 124.866 276.347 124.986C276.569 125.101 276.741 125.268 276.861 125.486C276.981 125.7 277.041 125.953 277.041 126.247C277.041 126.492 276.967 126.765 276.821 127.068C276.678 127.366 276.485 127.646 276.24 127.909L275.339 128.869L275.266 128.809H276.767Z" fill="white"/>
</svg>
