<svg width="496" height="388" viewBox="0 0 496 388" fill="none" xmlns="http://www.w3.org/2000/svg">
<path d="M244.385 24.326V117.788C244.385 121.764 240.937 124.987 236.682 124.987H73.6414C69.386 124.987 65.9385 121.765 65.9385 117.788V24.326C65.9385 20.35 69.386 17.127 73.6414 17.127H236.682C240.937 17.127 244.385 20.349 244.385 24.326Z" fill="#E2E4E4"/>
<path d="M244.385 24.326V31.774H65.9385V24.326C65.9385 20.35 69.386 17.127 73.6414 17.127H236.682C240.937 17.127 244.385 20.349 244.385 24.326Z" fill="#006891"/>
<path d="M101.191 24.451C101.191 26.718 99.224 28.556 96.7983 28.556C94.3726 28.556 92.406 26.718 92.406 24.451C92.406 22.184 94.3726 20.346 96.7983 20.346C99.224 20.346 101.191 22.184 101.191 24.451Z" fill="#00AA80"/>
<path d="M89.7363 24.451C89.7363 26.718 87.7697 28.556 85.344 28.556C82.9183 28.556 80.9516 26.718 80.9516 24.451C80.9516 22.184 82.9183 20.346 85.344 20.346C87.7697 20.346 89.7363 22.184 89.7363 24.451Z" fill="#FDBB3B"/>
<path d="M77.9877 24.451C77.9877 26.718 76.0211 28.556 73.5954 28.556C71.1697 28.556 69.203 26.718 69.203 24.451C69.203 22.184 71.1697 20.346 73.5954 20.346C76.0211 20.346 77.9877 22.184 77.9877 24.451Z" fill="#EB496F"/>
<path d="M183.329 53.599H131.326V58.989H183.329V53.599Z" fill="#FDBB3B"/>
<path d="M229.85 53.599H190.131V58.989H229.85" fill="white"/>
<path d="M84.2826 68.467H173.445V63.077H84.2826" fill="#006891"/>
<path d="M108.535 46.226H197.697V40.836H108.535" fill="#006891"/>
<path d="M202.108 63.077H180.436V68.467H202.108V63.077Z" fill="#FDBB3B"/>
<path d="M229.85 63.077H208.909V68.467H229.85" fill="white"/>
<path d="M229.85 40.836H204.361V46.226H229.85" fill="white"/>
<path d="M84.2826 77.944H131.326V72.554H84.2826" fill="#006891"/>
<path d="M202.108 72.554H138.318V77.944H202.108V72.554Z" fill="#FDBB3B"/>
<path d="M102.447 87.421H131.326V82.032H102.447" fill="#FDBB3B"/>
<path d="M229.85 82.032H138.128V87.421H229.85" fill="white"/>
<path d="M84.2826 96.899H124.335V91.509H84.2826" fill="#006891"/>
<path d="M202.108 91.509H131.326V96.899H202.108V91.509Z" fill="#FDBB3B"/>
<path d="M229.85 91.509H208.909V96.899H229.85" fill="white"/>
<path d="M84.2826 106.376H151.352V100.986H84.2826" fill="#006891"/>
<path d="M183.33 100.986H158.345V106.376H183.33V100.986Z" fill="#FDBB3B"/>
<path d="M229.85 100.986H190.131V106.376H229.85" fill="white"/>
<path d="M202.108 110.464H113.621V115.854H202.108V110.464Z" fill="#FDBB3B"/>
<path d="M229.85 110.464H208.909V115.854H229.85" fill="white"/>
<path d="M90.3563 46.2649L84.9221 44.2588V42.5613L90.3563 40.5552V42.1645L85.5394 43.873V42.9471L90.3563 44.6556V46.2649ZM90.5919 48.3703L94.2294 37.9869H96.0922L92.4547 48.3703H90.5919ZM96.2139 46.2649V44.6556L101.042 42.9471V43.873L96.2139 42.1645V40.5552L101.648 42.5613V44.2588L96.2139 46.2649Z" fill="#0088BB"/>
<path d="M71.7668 215.051C71.8053 215.34 71.832 215.626 71.847 215.908C71.847 215.915 71.8481 215.921 71.8481 215.928C71.8481 215.935 71.8481 215.941 71.8481 215.948C72.0471 220.006 69.7102 223.098 62.0983 221.825C61.1962 221.674 60.398 221.225 59.6843 220.575L59.6822 220.577C59.6822 220.577 55.3177 216.602 52.8053 211.987C51.2752 209.177 51.6508 207.836 51.5876 207.658C51.0526 206.953 50.5904 206.435 50.2469 206.198C49.621 205.764 48.8688 205.635 48.8688 205.635C48.8688 205.635 48.6163 206.473 49.3471 207.818C50.0779 209.163 47.7752 211.189 46.1082 207.742C44.7193 204.871 45.1634 203.019 46.7534 202.404C46.3543 202.388 45.9509 202.388 45.5421 202.411C40.0049 202.729 40.2328 198.44 45.9851 198.442C46.6196 198.442 47.2745 198.467 47.9368 198.512C47.8897 198.406 47.8555 198.305 47.8309 198.209C47.4735 198.146 47.1118 198.099 46.747 198.072C41.123 197.649 42.5633 193.383 48.0363 194.272C49.5407 194.517 51.1179 194.935 52.6469 195.458C52.0595 195.055 51.4667 194.695 50.8804 194.401C46.8101 192.357 48.3755 188.77 52.3944 190.516C56.4133 192.262 62.1068 196.551 65.0397 200.056C67.8046 203.36 71.1558 210.14 71.7668 215.051Z" fill="#EFB3A6"/>
<path d="M53.9331 196.396C58.0654 199.824 59.0338 201.917 59.0338 201.917" stroke="#D17A80" stroke-width="1.4399" stroke-miterlimit="10"/>
<path d="M48.3049 203.807C48.3049 203.807 49.8564 204.071 51.4057 205.878" stroke="#D17A80" stroke-width="1.4399" stroke-miterlimit="10"/>
<path d="M54.9796 209.876C53.6495 207.586 53.5115 205.41 52.3837 203.909C50.8815 201.908 47.3055 198.85 47.8501 197.678C48.9041 195.409 51.3009 196.792 53.8914 198.821C56.4818 200.85 61.1085 203.508 63.1576 202.597" stroke="#D17A80" stroke-width="1.4399" stroke-miterlimit="10"/>
<path d="M161.252 205.366L161.244 205.373C160.464 207.522 159.496 209.878 158.283 212.417C155.393 218.482 151.147 225.593 144.909 233.358C142.491 236.354 139.797 239.438 136.765 242.61C136.624 242.757 136.474 242.912 136.332 243.059C134.937 244.494 133.473 245.952 131.937 247.424C130.63 248.69 129.212 249.691 127.684 250.45L114.515 236.001C114.515 236.001 115.334 234.551 116.721 232.13C117.122 231.423 117.579 230.635 118.075 229.774C118.689 228.707 119.375 227.536 120.1 226.278C120.289 225.947 120.477 225.608 120.683 225.27C121.147 224.453 121.636 223.606 122.14 222.73C129.693 209.746 140.743 191.204 145.107 186.199C145.114 186.184 145.13 186.177 145.138 186.169C145.611 185.764 146.068 185.389 146.5 185.035L153.872 187.7L157.842 189.135C158.212 189.643 158.582 190.195 158.936 190.762C159.874 193.81 161.008 198.771 161.252 205.366Z" fill="#EDB1A4"/>
<path d="M135.238 243.177C134.254 244.841 133.151 246.247 131.938 247.424C130.631 248.69 129.213 249.691 127.685 250.45C105.372 261.587 61.5429 221.662 61.5429 221.662L68.4893 214.132L118.076 229.773L120.352 230.494L135.238 243.177Z" fill="#EDB1A4"/>
<path d="M249.272 280.739L153.233 282.189L146.523 190.667C145.886 186.457 146.783 184.064 151.021 182.511C154.564 181.208 159.975 179.236 166.647 177.8C168.049 177.506 169.498 177.226 171.003 176.983C174.76 176.372 178.823 175.982 183.116 175.982L196.355 175.128C196.355 175.128 201.026 175.216 207.335 175.769C209.863 175.982 212.667 176.269 215.542 176.66C218.471 177.057 221.473 177.551 224.339 178.176C230.467 179.516 234.428 185.058 233.444 190.866L249.272 280.739Z" fill="#005A7C"/>
<path d="M215.541 176.66C165.206 204.284 165.536 184.094 166.647 177.801C168.049 177.507 169.498 177.227 171.003 176.984C174.76 176.373 178.823 175.983 183.116 175.983L196.355 175.129C196.355 175.129 201.026 175.217 207.335 175.77C209.862 175.982 212.665 176.269 215.541 176.66Z" fill="#006891"/>
<path d="M207.334 175.769C163.654 200.64 171.002 176.983 171.002 176.983C174.759 176.372 178.822 175.982 183.115 175.982L196.354 175.128C196.354 175.128 201.025 175.217 207.334 175.769Z" fill="#EFB3A6"/>
<path d="M151.61 141.309C151.61 141.309 143.764 141.416 144.548 135.319C145.332 129.222 152.492 129.118 152.492 129.118L151.61 141.309Z" fill="#33324F"/>
<path d="M202.629 123.105C200.505 121.212 197.644 120.45 194.831 120.668C193.578 111.287 178.055 110.612 170.139 111.527C170.193 111.381 170.241 111.239 170.3 111.085C170.346 111.013 170.384 110.933 170.408 110.837C171.016 108.319 171.389 104.902 169.662 102.663C168.14 100.689 165.268 99.983 162.862 100.282C157.59 100.936 155.533 105.288 154.979 109.761C152.293 106.92 146.398 106.629 143.935 110.144C140.54 114.99 144.148 119.311 147.163 123.18C144.269 123.565 138.994 125.223 140.215 128.624C141.597 132.476 148.893 130.916 151.856 130.218C151.963 130.193 152.05 130.151 152.124 130.101C152.708 130.28 153.464 129.822 153.157 129.127C151.984 126.464 164.435 125.618 166.085 125.491C170.389 125.159 174.718 124.798 179.036 124.688C183.19 124.583 187.134 125.091 189.709 128.634C192.239 132.115 194.135 136.186 196.236 139.92C196.251 139.947 196.269 139.967 196.285 139.99C196.533 142.825 196.243 145.558 195.402 148.295C195.18 149.02 196.107 149.416 196.664 149.113C203.53 145.367 206.261 139.443 205.731 131.934C205.5 128.681 205.25 125.443 202.629 123.105Z" fill="#33324F"/>
<path d="M197.951 178.258C181.318 182.37 171.607 185.935 173.942 179.811L174.455 177.438L174.585 176.822L176.011 170.193L177.388 163.827L178.059 160.739L195.799 159.274L196.747 167.623L197.14 171.063L197.951 178.258Z" fill="#EFB3A6"/>
<path d="M197.139 171.062C194.911 171.882 178.692 177.792 174.454 177.438L174.584 176.822L176.01 170.193L195.951 160.724L197.139 171.062Z" fill="#D17A80"/>
<path d="M150.956 141.709C151.002 142.351 151.048 142.98 151.109 143.637C151.14 144.037 151.185 144.437 151.231 144.838C151.521 147.424 151.949 149.781 152.484 151.895C153.141 154.509 153.982 156.781 154.945 158.767C155.725 160.366 156.596 161.781 157.543 163.024C163.596 171.067 172.447 171.938 178.317 171.424C185.088 170.838 195.406 167.738 198.769 154.924C199.793 151.095 200.175 146.381 199.656 140.61C199.61 140.009 199.549 139.424 199.473 138.838C199.412 138.195 199.32 137.566 199.228 136.953C197.149 122.867 190.255 112.196 172.539 113.739C154.609 115.309 150.054 127.28 150.956 141.709Z" fill="#EDB1A4"/>
<path d="M187.902 129.118C187.902 129.118 185.839 145.789 191.641 149.376C191.641 149.376 197.974 153.331 199.316 137.546L187.902 129.118Z" fill="#33324F"/>
<path d="M189.962 135.618C189.962 135.618 179.599 137.496 178.714 129.429C178.714 129.429 172.515 135.214 165.792 129.659C165.792 129.659 164.427 134.782 155.993 133.653C155.993 133.653 157.882 140.433 150.932 141.282L149.02 137.655L150.019 129.676L152.492 124.227L158.465 117.277L164.797 114.427L172.823 113.176H179.521L187.545 114.844L193.43 119.918L198.275 125.895L199.621 137.502L198.318 138.502L189.962 135.618Z" fill="#33324F"/>
<path d="M192.23 145.042C192.257 146.496 192.574 147.993 192.974 149.377C193.151 150.004 193.347 150.605 193.533 151.162C193.542 151.17 193.542 151.179 193.542 151.179C193.57 151.266 193.598 151.344 193.626 151.431C193.673 151.57 193.738 151.701 193.822 151.805C193.924 151.97 194.073 152.101 194.231 152.197C195.647 153.825 198.19 154.208 200.454 153.424C201.152 153.189 201.832 152.832 202.437 152.362C204.486 150.786 205.819 148.784 206.256 146.626C206.61 144.833 206.367 142.935 205.399 141.089C205.036 140.401 204.617 139.81 204.142 139.322C203.518 138.669 202.801 138.199 202.028 137.903C201.59 137.72 201.124 137.607 200.649 137.546C198.87 137.319 196.886 137.859 194.986 139.078C194.325 139.504 193.794 140 193.393 140.558C192.462 141.839 192.164 143.414 192.23 145.042Z" fill="#EFB3A6"/>
<path d="M196.994 150.218C196.994 150.218 193.611 139.912 202.37 142.555" stroke="#D17A80" stroke-width="1.4839" stroke-miterlimit="10"/>
<path d="M196.383 147.057L200.167 145.454" stroke="#D17A80" stroke-width="1.4839" stroke-miterlimit="10"/>
<path d="M170.164 156.519L161.419 157.316C168.527 156.199 166.537 146.156 166.537 146.156" stroke="#D17A80" stroke-width="1.4839" stroke-miterlimit="10"/>
<g opacity="0.5">
<path d="M178.286 164.187C179.239 165.524 173.174 167.138 172.481 165.829C171.788 164.52 177.301 162.804 178.286 164.187Z" fill="#D17A80"/>
</g>
<path d="M181.112 156.132C179.1 160.609 173.386 162.271 167.797 161.761" stroke="#D17A80" stroke-width="1.4839" stroke-miterlimit="10"/>
<path d="M156.312 146.874C156.479 148.398 157.522 149.547 158.642 149.44C159.762 149.333 160.537 148.011 160.37 146.487C160.204 144.963 159.16 143.814 158.04 143.921C156.918 144.028 156.145 145.35 156.312 146.874Z" fill="#33324F"/>
<path d="M175.297 145.063C175.463 146.587 176.507 147.736 177.627 147.629C178.747 147.522 179.522 146.2 179.355 144.676C179.189 143.152 178.145 142.003 177.025 142.11C175.905 142.217 175.13 143.54 175.297 145.063Z" fill="#33324F"/>
<path d="M174.246 141.601C180.158 141.908 183.493 140.375 178.395 139.719C173.298 139.063 171.182 141.442 174.246 141.601Z" fill="#33324F"/>
<path d="M159.947 140.452C154.717 143.048 151.002 142.963 155.335 140.37C159.668 137.777 162.657 139.107 159.947 140.452Z" fill="#33324F"/>
<path d="M182.839 142.159C181.964 140.841 180.694 139.773 179.19 139.092C179.017 139.011 178.836 138.936 178.655 138.873C177.807 138.548 176.885 138.348 175.923 138.298C175.749 138.286 175.575 138.279 175.402 138.279C174.245 138.279 173.143 138.491 172.134 138.872C170.403 139.528 168.94 140.69 167.964 142.157C167.309 143.144 166.875 144.268 166.721 145.467H161.915C161.761 144.268 161.327 143.144 160.672 142.157C159.696 140.689 158.232 139.528 156.496 138.872C155.487 138.491 154.384 138.279 153.234 138.279C152.079 138.279 150.976 138.485 149.973 138.872C148.476 139.434 147.193 140.365 146.244 141.551C146.09 141.745 145.937 141.944 145.81 142.157C145.048 143.287 144.587 144.605 144.506 146.017C144.5 146.161 144.494 146.304 144.494 146.448C144.494 146.923 144.541 147.385 144.621 147.841C144.788 148.722 145.102 149.552 145.537 150.314V150.32C145.697 150.601 145.885 150.87 146.078 151.132C147.261 152.7 149.019 153.868 151.057 154.361C151.672 154.511 152.313 154.592 152.974 154.611C153.061 154.617 153.148 154.617 153.235 154.617C156.223 154.617 158.863 153.212 160.432 151.132C161.021 150.364 161.462 149.508 161.715 148.59C161.782 148.347 161.843 148.097 161.882 147.841C161.942 147.473 161.976 147.098 161.976 146.717H166.661C166.661 147.098 166.694 147.473 166.761 147.841C166.801 148.097 166.854 148.347 166.928 148.59C167.182 149.508 167.624 150.364 168.205 151.132C169.776 153.212 172.415 154.617 175.403 154.617C175.543 154.617 175.683 154.617 175.817 154.605C177.013 154.555 178.135 154.28 179.152 153.824H179.158C180.321 153.306 181.337 152.556 182.146 151.638C182.292 151.476 182.426 151.307 182.56 151.132C183.282 150.17 183.789 149.046 184.01 147.841C184.096 147.385 184.144 146.923 184.144 146.448C184.142 144.876 183.661 143.408 182.839 142.159ZM160.592 148.592C160.277 149.535 159.756 150.397 159.082 151.134C157.672 152.677 155.573 153.651 153.234 153.651H153.047C150.788 153.601 148.763 152.633 147.387 151.134C146.538 150.21 145.93 149.085 145.676 147.843C145.575 147.393 145.529 146.925 145.529 146.45C145.529 144.845 146.091 143.358 147.047 142.159C148.45 140.391 150.702 139.242 153.234 139.242C155.767 139.242 158.019 140.391 159.422 142.159C160.378 143.358 160.939 144.845 160.939 146.45C160.939 146.925 160.892 147.393 160.785 147.843C160.739 148.099 160.672 148.348 160.592 148.592ZM181.248 151.134C179.905 152.602 177.94 153.551 175.742 153.645C175.628 153.651 175.515 153.651 175.402 153.651C173.063 153.651 170.964 152.677 169.554 151.134C168.879 150.397 168.358 149.535 168.044 148.592C167.964 148.349 167.898 148.099 167.851 147.843C167.744 147.393 167.697 146.925 167.697 146.45C167.697 144.845 168.258 143.358 169.214 142.159C170.618 140.391 172.869 139.242 175.402 139.242C177.934 139.242 180.187 140.391 181.589 142.159C182.551 143.358 183.113 144.845 183.113 146.45C183.113 146.925 183.066 147.393 182.967 147.843C182.705 149.085 182.098 150.21 181.248 151.134Z" fill="white"/>
<path d="M239.99 189.232L239.993 189.239C242.894 196.428 245.752 206.785 246.41 220.545C246.594 224.465 246.607 228.655 246.39 233.131C246.217 236.614 245.906 240.271 245.441 244.091L245.279 244.063L224.748 240.64C224.748 240.64 224.393 239.033 223.814 236.347C223.442 234.585 222.969 232.356 222.44 229.819C222.168 228.573 221.893 227.248 221.605 225.864C218.232 209.573 213.505 185.258 214.668 182.336L226.318 178.729C226.95 178.901 227.606 179.103 228.268 179.336C231.068 181.124 235.317 184.28 239.99 189.232Z" fill="#EDB1A4"/>
<path d="M225.596 235.879L173.276 250.91L172.341 260.81C172.341 260.81 249.878 271.675 245.602 238.05L225.596 235.879Z" fill="#EDB1A4"/>
<path d="M156.91 259.085C156.91 259.085 152.993 259.15 149.387 260.427C145.781 261.705 145.747 258.107 148.976 256.955C148.976 256.955 147.09 257.143 144.811 258.154C142.532 259.165 141.383 256.833 142.591 255.597C142.591 255.597 141.013 256.14 140.227 254.768C139.442 253.396 141.071 251.995 141.698 251.592C141.698 251.592 138.769 249.194 145.006 246.644C151.243 244.093 159.55 242.694 169.963 247.546C177.126 250.884 177.574 256.132 175.888 258.859C172.827 263.812 163.323 264.611 156.91 259.085Z" fill="#EFB3A6"/>
<path d="M148.977 256.955C154.39 255.09 156.928 255.288 156.928 255.288" stroke="#D17A80" stroke-width="1.4399" stroke-miterlimit="10"/>
<path d="M142.591 255.597C150.9 251.76 155.161 252.066 155.161 252.066" stroke="#D17A80" stroke-width="1.4399" stroke-miterlimit="10"/>
<path d="M141.698 251.592C146.899 248.494 153.976 248.154 153.976 248.154" stroke="#D17A80" stroke-width="1.4399" stroke-miterlimit="10"/>
<path d="M254.26 233.46L246.39 233.131L217.387 232.403L217.419 231.081L210.202 180.369L216.061 177.829C216.061 177.829 220.483 177.137 226.319 178.729C226.951 178.901 227.607 179.103 228.269 179.336C239.32 183.177 253.935 194.822 254.26 233.46Z" fill="#005A7C"/>
<path d="M149.664 183.098C149.664 183.098 129.963 192.655 118.11 224.124L142.592 245.532L156.102 229.833L149.664 183.098Z" fill="#005A7C"/>
<path d="M219.229 237.708L226.344 235.626" stroke="#D17A80" stroke-width="1.4399" stroke-miterlimit="10"/>
<path d="M111.711 227.766L121.604 230.903" stroke="#D17A80" stroke-width="1.4399" stroke-miterlimit="10"/>
<path d="M149.924 237.011C149.924 237.011 148.529 214.953 149.924 205.033" stroke="#005467" stroke-width="0.7419" stroke-miterlimit="10"/>
<path d="M149.614 212.39L146.893 207.365" stroke="#005467" stroke-width="0.7419" stroke-miterlimit="10"/>
<path d="M223.013 232.544L219.229 232.449L212.978 199.867" stroke="#005467" stroke-width="0.7419" stroke-miterlimit="10"/>
<path d="M213.931 204.84L210.759 201.886" stroke="#005467" stroke-width="0.7419" stroke-miterlimit="10"/>
<path d="M306.622 141.968C306.622 141.968 291.506 146.647 295.85 159.688C295.85 159.688 284.267 158.385 281.129 172.661C281.129 172.661 263.512 172.036 264.477 188.96C265.442 205.884 285.53 197.12 285.53 197.12C285.53 197.12 290.653 212.33 304.474 204.822C304.474 204.822 313.047 215.714 322.548 204.822L306.622 141.968Z" fill="#33324F"/>
<path d="M349.03 147.29C349.03 147.29 361.685 156.324 353.026 167.325C353.026 167.325 364.431 169.626 362.411 184.078C362.411 184.078 379.282 188.86 372.46 204.563C365.638 220.266 349.71 205.855 349.71 205.855C349.71 205.855 339.556 218.67 329.114 207.357C329.114 207.357 317.205 215.037 312.029 201.844L349.03 147.29Z" fill="#33324F"/>
<path d="M355.622 149.034C355.46 149.919 355.262 150.825 355.027 151.765C354.476 153.995 353.727 156.37 352.765 158.916C352.742 158.971 352.728 159.019 352.698 159.074C352.331 160.042 351.934 161.037 351.501 162.053C350.994 163.247 349.805 164.057 348.454 164.105L313.499 165.258C310.811 165.347 309.18 162.458 308.256 160.063C304.599 150.578 297.586 128.335 322.407 120.785C326.747 119.467 331.373 119.207 335.838 120.044C345.113 121.787 359.638 127.868 355.622 149.034Z" fill="#33324F"/>
<path d="M346.596 245.49C346.223 247.228 346.099 248.849 346.201 250.37C346.314 252.007 346.675 253.518 347.272 254.919C355.949 275.416 412.88 271.739 412.88 271.739L412.8 262.469L367.448 245.635L365.365 244.865L346.596 245.49Z" fill="#E8776E"/>
<path d="M366.199 250.646L349.195 258.442C348.189 257.26 347.376 255.916 346.757 254.381C346.026 252.588 345.355 250.835 344.729 249.121C344.672 248.944 344.601 248.76 344.537 248.584C343.201 244.823 342.122 241.247 341.246 237.851C338.992 229.041 338.187 221.489 338.122 215.298C338.087 212.703 338.198 210.352 338.383 208.246L338.375 208.239C341.202 202.677 344.147 198.829 346.156 196.544C346.682 196.187 347.222 195.843 347.742 195.533L348.316 195.552L351.707 195.681L357.275 195.889C357.96 196.66 358.655 197.527 359.368 198.497C359.721 198.982 360.074 199.488 360.428 200.027C362.026 207.777 363.789 224.538 364.947 236.652C365.027 237.577 365.105 238.467 365.183 239.33C365.224 239.686 365.25 240.042 365.282 240.391C365.314 240.733 365.347 241.069 365.372 241.398C365.467 242.35 365.546 243.247 365.623 244.083C365.702 244.994 365.787 245.823 365.847 246.569C366.071 249.125 366.199 250.646 366.199 250.646Z" fill="#E8776E"/>
<path d="M363.675 244.304L369.28 246.314" stroke="#924541" stroke-width="1.3836" stroke-miterlimit="10"/>
<path d="M409.061 261.129C408.847 261.313 408.643 261.501 408.451 261.693C408.447 261.697 408.441 261.702 408.437 261.706C408.433 261.711 408.428 261.715 408.424 261.72C405.663 264.493 405.33 268.009 411.562 271.395C412.301 271.796 413.159 271.926 414.084 271.867L414.085 271.87C414.085 271.87 419.754 271.504 424.519 269.64C427.42 268.505 428.02 267.34 428.179 267.249C429.015 267.049 429.677 266.942 430.075 266.966C430.801 267.011 431.418 267.343 431.418 267.343C431.418 267.343 431.058 268.081 429.67 268.626C428.282 269.171 428.612 271.909 432.022 270.398C434.863 269.14 435.742 267.572 435.008 266.239C435.302 266.453 435.589 266.68 435.864 266.927C439.595 270.274 442.203 267.096 438.111 263.855C437.66 263.497 437.178 263.146 436.678 262.805C436.78 262.756 436.87 262.704 436.949 262.649C437.243 262.806 437.531 262.976 437.808 263.163C442.08 266.033 443.81 262.187 439.344 259.735C438.117 259.061 436.726 258.469 435.3 257.979C435.978 258.024 436.631 258.102 437.239 258.223C441.452 259.065 442.654 255.632 438.67 254.607C434.685 253.582 427.869 253.422 423.522 254.261C419.424 255.049 412.664 257.981 409.061 261.129Z" fill="#E8776E"/>
<path d="M433.781 257.918C428.63 258.026 426.592 258.968 426.592 258.968" stroke="#924541" stroke-width="1.3836" stroke-miterlimit="10"/>
<path d="M432.999 266.36C432.999 266.36 431.725 265.673 429.457 266.084" stroke="#924541" stroke-width="1.3836" stroke-miterlimit="10"/>
<path d="M424.336 266.913C426.76 266.035 428.263 264.565 430.033 264.133C432.393 263.557 436.909 263.399 437.278 262.259C437.992 260.052 435.396 259.684 432.244 259.666C429.093 259.648 424.088 258.93 423.219 257.127" stroke="#924541" stroke-width="1.3836" stroke-miterlimit="10"/>
<path d="M360.894 195.71C360.909 195.985 360.894 196.273 360.85 196.554L357.487 242.448L354.593 281.891L265.046 280.539L279.807 196.74C278.889 191.325 282.582 186.157 288.296 184.908C290.969 184.325 293.767 183.865 296.499 183.495C297.16 183.406 297.82 183.323 298.467 183.241C299.839 183.076 301.177 182.939 302.454 182.815C303.034 182.76 303.6 182.712 304.15 182.664C304.547 182.629 304.943 182.595 305.325 182.568C310.606 182.136 314.387 182.067 314.387 182.067L326.732 182.863C329.184 182.863 331.556 183 333.833 183.234C334.002 183.247 334.171 183.268 334.339 183.289C334.45 183.303 334.552 183.31 334.655 183.324C334.956 183.365 335.25 183.399 335.543 183.434C336.387 183.544 337.21 183.668 338.026 183.798C338.782 183.922 339.524 184.052 340.251 184.189L340.259 184.196C340.876 184.313 341.485 184.436 342.087 184.56C344.158 184.999 346.097 185.5 347.881 186.015C348.741 186.262 349.292 186.413 349.666 186.509C349.681 186.509 349.71 186.516 349.732 186.523C350.056 186.612 350.24 186.653 350.371 186.688C350.408 186.695 350.438 186.702 350.481 186.715C350.628 186.756 350.746 186.797 351.025 186.907C351.061 186.921 351.106 186.942 351.143 186.955C353.162 187.756 356.928 189.931 360.894 195.71Z" fill="#EBB03C"/>
<path d="M331.697 193.28L334.267 183.411C334.347 183.431 334.354 183.377 334.34 183.287C334.451 183.301 334.553 183.308 334.656 183.322C334.957 183.363 335.251 183.397 335.544 183.432C336.388 183.542 337.211 183.666 338.027 183.796C338.783 183.92 339.525 184.05 340.252 184.187L340.26 184.194C340.877 184.311 341.486 184.434 342.088 184.558C354.241 198.819 331.697 193.28 331.697 193.28Z" fill="white"/>
<path d="M332.343 192.436C332.343 192.436 332.079 192.93 331.557 193.657C328.613 197.775 317.407 209.484 298.468 183.239C299.84 183.074 301.178 182.937 302.456 182.813C303.036 182.758 303.602 182.71 304.152 182.662C304.548 182.627 304.944 182.593 305.326 182.566L331.653 192.181L332.343 192.436Z" fill="white"/>
<path d="M302.454 182.814C303.034 182.759 303.6 182.711 304.15 182.663C310.032 182.148 314.387 182.066 314.387 182.066L326.732 182.862C329.184 182.862 331.556 182.999 333.833 183.233C334.399 183.315 334.964 183.398 335.515 183.487C335.515 183.487 342.271 205.25 302.454 182.814Z" fill="#E8776E"/>
<g opacity="0.5">
<path d="M327.473 173.138C326.585 174.384 332.241 175.89 332.886 174.669C333.533 173.449 328.392 171.849 327.473 173.138Z" fill="#924541"/>
</g>
<path d="M373.231 234.486C373.231 234.486 369.735 236.593 365.579 238.755C362.914 240.141 359.962 241.555 357.487 242.447C355.357 243.209 353.573 243.586 352.626 243.223L349.938 192.47L349.622 186.499C349.622 186.499 349.637 186.499 349.666 186.506C349.681 186.506 349.71 186.513 349.732 186.52C349.858 186.541 350.071 186.589 350.371 186.685C350.408 186.692 350.438 186.699 350.481 186.712C350.643 186.767 350.82 186.829 351.025 186.904C351.061 186.918 351.106 186.939 351.143 186.952C352.817 187.618 355.688 189.223 358.883 193.046C359.544 193.835 360.212 194.721 360.895 195.709C361.233 196.203 361.57 196.718 361.908 197.267C366.262 204.241 370.705 215.688 373.231 234.486Z" fill="#EBB03C"/>
<path d="M353.62 208.381C353.62 208.381 360.475 226.824 357.487 242.448" stroke="#EC9E05" stroke-width="1.1065" stroke-miterlimit="10"/>
<path d="M355.035 212.846L356.732 209.486" stroke="#EC9E05" stroke-width="1.1065" stroke-miterlimit="10"/>
<path d="M280.666 188.922C280.717 188.881 280.769 188.846 280.82 188.812C281.187 188.558 281.533 188.332 281.863 188.126C282.481 187.913 283.09 187.721 283.677 187.563L294.545 190.926C295.625 193.651 291.218 216.32 288.076 231.515C287.804 232.805 287.547 234.041 287.297 235.2C286.849 237.321 286.453 239.201 286.122 240.752C286.086 240.937 286.048 241.116 286.012 241.287C285.476 243.792 285.145 245.288 285.145 245.288L266.001 248.479L265.847 248.507C265.567 246.201 265.347 243.957 265.185 241.781C265.098 240.594 265.024 239.434 264.965 238.288C264.759 234.115 264.774 230.21 264.942 226.552C265.493 215.097 267.674 206.175 270.068 199.621L280.666 188.922Z" fill="#E8776E"/>
<path d="M284.935 240.928L331.424 260.613L331.035 269.873C331.035 269.873 257.949 271.351 266.158 240.725L284.935 240.928Z" fill="#E8776E"/>
<path d="M345.524 269.983C345.524 269.983 349.139 270.476 352.312 272.056C355.486 273.636 355.973 270.312 353.132 268.89C353.132 268.89 354.852 269.272 356.832 270.46C358.811 271.647 360.17 269.617 359.209 268.341C359.209 268.341 360.6 269.018 361.5 267.836C362.4 266.654 361.071 265.178 360.543 264.736C360.543 264.736 363.555 262.842 358.108 259.794C352.663 256.745 345.157 254.533 334.913 257.87C327.865 260.166 326.786 264.97 328.001 267.678C330.205 272.596 338.893 274.385 345.524 269.983Z" fill="#E8776E"/>
<path d="M353.132 268.89C348.362 266.567 345.989 266.47 345.989 266.47" stroke="#924541" stroke-width="1.3836" stroke-miterlimit="10"/>
<path d="M359.209 268.34C352.01 263.873 348.03 263.685 348.03 263.685" stroke="#924541" stroke-width="1.3836" stroke-miterlimit="10"/>
<path d="M360.542 264.735C356.124 261.295 349.62 260.199 349.62 260.199" stroke="#924541" stroke-width="1.3836" stroke-miterlimit="10"/>
<path d="M288.289 242.349L282.707 239.97" stroke="#924541" stroke-width="1.3836" stroke-miterlimit="10"/>
<path d="M287.603 185.083C287.603 185.083 261.59 191.72 255.509 238.47C255.509 238.47 278.818 240.562 290.304 237.068L298.47 190.088L287.603 185.083Z" fill="#EBB03C"/>
<path d="M286.722 237.922L290.304 237.068L292.345 209.662" stroke="#EC9E05" stroke-width="1.1065" stroke-miterlimit="10"/>
<path d="M291.926 215.296L295.075 212.087" stroke="#EC9E05" stroke-width="1.1065" stroke-miterlimit="10"/>
<path d="M309.139 185.833C324.647 189.667 333.702 192.992 331.524 187.281L331.046 185.068L330.924 184.494L329.594 178.313L328.311 172.377L327.684 169.497L311.144 168.131L310.259 175.916L309.893 179.123L309.139 185.833Z" fill="#E8776E"/>
<path opacity="0.5" d="M309.895 179.124C311.973 179.889 327.095 185.399 331.047 185.069L330.925 184.495L329.595 178.314L311.002 169.485L309.895 179.124Z" fill="#924541"/>
<path d="M352.956 151.755C352.914 152.354 352.871 152.94 352.814 153.553C352.785 153.926 352.742 154.299 352.7 154.672C352.429 157.083 352.03 159.281 351.531 161.252C350.918 163.69 350.135 165.807 349.236 167.659C348.509 169.15 347.696 170.469 346.813 171.628C341.169 179.127 332.917 179.939 327.444 179.46C321.13 178.914 311.51 176.023 308.375 164.076C307.42 160.506 307.064 156.111 307.548 150.729C307.59 150.169 307.647 149.623 307.719 149.077C307.776 148.478 307.861 147.891 307.947 147.319C309.885 134.185 316.313 124.235 332.832 125.674C349.549 127.139 353.797 138.301 352.956 151.755Z" fill="#E8776E"/>
<path d="M335.047 165.564L343.2 166.307C336.572 165.266 338.428 155.901 338.428 155.901" stroke="#924541" stroke-width="1.3836" stroke-miterlimit="10"/>
<path d="M347.964 156.57C347.809 157.991 346.836 159.062 345.791 158.962C344.745 158.862 344.024 157.63 344.179 156.209C344.334 154.788 345.307 153.717 346.352 153.817C347.397 153.917 348.119 155.149 347.964 156.57Z" fill="#33324F"/>
<path d="M330.262 154.882C330.106 156.303 329.134 157.374 328.088 157.274C327.043 157.174 326.322 155.942 326.477 154.521C326.632 153.1 327.605 152.029 328.65 152.129C329.696 152.229 330.417 153.461 330.262 154.882Z" fill="#33324F"/>
<path d="M344.35 148.436C343.015 150.128 349.369 152.18 350.411 150.522C351.453 148.865 345.731 146.686 344.35 148.436Z" fill="#33324F"/>
<path d="M330.3 146.328C331.262 148.229 324.605 149.099 323.923 147.285C323.241 145.471 329.305 144.362 330.3 146.328Z" fill="#33324F"/>
<path d="M327.612 166.698C327.644 167.742 327.984 168.744 328.566 169.602C329.385 170.81 330.687 171.734 332.293 172.103C333.751 172.438 335.209 172.257 336.459 171.69C337.566 171.185 338.505 170.373 339.123 169.344L327.612 166.698Z" fill="#972A45"/>
<path d="M328.566 169.602C329.385 170.81 330.687 171.734 332.294 172.103C333.751 172.438 335.209 172.257 336.459 171.69C336.024 170.471 334.658 169.38 332.85 168.965C331.196 168.584 329.585 168.865 328.566 169.602Z" fill="#DC3C5E"/>
<path d="M355.622 149.034C355.46 149.919 355.262 150.825 355.027 151.765C354.476 153.995 353.727 156.37 352.765 158.916C352.742 158.971 352.728 159.019 352.698 159.074C349.695 154.544 351.883 143.845 351.883 143.845C342.675 142.98 336.689 136.206 336.689 136.206C330.154 139.144 320.291 138.142 320.291 138.142C318.375 147.338 314.145 151.813 312.001 153.563C311.487 153.982 310.693 153.632 310.693 153L310.671 149.98L306.622 147.873L308.836 139.639L311.497 131.885L323.258 124.861L341.463 125.822L347.661 131.031L354.55 138.69L355.622 149.034Z" fill="#33324F"/>
<path d="M313.388 150.682C313.014 150.162 312.519 149.7 311.903 149.302C310.131 148.165 308.281 147.662 306.622 147.873C306.179 147.93 305.745 148.035 305.337 148.206C304.616 148.482 303.947 148.92 303.366 149.529C302.923 149.984 302.533 150.535 302.193 151.177C301.29 152.898 301.065 154.667 301.394 156.339C301.802 158.352 303.044 160.219 304.955 161.688C305.52 162.126 306.153 162.459 306.805 162.678C308.915 163.409 311.286 163.051 312.607 161.534C312.754 161.445 312.893 161.323 312.989 161.169C313.067 161.072 313.128 160.95 313.172 160.82C313.197 160.739 313.224 160.666 313.25 160.585C313.25 160.585 313.25 160.577 313.258 160.569C313.432 160.049 313.615 159.489 313.779 158.905C314.153 157.614 314.448 156.218 314.474 154.863C314.534 153.344 314.257 151.875 313.388 150.682Z" fill="#E8776E"/>
<path d="M310.03 159.688C310.03 159.688 313.184 150.078 305.018 152.543" stroke="#924541" stroke-width="1.3836" stroke-miterlimit="10"/>
<path d="M310.599 156.741L307.071 155.246" stroke="#924541" stroke-width="1.3836" stroke-miterlimit="10"/>
<path d="M321.118 134.473L318.797 135.011C318.534 135.072 318.386 135.331 318.477 135.569L320.516 140.907C320.59 141.1 320.801 141.217 321.017 141.185L321.687 141.087C321.92 141.053 322.087 140.858 322.072 140.638L321.684 134.86C321.666 134.595 321.396 134.409 321.118 134.473Z" fill="white"/>
<path d="M354.728 141.162L352.652 140.052C352.418 139.926 352.118 140.018 352.008 140.248L349.534 145.424C349.445 145.611 349.511 145.832 349.691 145.949L350.248 146.311C350.442 146.437 350.706 146.404 350.858 146.235L354.85 141.808C355.034 141.604 354.975 141.294 354.728 141.162Z" fill="white"/>
<path d="M332.502 193.801C332.441 193.429 332.083 193.299 331.777 193.359C331.548 193.209 331.224 193.185 330.993 193.443C328.245 196.522 326.076 200.332 325.621 204.379C325.35 206.791 325.85 210.204 328.612 211.26C331.127 212.222 333.025 209.776 333.7 207.795C335.156 203.515 333.197 198.067 332.502 193.801ZM327.783 209.233C325.855 207.311 326.792 203.534 327.548 201.335C328.392 198.882 329.762 196.683 331.461 194.677C331.887 197.237 332.35 199.797 332.705 202.365C332.872 203.579 333.052 204.832 332.891 206.056C332.671 207.719 330.986 212.426 327.783 209.233Z" fill="white"/>
<path d="M336.653 207.267C338.067 208.872 340.802 210.483 342.755 208.716C344.898 206.776 344.005 203.434 342.795 201.289C340.763 197.69 337.234 194.906 333.457 193.003C333.141 192.844 332.849 192.979 332.696 193.197C332.388 193.247 332.106 193.492 332.198 193.859C333.249 198.062 333.597 203.8 336.653 207.267ZM336.712 205.371C336.075 204.29 335.742 203.065 335.416 201.88C334.724 199.372 334.135 196.835 333.512 194.31C335.888 195.582 338.034 197.148 339.793 199.132C341.37 200.911 343.741 204.092 342.716 206.546C341.012 210.625 337.576 206.839 336.712 205.371Z" fill="white"/>
<path d="M334.878 200.996C334.829 200.294 333.655 200.289 333.703 200.996C334.34 210.294 334.171 219.597 333.196 228.869C333.122 229.572 334.297 229.567 334.37 228.869C335.346 219.597 335.516 210.294 334.878 200.996Z" fill="white"/>
<path d="M333.457 202.036C333.246 201.361 334.349 200.983 334.561 201.662C337.348 210.608 340.895 219.301 345.191 227.709C345.517 228.346 344.41 228.716 344.087 228.083C339.791 219.675 336.244 210.982 333.457 202.036Z" fill="white"/>
<path d="M250.88 262.789H246.89V270.78H250.88V262.789Z" fill="white"/>
<path d="M250.88 277.093H246.89V285.083H250.88V277.093Z" fill="white"/>
<path d="M252.855 271.949V275.678H261.405V271.949H252.855Z" fill="white"/>
<path d="M236.673 271.949V275.678H245.224V271.949H236.673Z" fill="white"/>
<path d="M242.668 326.274C376.4 326.274 484.811 315.385 484.811 301.952C484.811 288.519 376.4 277.63 242.668 277.63C108.936 277.63 0.525085 288.519 0.525085 301.952C0.525085 315.385 108.936 326.274 242.668 326.274Z" fill="#F47394"/>
<path d="M33.2039 296.101V297.934C33.2039 300.245 35.1385 302.152 37.607 302.275L137.364 307.261C140.047 307.395 142.73 307.001 145.239 306.104L180.514 293.493C182.315 292.849 183.504 291.234 183.504 289.433V284.583L33.2039 296.101Z" fill="#E2E4E4"/>
<path d="M141.434 299.54L183.505 284.583L63.3105 281.224L33.2039 296.101L141.434 299.54Z" fill="#CDCDCD"/>
<path d="M162.711 289.903L156.758 291.979L155.781 292.324L149.819 294.4L148.842 294.739H148.835L141.021 297.47L139.462 294.474L139.336 294.231L139.266 294.099L139.155 293.885L136.667 289.115L151.614 289.564H151.623L152.702 289.601H152.709L162.711 289.903Z" fill="#3F3E58"/>
<path d="M156.758 291.979L155.781 292.324L145.676 292.03L144.59 292.001L139.399 291.853L139.415 291.485L145.566 291.662L146.66 291.692L156.758 291.979Z" fill="#CDCDCD"/>
<path d="M149.819 294.4L148.842 294.739H148.835L139.462 294.474L139.336 294.231L139.139 294.297L139.061 294.091L139.266 294.099L139.674 294.113L149.819 294.4Z" fill="#CDCDCD"/>
<path d="M152.702 289.601L146.669 291.692H146.66L145.684 292.03H145.676L139.674 294.113L139.336 294.231L139.139 294.297L139.061 294.091L138.997 293.936L139.155 293.885L144.59 292.001L145.566 291.662L151.614 289.564H151.623L152.702 289.601Z" fill="#CDCDCD"/>
<path d="M141.415 300.077L33.1847 296.638L23.9934 235.366C23.0068 228.79 27.8358 223.639 34.7779 223.859L117.867 226.499C124.809 226.72 131.236 232.229 132.223 238.804L141.415 300.077Z" fill="#E2E4E4"/>
<path d="M78.6468 276.517C82.9465 276.517 86.4322 273.259 86.4322 269.241C86.4322 265.223 82.9465 261.965 78.6468 261.965C74.3471 261.965 70.8615 265.223 70.8615 269.241C70.8615 273.259 74.3471 276.517 78.6468 276.517Z" fill="#FDBB3B"/>
<path d="M479.798 281.01H352.669L363.166 201.104H490.296L479.798 281.01Z" fill="#00B0D1"/>
<path d="M485.133 281.01H358.004L368.501 201.104H495.631L485.133 281.01Z" fill="black"/>
<path d="M406.252 299.706L432.365 293.152L435.131 300.516L406.252 299.706Z" fill="#0E218A"/>
<path d="M414.246 249.383H434.878L448.205 290.657C450.305 297.163 445.094 303.719 437.823 303.719H430.298L414.246 249.383Z" fill="#00B0D1"/>
<path d="M417.918 249.383H438.55L452.83 293.612C454.455 298.646 450.424 303.719 444.797 303.719H433.969L417.918 249.383Z" fill="#0E218A"/>
<path d="M435.131 299.686H406.252V303.719H435.131V299.686Z" fill="#0E218A"/>
<path d="M435.548 234.323C436.688 229.828 433.713 225.321 428.904 224.256C424.095 223.191 419.272 225.971 418.133 230.466C416.993 234.96 419.968 239.467 424.777 240.532C429.586 241.597 434.409 238.817 435.548 234.323Z" fill="#0E218A"/>
<path d="M322.251 285.867H310.384V290.278H322.251V285.867Z" fill="#00B0D1"/>
<path d="M338.454 285.867H326.587V290.278H338.454V285.867Z" fill="#00B0D1"/>
<path d="M354.657 285.867H342.79V290.278H354.657V285.867Z" fill="#00B0D1"/>
<path d="M370.861 285.867H358.994V290.278H370.861V285.867Z" fill="#00B0D1"/>
<path d="M387.064 285.867H375.197V290.278H387.064V285.867Z" fill="#00B0D1"/>
<path d="M403.267 285.867H391.4V290.278H403.267V285.867Z" fill="#00B0D1"/>
<path d="M419.471 285.867H407.604V290.278H419.471V285.867Z" fill="#00B0D1"/>
<path d="M421.835 288.734H307.806V294.793H421.835V288.734Z" fill="#1C1B2D"/>
<path d="M301.108 294.743H260.051C259.039 294.743 258.361 293.782 258.751 292.91C261.516 286.732 272.796 268.368 302.05 292.442C303.022 293.242 302.403 294.743 301.108 294.743Z" fill="#1C1B2D"/>
<path d="M302.05 292.442L287.588 283.088" stroke="#00B0D1" stroke-width="2" stroke-miterlimit="10"/>
<path d="M281.603 13.303H277.613V21.293H281.603V13.303Z" fill="white"/>
<path d="M281.603 27.608H277.613V35.599H281.603V27.608Z" fill="white"/>
<path d="M283.579 22.4632V26.1922H292.128V22.4632H283.579Z" fill="white"/>
<path d="M267.398 22.4634V26.1924H275.948V22.4634H267.398Z" fill="white"/>
<path d="M130.704 0.167999H126.714V8.159H130.704V0.167999Z" fill="white"/>
<path d="M130.704 14.473H126.714V22.463H130.704V14.473Z" fill="white"/>
<path d="M132.679 9.32892V13.0579H141.23V9.32892H132.679Z" fill="white"/>
<path d="M116.498 9.32819V13.0572H125.048V9.32819H116.498Z" fill="white"/>
<path d="M398.8 137.832H394.81V145.823H398.8V137.832Z" fill="white"/>
<path d="M398.8 152.137H394.81V160.127H398.8V152.137Z" fill="white"/>
<path d="M400.775 146.993V150.721H409.325V146.993H400.775Z" fill="white"/>
<path d="M384.594 146.993V150.722H393.144V146.993H384.594Z" fill="white"/>
<path d="M283.496 364.982H279.506V372.972H283.496V364.982Z" fill="white"/>
<path d="M283.496 379.286H279.506V387.277H283.496V379.286Z" fill="white"/>
<path d="M285.47 374.143V377.872H294.021V374.143H285.47Z" fill="white"/>
<path d="M269.29 374.142V377.871H277.84V374.142H269.29Z" fill="white"/>
<path d="M480.923 296.309H476.933V304.3H480.923V296.309Z" fill="white"/>
<path d="M480.923 310.614H476.933V318.605H480.923V310.614Z" fill="white"/>
<path d="M482.898 305.469V309.198H491.448V305.469H482.898Z" fill="white"/>
<path d="M466.717 305.47V309.199H475.267V305.47H466.717Z" fill="white"/>
<path d="M57.5807 328.606H53.5906V336.597H57.5807V328.606Z" fill="white"/>
<path d="M57.5807 342.911H53.5906V350.902H57.5807V342.911Z" fill="white"/>
<path d="M59.5561 337.766V341.495H68.1065V337.766H59.5561Z" fill="white"/>
<path d="M43.3747 337.766V341.495H51.9251V337.766H43.3747Z" fill="white"/>
<path d="M116.357 169.99H112.367V177.981H116.357V169.99Z" fill="white"/>
<path d="M116.357 184.295H112.367V192.286H116.357V184.295Z" fill="white"/>
<path d="M118.332 179.15V182.879H126.883V179.15H118.332Z" fill="white"/>
<path d="M102.151 179.15V182.879H110.701V179.15H102.151Z" fill="white"/>
<path d="M455.902 318.033V375.78C455.902 378.237 453.772 380.228 451.143 380.228H350.405C347.776 380.228 345.646 378.237 345.646 375.78V318.033C345.646 315.576 347.776 313.585 350.405 313.585H451.143C453.773 313.585 455.902 315.576 455.902 318.033Z" fill="#E2E4E4"/>
<path d="M455.902 318.033V322.635H345.647V318.033C345.647 315.576 347.777 313.585 350.406 313.585H451.144C453.773 313.585 455.902 315.576 455.902 318.033Z" fill="#006891"/>
<path d="M367.428 318.11C367.428 319.511 366.214 320.646 364.715 320.646C363.215 320.646 362.001 319.511 362.001 318.11C362.001 316.709 363.215 315.574 364.715 315.574C366.214 315.573 367.428 316.709 367.428 318.11Z" fill="#00AA80"/>
<path d="M360.351 318.11C360.351 319.511 359.136 320.646 357.638 320.646C356.14 320.646 354.924 319.511 354.924 318.11C354.924 316.709 356.138 315.574 357.638 315.574C359.137 315.574 360.351 316.709 360.351 318.11Z" fill="#FDBB3B"/>
<path d="M353.092 318.11C353.092 319.511 351.878 320.646 350.379 320.646C348.88 320.646 347.665 319.511 347.665 318.11C347.665 316.709 348.88 315.574 350.379 315.574C351.878 315.574 353.092 316.709 353.092 318.11Z" fill="#EB496F"/>
<path d="M375.893 362.503C373.841 362.503 371.936 362.182 370.181 361.539C368.45 360.871 366.941 359.932 365.655 358.72C364.394 357.508 363.405 356.086 362.687 354.454C361.97 352.797 361.612 350.979 361.612 349.001C361.612 347.023 361.97 345.217 362.687 343.585C363.405 341.928 364.394 340.494 365.655 339.282C366.941 338.07 368.45 337.143 370.181 336.5C371.936 335.832 373.841 335.499 375.893 335.499C378.292 335.499 380.431 335.919 382.311 336.76C384.215 337.601 385.797 338.812 387.059 340.395L382.385 344.624C381.544 343.635 380.617 342.88 379.603 342.361C378.613 341.842 377.501 341.582 376.264 341.582C375.201 341.582 374.224 341.755 373.334 342.101C372.443 342.448 371.677 342.955 371.034 343.622C370.416 344.265 369.921 345.044 369.55 345.959C369.204 346.874 369.031 347.888 369.031 349.001C369.031 350.114 369.204 351.128 369.55 352.043C369.921 352.958 370.416 353.749 371.034 354.417C371.677 355.06 372.443 355.554 373.334 355.901C374.224 356.247 375.201 356.42 376.264 356.42C377.501 356.42 378.613 356.16 379.603 355.641C380.617 355.122 381.544 354.367 382.385 353.378L387.059 357.607C385.797 359.165 384.215 360.377 382.311 361.242C380.431 362.083 378.292 362.503 375.893 362.503ZM395.941 357.83V340.173H401.653V357.83H395.941ZM389.635 351.709V346.293H407.922V351.709H389.635ZM418.799 357.83V340.173H424.511V357.83H418.799ZM412.493 351.709V346.293H430.78V351.709H412.493Z" fill="#0088BB"/>
<path d="M420.113 3.80499V48.58C420.113 50.485 418.461 52.029 416.422 52.029H338.313C336.275 52.029 334.623 50.485 334.623 48.58V3.80499C334.623 1.89999 336.275 0.355988 338.313 0.355988H416.422C418.461 0.355988 420.113 1.89999 420.113 3.80499Z" fill="#E2E4E4"/>
<path d="M420.113 3.80499V7.37299H334.624V3.80499C334.624 1.89999 336.276 0.355988 338.314 0.355988H416.423C418.461 0.355988 420.113 1.89999 420.113 3.80499Z" fill="#006891"/>
<path d="M351.512 3.86499C351.512 4.95099 350.57 5.83099 349.408 5.83099C348.246 5.83099 347.305 4.95099 347.305 3.86499C347.305 2.77899 348.246 1.89899 349.408 1.89899C350.57 1.89799 351.512 2.77899 351.512 3.86499Z" fill="#00AA80"/>
<path d="M346.024 3.86499C346.024 4.95099 345.082 5.83099 343.92 5.83099C342.758 5.83099 341.816 4.95099 341.816 3.86499C341.816 2.77899 342.758 1.89899 343.92 1.89899C345.082 1.89799 346.024 2.77899 346.024 3.86499Z" fill="#FDBB3B"/>
<path d="M340.396 3.86499C340.396 4.95099 339.454 5.83099 338.292 5.83099C337.13 5.83099 336.188 4.95099 336.188 3.86499C336.188 2.77899 337.13 1.89899 338.292 1.89899C339.454 1.89799 340.396 2.77899 340.396 3.86499Z" fill="#EB496F"/>
<path d="M353.624 19.3401H358.005V34.8293H353.624V19.3401ZM347.65 34.8293H343.269V19.3401H347.65V34.8293ZM353.934 28.7885H347.34V25.1596H353.934V28.7885ZM364.393 34.8293V22.8141H359.635V19.3401H373.509V22.8141H368.774V34.8293H364.393ZM375.141 34.8293V19.3401H378.748L385.165 29.8727H383.262L389.502 19.3401H393.109L393.153 34.8293H389.126L389.082 25.4694H389.768L385.099 33.3025H383.152L378.35 25.4694H379.191V34.8293H375.141ZM396.253 34.8293V19.3401H400.634V31.3553H408.025V34.8293H396.253Z" fill="#FDBB3B"/>
<path d="M90.7015 174.665H41.1754C37.2443 174.665 34.0578 171.687 34.0578 168.013V121.727C34.0578 118.053 37.2443 115.075 41.1754 115.075H90.7015C94.6326 115.075 97.8191 118.053 97.8191 121.727V168.013C97.818 171.686 94.6316 174.665 90.7015 174.665Z" fill="#FDBB3B"/>
<path d="M57.8856 142.598L49.011 145.445L57.8856 148.291V152.944L42.9495 147.881V143.01L57.8856 137.946V142.598Z" fill="white"/>
<path d="M67.9886 131.979H73.8457L64.1815 157.76H58.3243L67.9886 131.979Z" fill="white"/>
<path d="M88.9274 143.009V147.88L73.9913 152.943V148.29L82.8648 145.444L73.9913 142.597V137.944L88.9274 143.009Z" fill="white"/>
<path d="M468.145 143.731H427.193C423.942 143.731 421.308 141.269 421.308 138.231V99.958C421.308 96.92 423.942 94.458 427.193 94.458H468.145C471.396 94.458 474.03 96.92 474.03 99.958V138.231C474.03 141.268 471.395 143.731 468.145 143.731Z" fill="#0088BB"/>
<path d="M452.824 133.946C452.848 136.585 450.58 138.743 447.756 138.766C444.933 138.789 442.623 136.669 442.599 134.03C442.574 131.391 444.843 129.233 447.666 129.21C450.49 129.187 452.799 131.307 452.824 133.946Z" fill="white"/>
<path d="M462.355 111.36C453.665 105.238 441.581 105.337 433.008 111.601C431.665 112.573 429.782 112.751 428.669 111.777C427.557 110.809 427.906 108.785 429.618 107.537C440.15 99.842 454.994 99.72 465.669 107.241C467.405 108.461 467.791 110.478 466.698 111.465C465.603 112.457 463.716 112.311 462.355 111.36Z" fill="white"/>
<path d="M457.477 118.968C451.602 115.264 443.833 115.328 438.027 119.128C436.651 120.014 434.771 120.2 433.646 119.235C432.524 118.28 432.96 116.15 434.868 114.904C442.535 109.886 452.795 109.801 460.555 114.693C462.486 115.908 462.962 118.03 461.859 119.003C460.754 119.985 458.869 119.831 457.477 118.968Z" fill="white"/>
<path d="M452.191 126.651C449.33 125.314 445.929 125.342 443.093 126.726C441.651 127.397 439.768 127.602 438.618 126.66C437.467 125.736 438.127 123.334 440.542 122.157C444.941 120.012 450.216 119.968 454.655 122.041C457.091 123.18 457.797 125.57 456.663 126.512C455.533 127.471 453.646 127.298 452.191 126.651Z" fill="white"/>
<path d="M174.057 386.892H129.741C126.224 386.892 123.373 384.227 123.373 380.94V339.524C123.373 336.237 126.224 333.572 129.741 333.572H174.057C177.574 333.572 180.425 336.237 180.425 339.524V380.94C180.425 384.228 177.574 386.892 174.057 386.892Z" fill="#0088BB"/>
<path d="M137.1 367.757C135.948 367.757 134.88 367.577 133.895 367.216C132.924 366.842 132.078 366.315 131.356 365.635C130.649 364.955 130.094 364.157 129.692 363.242C129.289 362.312 129.088 361.293 129.088 360.183C129.088 359.073 129.289 358.06 129.692 357.145C130.094 356.215 130.649 355.411 131.356 354.731C132.078 354.051 132.924 353.531 133.895 353.17C134.88 352.796 135.948 352.608 137.1 352.608C138.445 352.608 139.645 352.844 140.699 353.316C141.768 353.788 142.656 354.467 143.363 355.355L140.741 357.728C140.269 357.173 139.749 356.749 139.18 356.458C138.626 356.167 138.001 356.021 137.308 356.021C136.711 356.021 136.163 356.118 135.664 356.313C135.164 356.507 134.734 356.791 134.374 357.166C134.027 357.526 133.749 357.963 133.541 358.477C133.347 358.99 133.25 359.559 133.25 360.183C133.25 360.807 133.347 361.376 133.541 361.889C133.749 362.403 134.027 362.847 134.374 363.221C134.734 363.582 135.164 363.859 135.664 364.053C136.163 364.248 136.711 364.345 137.308 364.345C138.001 364.345 138.626 364.199 139.18 363.908C139.749 363.616 140.269 363.193 140.741 362.638L143.363 365.011C142.656 365.885 141.768 366.564 140.699 367.05C139.645 367.522 138.445 367.757 137.1 367.757ZM150.177 367.757C148.984 367.757 147.832 367.612 146.723 367.32C145.627 367.015 144.732 366.627 144.038 366.155L145.391 363.117C146.043 363.533 146.792 363.88 147.638 364.157C148.498 364.421 149.351 364.553 150.198 364.553C150.766 364.553 151.224 364.504 151.571 364.407C151.918 364.296 152.168 364.157 152.32 363.991C152.487 363.811 152.57 363.603 152.57 363.367C152.57 363.034 152.417 362.77 152.112 362.576C151.807 362.382 151.412 362.222 150.926 362.097C150.44 361.973 149.899 361.848 149.303 361.723C148.72 361.598 148.131 361.438 147.534 361.244C146.951 361.05 146.417 360.8 145.932 360.495C145.446 360.176 145.051 359.767 144.746 359.267C144.44 358.754 144.288 358.109 144.288 357.332C144.288 356.458 144.524 355.667 144.995 354.96C145.481 354.252 146.202 353.684 147.16 353.254C148.117 352.824 149.31 352.608 150.739 352.608C151.696 352.608 152.632 352.719 153.548 352.941C154.477 353.15 155.303 353.462 156.024 353.878L154.755 356.937C154.061 356.562 153.374 356.285 152.695 356.104C152.015 355.91 151.356 355.813 150.718 355.813C150.149 355.813 149.691 355.876 149.344 356C148.998 356.111 148.748 356.264 148.595 356.458C148.443 356.652 148.366 356.874 148.366 357.124C148.366 357.443 148.512 357.7 148.803 357.894C149.109 358.074 149.504 358.227 149.99 358.352C150.489 358.463 151.03 358.581 151.613 358.706C152.209 358.83 152.799 358.99 153.381 359.184C153.978 359.364 154.519 359.614 155.005 359.933C155.49 360.238 155.879 360.648 156.17 361.161C156.475 361.66 156.628 362.292 156.628 363.055C156.628 363.901 156.385 364.685 155.899 365.406C155.428 366.114 154.713 366.682 153.756 367.112C152.813 367.542 151.62 367.757 150.177 367.757ZM163.65 367.757C162.457 367.757 161.305 367.612 160.196 367.32C159.1 367.015 158.205 366.627 157.511 366.155L158.864 363.117C159.516 363.533 160.265 363.88 161.111 364.157C161.971 364.421 162.824 364.553 163.671 364.553C164.239 364.553 164.697 364.504 165.044 364.407C165.391 364.296 165.641 364.157 165.793 363.991C165.96 363.811 166.043 363.603 166.043 363.367C166.043 363.034 165.89 362.77 165.585 362.576C165.28 362.382 164.885 362.222 164.399 362.097C163.913 361.973 163.372 361.848 162.776 361.723C162.193 361.598 161.604 361.438 161.007 361.244C160.424 361.05 159.89 360.8 159.405 360.495C158.919 360.176 158.524 359.767 158.219 359.267C157.914 358.754 157.761 358.109 157.761 357.332C157.761 356.458 157.997 355.667 158.468 354.96C158.954 354.252 159.675 353.684 160.633 353.254C161.59 352.824 162.783 352.608 164.212 352.608C165.169 352.608 166.105 352.719 167.021 352.941C167.95 353.15 168.776 353.462 169.497 353.878L168.228 356.937C167.534 356.562 166.848 356.285 166.168 356.104C165.488 355.91 164.829 355.813 164.191 355.813C163.622 355.813 163.164 355.876 162.817 356C162.471 356.111 162.221 356.264 162.068 356.458C161.916 356.652 161.839 356.874 161.839 357.124C161.839 357.443 161.985 357.7 162.276 357.894C162.582 358.074 162.977 358.227 163.463 358.352C163.962 358.463 164.503 358.581 165.086 358.706C165.682 358.83 166.272 358.99 166.854 359.184C167.451 359.364 167.992 359.614 168.478 359.933C168.963 360.238 169.352 360.648 169.643 361.161C169.948 361.66 170.101 362.292 170.101 363.055C170.101 363.901 169.858 364.685 169.372 365.406C168.901 366.114 168.186 366.682 167.229 367.112C166.286 367.542 165.093 367.757 163.65 367.757Z" fill="white"/>
<path d="M284.768 112.41H369.989C374.952 112.41 378.975 108.65 378.975 104.011V85.774C378.975 81.135 374.952 77.375 369.989 77.375H284.768C279.805 77.375 275.781 81.135 275.781 85.774V104.011C275.781 108.649 279.806 112.41 284.768 112.41Z" fill="white"/>
<path d="M275.781 104.077V125.99L287.557 111.468L275.781 104.077Z" fill="white"/>
<path d="M293.805 99.7883C292.89 99.7883 292.107 99.5892 291.456 99.1911C290.806 98.7797 290.308 98.1692 289.963 97.3596C289.631 96.5368 289.466 95.4883 289.466 94.2143C289.466 92.9269 289.625 91.8785 289.943 91.0689C290.262 90.2461 290.74 89.6356 291.377 89.2375C292.027 88.8393 292.837 88.6403 293.805 88.6403C294.787 88.6403 295.677 88.8725 296.473 89.337C297.282 89.7882 297.92 90.4319 298.384 91.268C298.862 92.0908 299.101 93.0729 299.101 94.2143C299.101 95.3556 298.862 96.3443 298.384 97.1805C297.92 98.0166 297.282 98.6602 296.473 99.1115C295.677 99.5627 294.787 99.7883 293.805 99.7883ZM287.017 103.471V88.8194H290.62V90.6509L290.6 94.2143L290.799 97.7976V103.471H287.017ZM293.009 96.7823C293.434 96.7823 293.812 96.6828 294.144 96.4837C294.489 96.2846 294.761 95.9927 294.96 95.6078C295.172 95.2229 295.279 94.7584 295.279 94.2143C295.279 93.6701 295.172 93.2056 294.96 92.8208C294.761 92.4359 294.489 92.1439 294.144 91.9449C293.812 91.7458 293.434 91.6463 293.009 91.6463C292.584 91.6463 292.2 91.7458 291.854 91.9449C291.523 92.1439 291.251 92.4359 291.038 92.8208C290.839 93.2056 290.74 93.6701 290.74 94.2143C290.74 94.7584 290.839 95.2229 291.038 95.6078C291.251 95.9927 291.523 96.2846 291.854 96.4837C292.2 96.6828 292.584 96.7823 293.009 96.7823ZM307.886 88.6403C308.722 88.6403 309.479 88.8128 310.155 89.1579C310.832 89.4896 311.363 90.0072 311.748 90.7106C312.146 91.414 312.345 92.3231 312.345 93.4379V99.6091H308.563V94.055C308.563 93.2853 308.404 92.7279 308.085 92.3828C307.78 92.0245 307.348 91.8453 306.791 91.8453C306.393 91.8453 306.028 91.9382 305.696 92.124C305.364 92.2966 305.106 92.5686 304.92 92.9402C304.734 93.3118 304.641 93.7962 304.641 94.3934V99.6091H300.859V84.838H304.641V91.8851L303.765 90.9893C304.177 90.2063 304.741 89.6224 305.457 89.2375C306.174 88.8393 306.984 88.6403 307.886 88.6403ZM316.377 103.65C315.806 103.65 315.229 103.557 314.645 103.372C314.074 103.199 313.61 102.967 313.251 102.675L314.565 100.027C314.791 100.226 315.05 100.379 315.342 100.485C315.647 100.604 315.946 100.664 316.238 100.664C316.649 100.664 316.974 100.571 317.213 100.386C317.452 100.2 317.658 99.9077 317.83 99.5096L318.328 98.2554L318.626 97.8772L322.289 88.8194H325.893L321.234 100.047C320.863 100.976 320.431 101.699 319.94 102.217C319.462 102.748 318.925 103.119 318.328 103.332C317.744 103.544 317.094 103.65 316.377 103.65ZM317.85 100.067L313.092 88.8194H316.974L320.478 97.5388L317.85 100.067ZM331.979 99.7883C330.599 99.7883 329.524 99.4499 328.754 98.773C327.985 98.0829 327.6 97.0477 327.6 95.6675V86.4107H331.382V95.6277C331.382 96.0126 331.488 96.3178 331.701 96.5434C331.913 96.7558 332.185 96.8619 332.517 96.8619C332.968 96.8619 333.353 96.7491 333.672 96.5235L334.607 99.1712C334.289 99.3835 333.897 99.5361 333.433 99.629C332.968 99.7352 332.484 99.7883 331.979 99.7883ZM326.027 92.0444V89.2176H333.851V92.0444H326.027ZM341.169 99.7883C339.988 99.7883 338.94 99.5494 338.024 99.0716C337.108 98.5939 336.385 97.9369 335.854 97.1008C335.337 96.2514 335.078 95.2826 335.078 94.1944C335.078 93.1061 335.337 92.1439 335.854 91.3078C336.385 90.4717 337.108 89.8214 338.024 89.3569C338.94 88.8791 339.988 88.6403 341.169 88.6403C342.351 88.6403 343.399 88.8791 344.315 89.3569C345.244 89.8214 345.967 90.4717 346.485 91.3078C347.002 92.1439 347.261 93.1061 347.261 94.1944C347.261 95.2826 347.002 96.2514 346.485 97.1008C345.967 97.9369 345.244 98.5939 344.315 99.0716C343.399 99.5494 342.351 99.7883 341.169 99.7883ZM341.169 96.7823C341.607 96.7823 341.992 96.6828 342.324 96.4837C342.669 96.2846 342.941 95.9927 343.14 95.6078C343.339 95.2096 343.439 94.7385 343.439 94.1944C343.439 93.6502 343.339 93.1924 343.14 92.8208C342.941 92.4359 342.669 92.1439 342.324 91.9449C341.992 91.7458 341.607 91.6463 341.169 91.6463C340.745 91.6463 340.36 91.7458 340.015 91.9449C339.683 92.1439 339.411 92.4359 339.199 92.8208C339 93.1924 338.9 93.6502 338.9 94.1944C338.9 94.7385 339 95.2096 339.199 95.6078C339.411 95.9927 339.683 96.2846 340.015 96.4837C340.36 96.6828 340.745 96.7823 341.169 96.7823ZM356.04 88.6403C356.877 88.6403 357.633 88.8128 358.31 89.1579C358.987 89.4896 359.518 90.0072 359.902 90.7106C360.301 91.414 360.5 92.3231 360.5 93.4379V99.6091H356.717V94.055C356.717 93.2853 356.558 92.7279 356.239 92.3828C355.934 92.0245 355.503 91.8453 354.946 91.8453C354.547 91.8453 354.182 91.9382 353.851 92.124C353.519 92.2966 353.26 92.5686 353.074 92.9402C352.888 93.3118 352.796 93.7962 352.796 94.3934V99.6091H349.013V88.8194H352.616V91.8851L351.92 90.9893C352.331 90.2063 352.895 89.6224 353.612 89.2375C354.328 88.8393 355.138 88.6403 356.04 88.6403Z" fill="#0088BB"/>
<path d="M291.883 337.002H206.663C201.699 337.002 197.676 333.242 197.676 328.603V310.366C197.676 305.727 201.699 301.967 206.663 301.967H291.883C296.847 301.967 300.87 305.727 300.87 310.366V328.603C300.87 333.242 296.847 337.002 291.883 337.002Z" fill="white"/>
<path d="M300.87 328.669V350.582L289.094 336.06L300.87 328.669Z" fill="white"/>
<path d="M218.665 322.39L208.851 318.767V315.701L218.665 312.078V314.985L209.966 318.07V316.398L218.665 319.484V322.39ZM226.556 324.381C225.362 324.381 224.293 324.142 223.351 323.664C222.422 323.187 221.692 322.53 221.161 321.694C220.63 320.844 220.365 319.875 220.365 318.787C220.365 317.699 220.63 316.737 221.161 315.901C221.692 315.064 222.422 314.414 223.351 313.95C224.293 313.472 225.362 313.233 226.556 313.233C227.777 313.233 228.832 313.492 229.721 314.009C230.61 314.527 231.241 315.257 231.612 316.199L228.686 317.692C228.434 317.188 228.122 316.823 227.75 316.597C227.379 316.358 226.974 316.239 226.536 316.239C226.098 316.239 225.7 316.338 225.342 316.538C224.983 316.737 224.698 317.029 224.486 317.413C224.287 317.785 224.187 318.243 224.187 318.787C224.187 319.344 224.287 319.816 224.486 320.2C224.698 320.585 224.983 320.877 225.342 321.076C225.7 321.275 226.098 321.375 226.536 321.375C226.974 321.375 227.379 321.262 227.75 321.037C228.122 320.798 228.434 320.426 228.686 319.922L231.612 321.415C231.241 322.357 230.61 323.087 229.721 323.605C228.832 324.122 227.777 324.381 226.556 324.381ZM238.335 324.381C237.153 324.381 236.105 324.142 235.189 323.664C234.274 323.187 233.55 322.53 233.019 321.694C232.502 320.844 232.243 319.875 232.243 318.787C232.243 317.699 232.502 316.737 233.019 315.901C233.55 315.064 234.274 314.414 235.189 313.95C236.105 313.472 237.153 313.233 238.335 313.233C239.516 313.233 240.564 313.472 241.48 313.95C242.409 314.414 243.132 315.064 243.65 315.901C244.167 316.737 244.426 317.699 244.426 318.787C244.426 319.875 244.167 320.844 243.65 321.694C243.132 322.53 242.409 323.187 241.48 323.664C240.564 324.142 239.516 324.381 238.335 324.381ZM238.335 321.375C238.773 321.375 239.157 321.275 239.489 321.076C239.834 320.877 240.106 320.585 240.305 320.2C240.505 319.802 240.604 319.331 240.604 318.787C240.604 318.243 240.505 317.785 240.305 317.413C240.106 317.029 239.834 316.737 239.489 316.538C239.157 316.338 238.773 316.239 238.335 316.239C237.91 316.239 237.525 316.338 237.18 316.538C236.848 316.737 236.576 317.029 236.364 317.413C236.165 317.785 236.065 318.243 236.065 318.787C236.065 319.331 236.165 319.802 236.364 320.2C236.576 320.585 236.848 320.877 237.18 321.076C237.525 321.275 237.91 321.375 238.335 321.375ZM250.876 324.381C249.894 324.381 248.999 324.155 248.189 323.704C247.393 323.24 246.756 322.596 246.278 321.773C245.8 320.937 245.561 319.942 245.561 318.787C245.561 317.646 245.8 316.664 246.278 315.841C246.756 315.005 247.393 314.361 248.189 313.91C248.999 313.459 249.894 313.233 250.876 313.233C251.805 313.233 252.588 313.432 253.226 313.83C253.876 314.228 254.367 314.839 254.699 315.662C255.03 316.484 255.196 317.526 255.196 318.787C255.196 320.074 255.037 321.129 254.719 321.952C254.4 322.775 253.922 323.386 253.285 323.784C252.648 324.182 251.845 324.381 250.876 324.381ZM251.673 321.375C252.097 321.375 252.476 321.275 252.807 321.076C253.153 320.877 253.425 320.585 253.624 320.2C253.823 319.802 253.922 319.331 253.922 318.787C253.922 318.243 253.823 317.785 253.624 317.413C253.425 317.029 253.153 316.737 252.807 316.538C252.476 316.338 252.097 316.239 251.673 316.239C251.235 316.239 250.843 316.338 250.498 316.538C250.166 316.737 249.901 317.029 249.702 317.413C249.503 317.785 249.403 318.243 249.403 318.787C249.403 319.331 249.503 319.802 249.702 320.2C249.901 320.585 250.166 320.877 250.498 321.076C250.843 321.275 251.235 321.375 251.673 321.375ZM254.042 324.202V322.35L254.062 318.787L253.863 315.224V309.431H257.645V324.202H254.042ZM265.732 324.381C264.458 324.381 263.343 324.142 262.388 323.664C261.445 323.173 260.709 322.51 260.178 321.674C259.66 320.824 259.402 319.862 259.402 318.787C259.402 317.712 259.654 316.757 260.158 315.92C260.676 315.071 261.386 314.414 262.288 313.95C263.191 313.472 264.206 313.233 265.334 313.233C266.396 313.233 267.364 313.452 268.24 313.89C269.116 314.315 269.813 314.945 270.331 315.781C270.848 316.617 271.107 317.632 271.107 318.827C271.107 318.96 271.1 319.112 271.087 319.285C271.074 319.457 271.061 319.617 271.047 319.763H262.507V317.772H269.037L267.603 318.329C267.617 317.838 267.524 317.413 267.325 317.055C267.139 316.697 266.873 316.418 266.528 316.219C266.197 316.02 265.805 315.92 265.354 315.92C264.903 315.92 264.504 316.02 264.159 316.219C263.828 316.418 263.569 316.703 263.383 317.075C263.197 317.433 263.104 317.858 263.104 318.349V318.926C263.104 319.457 263.21 319.915 263.423 320.3C263.648 320.685 263.967 320.984 264.378 321.196C264.79 321.395 265.281 321.494 265.852 321.494C266.382 321.494 266.834 321.421 267.205 321.275C267.59 321.116 267.968 320.877 268.34 320.559L270.331 322.629C269.813 323.2 269.176 323.638 268.42 323.943C267.663 324.235 266.767 324.381 265.732 324.381ZM272.791 322.39V319.484L281.511 316.398V318.07L272.791 314.985V312.078L282.605 315.701V318.767L272.791 322.39Z" fill="#FDBB3B"/>
</svg>
