<svg width="20" height="20" viewBox="0 0 20 20" fill="none" xmlns="http://www.w3.org/2000/svg">
<path d="M14.3484 14.8491C14.1233 15.0741 13.8181 15.2006 13.4999 15.2006C13.1816 15.2006 12.8764 15.0741 12.6514 14.8491L10.0004 11.8191L7.34938 14.8481C7.23828 14.961 7.10593 15.0508 6.95995 15.1124C6.81397 15.1739 6.65726 15.2059 6.49885 15.2065C6.34045 15.2072 6.18348 15.1764 6.03701 15.1161C5.89053 15.0558 5.75745 14.9671 5.64544 14.8551C5.53343 14.743 5.4447 14.61 5.38438 14.4635C5.32406 14.317 5.29333 14.16 5.29398 14.0016C5.29462 13.8432 5.32663 13.6865 5.38814 13.5405C5.44965 13.3946 5.53946 13.2622 5.65238 13.1511L8.41038 10.0011L5.65138 6.84911C5.53846 6.73802 5.44865 6.60566 5.38714 6.45968C5.32563 6.31371 5.29362 6.15699 5.29298 5.99859C5.29233 5.84018 5.32306 5.68321 5.38338 5.53674C5.4437 5.39027 5.53243 5.25718 5.64444 5.14517C5.75645 5.03316 5.88953 4.94444 6.03601 4.88411C6.18248 4.82379 6.33945 4.79307 6.49786 4.79371C6.65626 4.79436 6.81297 4.82636 6.95895 4.88787C7.10493 4.94938 7.23728 5.03919 7.34838 5.15211L10.0004 8.18311L12.6514 5.15211C12.7625 5.03919 12.8948 4.94938 13.0408 4.88787C13.1868 4.82636 13.3435 4.79436 13.5019 4.79371C13.6603 4.79307 13.8173 4.82379 13.9638 4.88411C14.1102 4.94444 14.2433 5.03316 14.3553 5.14517C14.4673 5.25718 14.5561 5.39027 14.6164 5.53674C14.6767 5.68321 14.7074 5.84018 14.7068 5.99859C14.7061 6.15699 14.6741 6.31371 14.6126 6.45968C14.5511 6.60566 14.4613 6.73802 14.3484 6.84911L11.5904 10.0011L14.3484 13.1511C14.4599 13.2626 14.5485 13.3949 14.6089 13.5406C14.6692 13.6863 14.7003 13.8424 14.7003 14.0001C14.7003 14.1578 14.6692 14.314 14.6089 14.4596C14.5485 14.6053 14.4599 14.7377 14.3484 14.8491Z" fill="black"/>
</svg>
