<svg width="51" height="50" viewBox="0 0 51 50" fill="none" xmlns="http://www.w3.org/2000/svg">
<g id="Component 100">
<path id="Vector" d="M9.625 41.6668V39.5835H13.7917V8.3335H30.4583V10.4168H36.7083V39.5835H40.875V41.6668H34.625V12.5002H30.4583V41.6668H9.625ZM24.2083 26.6043C24.6389 26.6043 25.0139 26.4446 25.3333 26.1252C25.6528 25.8057 25.8125 25.4307 25.8125 25.0002C25.8125 24.5696 25.6528 24.1946 25.3333 23.8752C25.0139 23.5557 24.6389 23.396 24.2083 23.396C23.7778 23.396 23.4028 23.5557 23.0833 23.8752C22.7639 24.1946 22.6042 24.5696 22.6042 25.0002C22.6042 25.4307 22.7639 25.8057 23.0833 26.1252C23.4028 26.4446 23.7778 26.6043 24.2083 26.6043ZM15.875 39.5835H28.375V10.4168H15.875V39.5835Z" fill="black"/>
</g>
</svg>
