<svg width="30" height="30" viewBox="0 0 30 30" fill="none" xmlns="http://www.w3.org/2000/svg">
<g id="material-symbols-light:meeting-room">
<path id="Vector" d="M5.625 25V23.75H8.125V5H18.125V6.25H21.875V23.75H24.375V25H20.625V7.5H18.125V25H5.625ZM14.375 15.9625C14.6333 15.9625 14.8583 15.8667 15.05 15.675C15.2417 15.4833 15.3375 15.2583 15.3375 15C15.3375 14.7417 15.2417 14.5167 15.05 14.325C14.8583 14.1333 14.6333 14.0375 14.375 14.0375C14.1167 14.0375 13.8917 14.1333 13.7 14.325C13.5083 14.5167 13.4125 14.7417 13.4125 15C13.4125 15.2583 13.5083 15.4833 13.7 15.675C13.8917 15.8667 14.1167 15.9625 14.375 15.9625Z" fill="black"/>
</g>
</svg>
