<svg width="122" height="24" viewBox="0 0 122 24" fill="none" xmlns="http://www.w3.org/2000/svg">
<path d="M7 7H6C5.46957 7 4.96086 7.21071 4.58579 7.58579C4.21071 7.96086 4 8.46957 4 9V18C4 18.5304 4.21071 19.0391 4.58579 19.4142C4.96086 19.7893 5.46957 20 6 20H15C15.5304 20 16.0391 19.7893 16.4142 19.4142C16.7893 19.0391 17 18.5304 17 18V17" stroke="#0000FF" stroke-width="2" stroke-linecap="round" stroke-linejoin="round"/>
<path d="M16 5.00011L19 8.00011M20.385 6.58511C20.7788 6.19126 21.0001 5.65709 21.0001 5.10011C21.0001 4.54312 20.7788 4.00895 20.385 3.61511C19.9912 3.22126 19.457 3 18.9 3C18.343 3 17.8088 3.22126 17.415 3.61511L9 12.0001V15.0001H12L20.385 6.58511Z" stroke="#0000FF" stroke-width="2" stroke-linecap="round" stroke-linejoin="round"/>
<path d="M34.424 9.456H39.992V11.168H34.424V9.456ZM34.584 14.256H40.904V16H32.504V4.8H40.68V6.544H34.584V14.256ZM46.5686 16.112C45.7473 16.112 45.006 15.9307 44.3446 15.568C43.694 15.1947 43.182 14.6827 42.8086 14.032C42.4353 13.3813 42.2486 12.6133 42.2486 11.728C42.2486 10.8427 42.4353 10.0747 42.8086 9.424C43.182 8.77333 43.694 8.26667 44.3446 7.904C45.006 7.54133 45.7473 7.36 46.5686 7.36C47.2833 7.36 47.9233 7.52 48.4886 7.84C49.054 8.14933 49.502 8.624 49.8326 9.264C50.1633 9.904 50.3286 10.7253 50.3286 11.728C50.3286 12.72 50.1686 13.5413 49.8486 14.192C49.5286 14.832 49.086 15.312 48.5206 15.632C47.9553 15.952 47.3046 16.112 46.5686 16.112ZM46.8086 14.4C47.2886 14.4 47.7153 14.2933 48.0886 14.08C48.4726 13.8667 48.7766 13.5573 49.0006 13.152C49.2353 12.7467 49.3526 12.272 49.3526 11.728C49.3526 11.1733 49.2353 10.6987 49.0006 10.304C48.7766 9.89867 48.4726 9.58933 48.0886 9.376C47.7153 9.16267 47.2886 9.056 46.8086 9.056C46.3286 9.056 45.8966 9.16267 45.5126 9.376C45.1393 9.58933 44.8353 9.89867 44.6006 10.304C44.3766 10.6987 44.2646 11.1733 44.2646 11.728C44.2646 12.272 44.3766 12.7467 44.6006 13.152C44.8353 13.5573 45.1393 13.8667 45.5126 14.08C45.8966 14.2933 46.3286 14.4 46.8086 14.4ZM49.4006 16V13.984L49.4806 11.712L49.3206 9.44V4.128H51.3046V16H49.4006ZM53.937 16V7.456H55.937V16H53.937ZM54.945 6.048C54.5717 6.048 54.2623 5.93067 54.017 5.696C53.7823 5.46133 53.665 5.17867 53.665 4.848C53.665 4.50667 53.7823 4.224 54.017 4C54.2623 3.76533 54.5717 3.648 54.945 3.648C55.3183 3.648 55.6223 3.76 55.857 3.984C56.1023 4.19733 56.225 4.46933 56.225 4.8C56.225 5.152 56.1077 5.45067 55.873 5.696C55.6383 5.93067 55.329 6.048 54.945 6.048ZM61.778 16.112C60.8393 16.112 60.114 15.872 59.602 15.392C59.09 14.9013 58.834 14.1813 58.834 13.232V5.568H60.834V13.184C60.834 13.5893 60.9353 13.904 61.138 14.128C61.3513 14.352 61.6447 14.464 62.018 14.464C62.466 14.464 62.8393 14.3467 63.138 14.112L63.698 15.536C63.4633 15.728 63.1753 15.872 62.834 15.968C62.4927 16.064 62.1407 16.112 61.778 16.112ZM57.426 9.12V7.52H63.122V9.12H57.426ZM69.9571 16V4.8H74.5651C75.5571 4.8 76.4051 4.96 77.1091 5.28C77.8238 5.6 78.3731 6.05867 78.7571 6.656C79.1411 7.25333 79.3331 7.96267 79.3331 8.784C79.3331 9.60533 79.1411 10.3147 78.7571 10.912C78.3731 11.5093 77.8238 11.968 77.1091 12.288C76.4051 12.608 75.5571 12.768 74.5651 12.768H71.1091L72.0371 11.792V16H69.9571ZM72.0371 12.016L71.1091 11.008H74.4691C75.3865 11.008 76.0745 10.816 76.5331 10.432C77.0025 10.0373 77.2371 9.488 77.2371 8.784C77.2371 8.06933 77.0025 7.52 76.5331 7.136C76.0745 6.752 75.3865 6.56 74.4691 6.56H71.1091L72.0371 5.536V12.016ZM81.1401 16V7.456H83.0441V9.808L82.8201 9.12C83.0761 8.544 83.4761 8.10667 84.0201 7.808C84.5748 7.50933 85.2628 7.36 86.0841 7.36V9.264C85.9988 9.24267 85.9188 9.232 85.8441 9.232C85.7695 9.22133 85.6948 9.216 85.6201 9.216C84.8628 9.216 84.2601 9.44 83.8121 9.888C83.3641 10.3253 83.1401 10.9813 83.1401 11.856V16H81.1401ZM91.5426 16.112C90.668 16.112 89.8893 15.9253 89.2066 15.552C88.524 15.168 87.9853 14.6453 87.5906 13.984C87.196 13.3227 86.9986 12.5707 86.9986 11.728C86.9986 10.8747 87.196 10.1227 87.5906 9.472C87.9853 8.81067 88.524 8.29333 89.2066 7.92C89.8893 7.54667 90.668 7.36 91.5426 7.36C92.428 7.36 93.212 7.54667 93.8946 7.92C94.588 8.29333 95.1266 8.80533 95.5106 9.456C95.9053 10.1067 96.1026 10.864 96.1026 11.728C96.1026 12.5707 95.9053 13.3227 95.5106 13.984C95.1266 14.6453 94.588 15.168 93.8946 15.552C93.212 15.9253 92.428 16.112 91.5426 16.112ZM91.5426 14.4C92.0333 14.4 92.4706 14.2933 92.8546 14.08C93.2386 13.8667 93.5373 13.5573 93.7506 13.152C93.9746 12.7467 94.0866 12.272 94.0866 11.728C94.0866 11.1733 93.9746 10.6987 93.7506 10.304C93.5373 9.89867 93.2386 9.58933 92.8546 9.376C92.4706 9.16267 92.0386 9.056 91.5586 9.056C91.068 9.056 90.6306 9.16267 90.2466 9.376C89.8733 9.58933 89.5746 9.89867 89.3506 10.304C89.1266 10.6987 89.0146 11.1733 89.0146 11.728C89.0146 12.272 89.1266 12.7467 89.3506 13.152C89.5746 13.5573 89.8733 13.8667 90.2466 14.08C90.6306 14.2933 91.0626 14.4 91.5426 14.4ZM98.2871 16V6.976C98.2871 6.08 98.5485 5.36533 99.0711 4.832C99.6045 4.288 100.362 4.016 101.343 4.016C101.695 4.016 102.026 4.05333 102.335 4.128C102.655 4.20267 102.922 4.32 103.135 4.48L102.591 5.984C102.442 5.86667 102.271 5.78133 102.079 5.728C101.887 5.664 101.69 5.632 101.487 5.632C101.071 5.632 100.756 5.74933 100.543 5.984C100.33 6.208 100.223 6.54933 100.223 7.008V7.968L100.287 8.864V16H98.2871ZM96.8791 9.12V7.52H102.575V9.12H96.8791ZM103.983 16V7.456H105.983V16H103.983ZM104.991 6.048C104.618 6.048 104.308 5.93067 104.063 5.696C103.828 5.46133 103.711 5.17867 103.711 4.848C103.711 4.50667 103.828 4.224 104.063 4C104.308 3.76533 104.618 3.648 104.991 3.648C105.364 3.648 105.668 3.76 105.903 3.984C106.148 4.19733 106.271 4.46933 106.271 4.8C106.271 5.152 106.154 5.45067 105.919 5.696C105.684 5.93067 105.375 6.048 104.991 6.048ZM108.609 16V4.128H110.609V16H108.609ZM117.25 16.112C116.301 16.112 115.469 15.9253 114.754 15.552C114.05 15.168 113.501 14.6453 113.106 13.984C112.722 13.3227 112.53 12.5707 112.53 11.728C112.53 10.8747 112.717 10.1227 113.09 9.472C113.474 8.81067 113.997 8.29333 114.658 7.92C115.33 7.54667 116.093 7.36 116.946 7.36C117.778 7.36 118.519 7.54133 119.17 7.904C119.821 8.26667 120.333 8.77867 120.706 9.44C121.079 10.1013 121.266 10.88 121.266 11.776C121.266 11.8613 121.261 11.9573 121.25 12.064C121.25 12.1707 121.245 12.272 121.234 12.368H114.114V11.04H120.178L119.394 11.456C119.405 10.9653 119.303 10.5333 119.09 10.16C118.877 9.78667 118.583 9.49333 118.21 9.28C117.847 9.06667 117.426 8.96 116.946 8.96C116.455 8.96 116.023 9.06667 115.65 9.28C115.287 9.49333 114.999 9.792 114.786 10.176C114.583 10.5493 114.482 10.992 114.482 11.504V11.824C114.482 12.336 114.599 12.7893 114.834 13.184C115.069 13.5787 115.399 13.8827 115.826 14.096C116.253 14.3093 116.743 14.416 117.298 14.416C117.778 14.416 118.21 14.3413 118.594 14.192C118.978 14.0427 119.319 13.808 119.618 13.488L120.69 14.72C120.306 15.168 119.821 15.5147 119.234 15.76C118.658 15.9947 117.997 16.112 117.25 16.112Z" fill="#0000FF"/>
</svg>
