<svg width="29" height="29" viewBox="0 0 29 29" fill="none" xmlns="http://www.w3.org/2000/svg">
<g id="tabler:edit">
<g id="Group">
<path id="Vector" d="M8.45801 8.45801H7.24967C6.60873 8.45801 5.99405 8.71262 5.54083 9.16583C5.08762 9.61905 4.83301 10.2337 4.83301 10.8747V21.7497C4.83301 22.3906 5.08762 23.0053 5.54083 23.4585C5.99405 23.9117 6.60873 24.1663 7.24967 24.1663H18.1247C18.7656 24.1663 19.3803 23.9117 19.8335 23.4585C20.2867 23.0053 20.5413 22.3906 20.5413 21.7497V20.5413" stroke="black" stroke-width="2" stroke-linecap="round" stroke-linejoin="round"/>
<path id="Vector_2" d="M19.3333 6.0418L22.9583 9.6668M24.6319 7.957C25.1078 7.48111 25.3751 6.83565 25.3751 6.16263C25.3751 5.48961 25.1078 4.84415 24.6319 4.36825C24.156 3.89236 23.5105 3.625 22.8375 3.625C22.1645 3.625 21.519 3.89236 21.0431 4.36825L10.875 14.5001V18.1251H14.5L24.6319 7.957Z" stroke="black" stroke-width="2" stroke-linecap="round" stroke-linejoin="round"/>
</g>
</g>
</svg>
