<svg width="21" height="13" viewBox="0 0 21 13" fill="none" xmlns="http://www.w3.org/2000/svg">
<path d="M10.5 12C14.5 12 17.96 9.78 19.74 6.5C17.96 3.22 14.5 1 10.5 1C6.50001 1 3.04001 3.22 1.26001 6.5C3.04001 9.78 6.50001 12 10.5 12ZM10.5 0C15.06 0 19 2.65 20.86 6.5C19 10.35 15.06 13 10.5 13C5.94001 13 2.00001 10.35 0.140015 6.5C2.00001 2.65 5.94001 0 10.5 0ZM10.5 2C13 2 15 4 15 6.5C15 9 13 11 10.5 11C8.00001 11 6.00001 9 6.00001 6.5C6.00001 4 8.00001 2 10.5 2ZM10.5 3C9.57176 3 8.68152 3.36875 8.02514 4.02513C7.36876 4.6815 7.00001 5.57174 7.00001 6.5C7.00001 7.42826 7.36876 8.3185 8.02514 8.97487C8.68152 9.63125 9.57176 10 10.5 10C11.4283 10 12.3185 9.63125 12.9749 8.97487C13.6313 8.3185 14 7.42826 14 6.5C14 5.57174 13.6313 4.6815 12.9749 4.02513C12.3185 3.36875 11.4283 3 10.5 3Z" fill="black"/>
</svg>
