<svg width="66" height="66" viewBox="0 0 66 66" fill="none" xmlns="http://www.w3.org/2000/svg">
<rect y="0.5" width="66" height="65" rx="10" fill="#D4E5E4"/>
<path d="M33 50.5C30.5792 50.5 28.3042 50.0403 26.175 49.121C24.0458 48.2017 22.1938 46.9551 20.6188 45.3813C19.0438 43.8074 17.7972 41.9553 16.879 39.825C15.9608 37.6947 15.5012 35.4197 15.5 33C15.4988 30.5803 15.9585 28.3053 16.879 26.175C17.7995 24.0447 19.0461 22.1926 20.6188 20.6188C22.1914 19.0449 24.0435 17.7983 26.175 16.879C28.3065 15.9597 30.5815 15.5 33 15.5C35.4185 15.5 37.6935 15.9597 39.825 16.879C41.9565 17.7983 43.8086 19.0449 45.3813 20.6188C46.9539 22.1926 48.2011 24.0447 49.1228 26.175C50.0444 28.3053 50.5035 30.5803 50.5 33C50.4965 35.4197 50.0368 37.6947 49.121 39.825C48.2052 41.9553 46.9586 43.8074 45.3813 45.3813C43.8039 46.9551 41.9518 48.2023 39.825 49.1227C37.6982 50.0433 35.4232 50.5023 33 50.5ZM31.25 46.9125V43.5C30.2875 43.5 29.4638 43.1576 28.779 42.4728C28.0942 41.7879 27.7512 40.9637 27.75 40V38.25L19.35 29.85C19.2625 30.375 19.1826 30.9 19.1103 31.425C19.0379 31.95 19.0012 32.475 19 33C19 36.5292 20.1597 39.6208 22.479 42.275C24.7983 44.9292 27.722 46.475 31.25 46.9125ZM43.325 42.45C43.9083 41.8083 44.4333 41.1159 44.9 40.3728C45.3667 39.6296 45.7528 38.8567 46.0585 38.054C46.3642 37.2513 46.5975 36.4271 46.7585 35.5813C46.9195 34.7354 47 33.875 47 33C47 30.1417 46.2049 27.5313 44.6148 25.1688C43.0246 22.8063 40.903 21.1 38.25 20.05V20.75C38.25 21.7125 37.9076 22.5368 37.2228 23.2228C36.5379 23.9088 35.7137 24.2512 34.75 24.25H31.25V27.75C31.25 28.2458 31.082 28.6618 30.746 28.9978C30.41 29.3338 29.9947 29.5012 29.5 29.5H26V33H36.5C36.9958 33 37.4118 33.168 37.7478 33.504C38.0838 33.84 38.2512 34.2553 38.25 34.75V40H40C40.7583 40 41.4438 40.2263 42.0562 40.679C42.6688 41.1317 43.0917 41.722 43.325 42.45Z" fill="black"/>
</svg>
