<svg width="50" height="50" viewBox="0 0 50 50" fill="none" xmlns="http://www.w3.org/2000/svg">
<path d="M26.4729 4.77709L45.2229 23.5271C46.5354 24.8396 45.6063 27.0833 43.75 27.0833H41.6667V39.5833C41.6667 41.2409 41.0082 42.8307 39.8361 44.0028C38.664 45.1749 37.0743 45.8333 35.4167 45.8333H33.3333V31.25C33.3334 29.6558 32.7243 28.1218 31.6307 26.962C30.537 25.8021 29.0414 25.1039 27.45 25.0104L27.0833 25H22.9167C21.2591 25 19.6694 25.6585 18.4972 26.8306C17.3251 28.0027 16.6667 29.5924 16.6667 31.25V45.8333H14.5833C12.9257 45.8333 11.336 45.1749 10.1639 44.0028C8.99181 42.8307 8.33333 41.2409 8.33333 39.5833V27.0833H6.25C4.39583 27.0833 3.46458 24.8396 4.77708 23.5271L23.5271 4.77709C23.9178 4.38652 24.4476 4.16711 25 4.16711C25.5524 4.16711 26.0822 4.38652 26.4729 4.77709ZM27.0833 29.1667C27.6359 29.1667 28.1658 29.3862 28.5565 29.7769C28.9472 30.1676 29.1667 30.6975 29.1667 31.25V45.8333H20.8333V31.25C20.8334 30.7397 21.0207 30.2472 21.3598 29.8659C21.6989 29.4846 22.1661 29.241 22.6729 29.1813L22.9167 29.1667H27.0833Z" fill="white"/>
</svg>
