<svg width="42" height="42" viewBox="0 0 42 42" fill="none" xmlns="http://www.w3.org/2000/svg">
<path d="M22.4729 0.777086L41.2229 19.5271C42.5354 20.8396 41.6063 23.0833 39.75 23.0833H37.6667V35.5833C37.6667 37.2409 37.0082 38.8307 35.8361 40.0028C34.664 41.1749 33.0743 41.8333 31.4167 41.8333H29.3333V27.25C29.3334 25.6558 28.7243 24.1218 27.6307 22.962C26.537 21.8021 25.0414 21.1039 23.45 21.0104L23.0833 21H18.9167C17.2591 21 15.6694 21.6585 14.4972 22.8306C13.3251 24.0027 12.6667 25.5924 12.6667 27.25V41.8333H10.5833C8.92573 41.8333 7.33602 41.1749 6.16392 40.0028C4.99181 38.8307 4.33333 37.2409 4.33333 35.5833V23.0833H2.25C0.395833 23.0833 -0.535417 20.8396 0.777083 19.5271L19.5271 0.777086C19.9178 0.386521 20.4476 0.167114 21 0.167114C21.5524 0.167114 22.0822 0.386521 22.4729 0.777086ZM23.0833 25.1667C23.6359 25.1667 24.1658 25.3862 24.5565 25.7769C24.9472 26.1676 25.1667 26.6975 25.1667 27.25V41.8333H16.8333V27.25C16.8334 26.7397 17.0207 26.2472 17.3598 25.8659C17.6989 25.4846 18.1661 25.241 18.6729 25.1813L18.9167 25.1667H23.0833Z" fill="white"/>
</svg>
