<svg width="1284" height="286" viewBox="0 0 1284 286" fill="none" xmlns="http://www.w3.org/2000/svg">
<path d="M825.84 264.232C825.84 265.231 824.283 266.042 822.366 266.042C820.45 266.042 818.893 265.231 818.893 264.232C818.893 263.232 820.45 262.421 822.366 262.421C824.283 262.421 825.84 263.23 825.84 264.232Z" stroke="#008080" stroke-opacity="0.1" stroke-width="2" stroke-miterlimit="10" stroke-linecap="round" stroke-linejoin="round"/>
<path d="M859.544 279.936C861.463 279.936 863.018 279.125 863.018 278.125C863.018 277.125 861.463 276.314 859.544 276.314C857.626 276.314 856.07 277.125 856.07 278.125C856.07 279.125 857.626 279.936 859.544 279.936Z" stroke="#008080" stroke-opacity="0.1" stroke-width="2" stroke-miterlimit="10" stroke-linecap="round" stroke-linejoin="round"/>
<path d="M846.465 274.402C850.557 274.402 853.874 272.673 853.874 270.54C853.874 268.407 850.557 266.678 846.465 266.678C842.374 266.678 839.057 268.407 839.057 270.54C839.057 272.673 842.374 274.402 846.465 274.402Z" stroke="#008080" stroke-opacity="0.1" stroke-width="2" stroke-miterlimit="10" stroke-linecap="round" stroke-linejoin="round"/>
<path d="M859.372 270.54L856.901 272.791L855.591 275.298L850.787 275.978L846.463 277.269L842.14 275.978L837.332 275.298L836.026 272.791L833.551 270.54L836.026 268.287L837.332 265.78L842.14 265.099L846.463 263.809L850.787 265.099L855.591 265.78L856.901 268.287L859.372 270.54Z" stroke="#008080" stroke-opacity="0.1" stroke-width="2" stroke-miterlimit="10" stroke-linecap="round" stroke-linejoin="round"/>
<path d="M856.07 278.125C856.07 277.126 857.627 276.314 859.544 276.314C860.579 276.314 861.51 276.552 862.144 276.928C864.789 275.165 866.371 272.95 866.371 270.539C866.371 264.807 857.457 260.161 846.462 260.161C835.466 260.161 826.553 264.807 826.553 270.539C826.553 276.27 835.466 280.916 846.462 280.916C850.328 280.916 853.931 280.34 856.984 279.348C856.422 279.025 856.07 278.597 856.07 278.125Z" stroke="#008080" stroke-opacity="0.1" stroke-width="2" stroke-miterlimit="10" stroke-linecap="round" stroke-linejoin="round"/>
<path d="M846.465 256.497C837.176 256.497 828.982 258.949 824.142 262.678C825.157 262.994 825.84 263.572 825.84 264.233C825.84 265.233 824.283 266.044 822.366 266.044C821.893 266.044 821.444 265.994 821.036 265.905C820.061 267.357 819.527 268.915 819.527 270.54C819.527 278.296 831.591 284.584 846.469 284.584C861.347 284.584 873.41 278.296 873.41 270.54C873.41 262.785 861.343 256.497 846.465 256.497Z" stroke="#008080" stroke-opacity="0.1" stroke-width="2" stroke-miterlimit="10" stroke-linecap="round" stroke-linejoin="round"/>
<path d="M927.076 31.1582L910.361 28.1991C908.595 27.8872 907.652 26.8867 908.25 25.966C908.848 25.0454 910.768 24.5538 912.529 24.8657L929.245 27.8248C931.011 28.1367 931.954 29.1372 931.355 30.0554C930.757 30.9785 928.842 31.4725 927.076 31.1582Z" stroke="#008080" stroke-opacity="0.1" stroke-width="3" stroke-miterlimit="10"/>
<path d="M924.879 34.5306L908.164 31.5715C906.398 31.2596 905.455 30.2591 906.053 29.3409C906.651 28.4202 908.571 27.9287 910.337 28.2406L927.052 31.1972C928.818 31.5091 929.761 32.5096 929.163 33.4303C928.56 34.3509 926.645 34.8424 924.879 34.5306Z" stroke="#008080" stroke-opacity="0.1" stroke-width="3" stroke-miterlimit="10"/>
<path d="M910.021 15.7659C910.04 15.7958 910.054 15.8233 910.074 15.8532C910.447 16.4745 912.649 20.4116 911.73 24.7804L929.661 27.8643C933.911 24.0693 940.177 21.5918 941.187 21.2075C941.235 21.1901 941.283 21.1726 941.326 21.1551C941.814 20.973 942.288 20.7784 942.747 20.5713C945.447 19.3562 947.572 17.7569 948.769 15.8657C952.297 10.2968 946.495 4.29124 935.811 2.4524C925.128 0.613565 913.606 3.63754 910.078 9.20645C908.877 11.1002 908.757 13.0438 909.542 14.8577C909.676 15.1621 909.834 15.4665 910.021 15.7659Z" stroke="#008080" stroke-opacity="0.1" stroke-width="3" stroke-miterlimit="10"/>
<path d="M909.079 31.7764C908.878 33.6227 911.061 35.3817 914.593 35.9905C918.078 36.5893 921.788 35.8782 923.76 34.3737L909.079 31.7764Z" stroke="#008080" stroke-opacity="0.1" stroke-width="3" stroke-miterlimit="10"/>
<path d="M917.345 25.6961L922.672 17.2803C923.199 16.452 922.332 15.5588 920.743 15.2843C919.154 15.0099 917.44 15.4615 916.914 16.2898C916.387 17.1182 917.254 18.0114 918.843 18.2859L925.238 19.3862" stroke="#008080" stroke-opacity="0.1" stroke-width="3" stroke-miterlimit="10"/>
<path d="M924.371 26.9061L929.699 18.4904C930.225 17.6621 931.939 17.2129 933.528 17.4849C935.117 17.7594 935.979 18.6526 935.457 19.4809C934.931 20.3093 933.217 20.7584 931.628 20.4864L925.233 19.3861" stroke="#008080" stroke-opacity="0.1" stroke-width="3" stroke-miterlimit="10"/>
<path d="M952.555 18.7646L957.954 19.6953" stroke="#008080" stroke-opacity="0.1" stroke-width="3" stroke-miterlimit="10" stroke-linecap="round"/>
<path d="M955.029 15.2199L960.654 14.7783" stroke="#008080" stroke-opacity="0.1" stroke-width="3" stroke-miterlimit="10" stroke-linecap="round"/>
<path d="M948.777 21.8059L952.789 23.9067" stroke="#008080" stroke-opacity="0.1" stroke-width="3" stroke-miterlimit="10" stroke-linecap="round"/>
<path d="M902.403 10.1373L897.004 9.20911" stroke="#008080" stroke-opacity="0.1" stroke-width="3" stroke-miterlimit="10" stroke-linecap="round"/>
<path d="M904.468 6.5194L900.457 4.41858" stroke="#008080" stroke-opacity="0.1" stroke-width="3" stroke-miterlimit="10" stroke-linecap="round"/>
<path d="M901.969 13.7528L896.35 14.1944" stroke="#008080" stroke-opacity="0.1" stroke-width="3" stroke-miterlimit="10" stroke-linecap="round"/>
<path d="M757.924 60.4493L708.291 52.721C704.681 52.1596 702.632 50.1793 703.709 48.2977L713.621 30.9947C714.698 29.113 718.497 28.045 722.107 28.6065L771.741 36.3347C775.351 36.8961 777.4 38.8764 776.323 40.7581L766.41 58.0611C765.329 59.9405 761.53 61.0107 757.924 60.4493Z" stroke="#008080" stroke-opacity="0.1" stroke-width="4" stroke-miterlimit="10" stroke-linecap="round"/>
<path d="M704.879 46.251L767.58 56.0144" stroke="#008080" stroke-opacity="0.1" stroke-width="4" stroke-miterlimit="10" stroke-linecap="round"/>
<path d="M736.383 53.9683C736.114 54.4376 735.163 54.7052 734.263 54.5648C733.363 54.4245 732.849 53.9288 733.119 53.4595C733.388 52.9902 734.339 52.7227 735.239 52.863C736.139 53.0034 736.653 53.499 736.383 53.9683Z" fill="#4D2C5E" fill-opacity="0.5"/>
<path d="M735.95 53.7195C735.912 53.7859 735.76 53.9195 735.424 54.0139C735.111 54.102 734.721 54.1302 734.34 54.0708C733.951 54.0102 733.708 53.8804 733.599 53.7759C733.568 53.7456 733.555 53.7242 733.549 53.7136C733.55 53.7121 733.551 53.7104 733.552 53.7084C733.59 53.6419 733.742 53.5083 734.078 53.414C734.391 53.3258 734.781 53.2977 735.162 53.3571C735.551 53.4177 735.794 53.5475 735.902 53.652C735.934 53.6822 735.947 53.7036 735.953 53.7143C735.952 53.7157 735.951 53.7175 735.95 53.7195Z" stroke="#008080" stroke-opacity="0.1"/>
<path d="M740.144 57.682L726.086 55.4934L724.192 58.7989L738.249 60.9875L740.144 57.682Z" stroke="#008080" stroke-opacity="0.1" stroke-width="4" stroke-miterlimit="10" stroke-linecap="round"/>
<path d="M718.979 58.1764L743.246 61.955" stroke="#008080" stroke-opacity="0.1" stroke-width="4" stroke-miterlimit="10" stroke-linecap="round"/>
<path d="M1240.41 33.1801C1255.96 33.1801 1268.58 30.0638 1268.58 26.2196C1268.58 22.3754 1255.96 19.259 1240.41 19.259C1224.85 19.259 1212.23 22.3754 1212.23 26.2196C1212.23 30.0638 1224.85 33.1801 1240.41 33.1801Z" stroke="#008080" stroke-opacity="0.1" stroke-width="3" stroke-miterlimit="10" stroke-linecap="round" stroke-linejoin="round"/>
<path d="M1251.8 29.8478C1259.89 22.9211 1261.34 15.6854 1255.04 13.6865C1248.74 11.6875 1237.08 15.6822 1228.99 22.6089C1220.9 29.5356 1219.45 36.7713 1225.75 38.7702C1232.04 40.7692 1243.71 36.7745 1251.8 29.8478Z" stroke="#008080" stroke-opacity="0.1" stroke-width="3" stroke-miterlimit="10" stroke-linecap="round" stroke-linejoin="round"/>
<path d="M1255.04 38.7669C1261.33 36.7679 1259.88 29.5322 1251.79 22.6055C1243.7 15.6788 1232.04 11.6842 1225.74 13.6831C1219.44 15.6821 1220.89 22.9178 1228.98 29.8445C1237.07 36.7712 1248.74 40.7659 1255.04 38.7669Z" stroke="#008080" stroke-opacity="0.1" stroke-width="3" stroke-miterlimit="10" stroke-linecap="round" stroke-linejoin="round"/>
<path d="M1240.41 28.0628C1242.36 28.0628 1243.94 27.2379 1243.94 26.2203C1243.94 25.2026 1242.36 24.3777 1240.41 24.3777C1238.45 24.3777 1236.87 25.2026 1236.87 26.2203C1236.87 27.2379 1238.45 28.0628 1240.41 28.0628Z" stroke="#008080" stroke-opacity="0.1" stroke-width="3" stroke-miterlimit="10" stroke-linecap="round" stroke-linejoin="round"/>
<path d="M1250.32 245.896L1227.05 248.695L1226.01 246.332C1225.77 245.784 1226.42 245.238 1227.47 245.111L1246.93 242.768C1247.98 242.643 1249.03 242.982 1249.27 243.53L1250.32 245.896Z" stroke="#008080" stroke-opacity="0.1" stroke-width="3" stroke-miterlimit="10" stroke-linecap="round"/>
<path d="M1242.67 233.186C1252.92 228.876 1254.53 221.05 1246.27 215.706C1238 210.361 1222.98 209.522 1212.73 213.831C1202.48 218.141 1200.87 225.967 1209.14 231.311C1217.4 236.656 1232.42 237.495 1242.67 233.186Z" stroke="#008080" stroke-opacity="0.1" stroke-width="3" stroke-miterlimit="10"/>
<path d="M1238.8 234.506L1216.56 212.515L1213.78 209.846C1199.28 213.83 1193.73 223.185 1201.37 230.742C1209.01 238.299 1226.96 241.195 1241.46 237.212L1238.74 234.525" stroke="#008080" stroke-opacity="0.1" stroke-width="3" stroke-miterlimit="10" stroke-linecap="round" stroke-linejoin="round"/>
<path d="M1221.46 217.334C1228.74 215.333 1233.55 212.629 1232.2 211.294C1230.85 209.96 1223.85 210.5 1216.57 212.502C1209.29 214.503 1204.48 217.207 1205.83 218.541C1207.18 219.875 1214.18 219.335 1221.46 217.334Z" stroke="#008080" stroke-opacity="0.1" stroke-width="3" stroke-miterlimit="10"/>
<path d="M1223.17 235.714C1228.31 236.23 1233.81 235.878 1238.8 234.506C1243.79 233.134 1247.46 230.968 1249.54 228.467C1244.41 227.95 1238.9 228.302 1233.92 229.675C1228.92 231.047 1225.26 233.212 1223.17 235.714Z" stroke="#008080" stroke-opacity="0.1" stroke-width="3" stroke-miterlimit="10"/>
<path d="M1238.82 234.492C1244.64 232.891 1244.38 226.671 1238.24 220.598C1232.1 214.525 1222.4 210.9 1216.57 212.5C1210.75 214.101 1211.01 220.321 1217.15 226.394C1223.29 232.467 1232.99 236.093 1238.82 234.492Z" stroke="#008080" stroke-opacity="0.1" stroke-width="3" stroke-miterlimit="10"/>
<path d="M1206.58 229.307L1248.77 217.714" stroke="#008080" stroke-opacity="0.1" stroke-width="3" stroke-miterlimit="10"/>
<path d="M1234.61 238.565L1237.07 243.918" stroke="#008080" stroke-opacity="0.1" stroke-width="3" stroke-miterlimit="10"/>
<path d="M1224.26 249.193L1253.91 245.486" stroke="#008080" stroke-opacity="0.1" stroke-width="3" stroke-miterlimit="10" stroke-linecap="round"/>
<path d="M1266.23 168.279L1278.64 161.81L1244.25 143.885L1231.84 150.354L1266.23 168.279Z" stroke="#008080" stroke-opacity="0.1" stroke-width="3" stroke-miterlimit="10" stroke-linecap="round" stroke-linejoin="round"/>
<path d="M1282 170.03L1278.64 161.81L1266.23 168.279L1282 170.03Z" stroke="#008080" stroke-opacity="0.1" stroke-width="3" stroke-miterlimit="10" stroke-linecap="round" stroke-linejoin="round"/>
<path d="M1280.43 166.195L1274.63 169.214" stroke="#008080" stroke-opacity="0.1" stroke-width="3" stroke-miterlimit="10" stroke-linecap="round" stroke-linejoin="round"/>
<path d="M1228.19 145.423L1234.78 141.984C1236.39 141.146 1238.99 141.146 1240.6 141.984L1244.25 143.886L1231.83 150.355L1228.19 148.453C1226.58 147.616 1226.58 146.258 1228.19 145.423Z" stroke="#008080" stroke-opacity="0.1" stroke-width="3" stroke-miterlimit="10" stroke-linecap="round" stroke-linejoin="round"/>
<path d="M1247.6 145.631L1235.19 152.103" stroke="#008080" stroke-opacity="0.1" stroke-width="3" stroke-miterlimit="10" stroke-linecap="round" stroke-linejoin="round"/>
<path d="M1272.43 165.044L1241.39 148.868" stroke="#008080" stroke-opacity="0.1" stroke-width="3" stroke-miterlimit="10" stroke-linecap="round" stroke-linejoin="round"/>
<path d="M296.259 246.481L293.599 249.195" stroke="#008080" stroke-opacity="0.1" stroke-width="4" stroke-miterlimit="10" stroke-linecap="round" stroke-linejoin="round"/>
<path d="M312.839 250.272L310.179 252.986" stroke="#008080" stroke-opacity="0.1" stroke-width="4" stroke-miterlimit="10" stroke-linecap="round" stroke-linejoin="round"/>
<path d="M329.423 254.061L326.763 256.775" stroke="#008080" stroke-opacity="0.1" stroke-width="4" stroke-miterlimit="10" stroke-linecap="round" stroke-linejoin="round"/>
<path d="M285.068 243.945L283.737 245.304" stroke="#008080" stroke-opacity="0.1" stroke-width="4" stroke-miterlimit="10" stroke-linecap="round" stroke-linejoin="round"/>
<path d="M290.615 245.215L289.286 246.57" stroke="#008080" stroke-opacity="0.1" stroke-width="4" stroke-miterlimit="10" stroke-linecap="round" stroke-linejoin="round"/>
<path d="M301.681 247.742L300.35 249.101" stroke="#008080" stroke-opacity="0.1" stroke-width="4" stroke-miterlimit="10" stroke-linecap="round" stroke-linejoin="round"/>
<path d="M307.225 249.01L305.899 250.367" stroke="#008080" stroke-opacity="0.1" stroke-width="4" stroke-miterlimit="10" stroke-linecap="round" stroke-linejoin="round"/>
<path d="M318.294 251.538L316.963 252.897" stroke="#008080" stroke-opacity="0.1" stroke-width="4" stroke-miterlimit="10" stroke-linecap="round" stroke-linejoin="round"/>
<path d="M335.145 255.391L333.819 256.748" stroke="#008080" stroke-opacity="0.1" stroke-width="4" stroke-miterlimit="10" stroke-linecap="round" stroke-linejoin="round"/>
<path d="M323.838 252.806L322.512 254.163" stroke="#008080" stroke-opacity="0.1" stroke-width="4" stroke-miterlimit="10" stroke-linecap="round" stroke-linejoin="round"/>
<path d="M322.315 277.092L271.228 242.209L343.165 255.783L322.315 277.092Z" stroke="#008080" stroke-opacity="0.1" stroke-width="4" stroke-miterlimit="10" stroke-linecap="round" stroke-linejoin="round"/>
<path d="M321.948 265.616L307.972 256.073L327.649 259.784L321.948 265.616Z" stroke="#008080" stroke-opacity="0.1" stroke-width="4" stroke-miterlimit="10" stroke-linecap="round" stroke-linejoin="round"/>
<path d="M459.412 10.1377L438.775 15.3386L479.907 59.6812L500.544 54.4803L459.412 10.1377Z" stroke="#008080" stroke-opacity="0.1" stroke-width="4" stroke-miterlimit="10" stroke-linecap="round" stroke-linejoin="round"/>
<path d="M464.337 15.4595L454.023 18.0576" stroke="#008080" stroke-opacity="0.1" stroke-width="4" stroke-miterlimit="10" stroke-linecap="round" stroke-linejoin="round"/>
<path d="M473.867 25.7329L463.547 28.3348" stroke="#008080" stroke-opacity="0.1" stroke-width="4" stroke-miterlimit="10" stroke-linecap="round" stroke-linejoin="round"/>
<path d="M483.399 36.0054L473.078 38.6073" stroke="#008080" stroke-opacity="0.1" stroke-width="4" stroke-miterlimit="10" stroke-linecap="round" stroke-linejoin="round"/>
<path d="M492.923 46.2827L482.609 48.8809" stroke="#008080" stroke-opacity="0.1" stroke-width="4" stroke-miterlimit="10" stroke-linecap="round" stroke-linejoin="round"/>
<path d="M467.493 18.8619L462.336 20.1592" stroke="#008080" stroke-opacity="0.1" stroke-width="4" stroke-miterlimit="10" stroke-linecap="round" stroke-linejoin="round"/>
<path d="M470.676 22.2971L465.52 23.5981" stroke="#008080" stroke-opacity="0.1" stroke-width="4" stroke-miterlimit="10" stroke-linecap="round" stroke-linejoin="round"/>
<path d="M477.038 29.1531L471.881 30.4503" stroke="#008080" stroke-opacity="0.1" stroke-width="4" stroke-miterlimit="10" stroke-linecap="round" stroke-linejoin="round"/>
<path d="M480.223 32.5889L475.066 33.8898" stroke="#008080" stroke-opacity="0.1" stroke-width="4" stroke-miterlimit="10" stroke-linecap="round" stroke-linejoin="round"/>
<path d="M486.582 39.4448L481.426 40.742" stroke="#008080" stroke-opacity="0.1" stroke-width="4" stroke-miterlimit="10" stroke-linecap="round" stroke-linejoin="round"/>
<path d="M489.775 42.8804L484.611 44.1813" stroke="#008080" stroke-opacity="0.1" stroke-width="4" stroke-miterlimit="10" stroke-linecap="round" stroke-linejoin="round"/>
<path d="M29.2542 234.677L6.85601 240.161C5.65828 240.456 4.23109 240.187 3.6645 239.563L2.23009 237.97C1.6635 237.346 2.17987 236.602 3.3776 236.307L25.7758 230.823C26.9735 230.527 28.4008 230.797 28.9674 231.421L30.4018 233.013C30.9684 233.641 30.4519 234.385 29.2542 234.677Z" stroke="#008080" stroke-opacity="0.2" stroke-width="4" stroke-miterlimit="10" stroke-linecap="round"/>
<path d="M37.9537 247.133L26.9949 235.238L9.26562 239.675L20.2245 251.571L27.1383 271.474C29.4118 273.945 35.0992 274.984 39.8327 273.799L58.9749 269.006C63.7156 267.821 65.7094 264.857 63.4359 262.389L37.9537 247.133Z" stroke="#008080" stroke-opacity="0.2" stroke-width="4" stroke-miterlimit="10" stroke-linecap="round"/>
<path d="M23.3359 260.546C23.3359 260.546 26.9937 257.458 36.7189 257.634C46.4442 257.81 48.0794 253.193 48.0794 253.193" stroke="#008080" stroke-opacity="0.2" stroke-width="4" stroke-miterlimit="10" stroke-linecap="round"/>
<path d="M60.4368 42.2738C68.945 42.2738 75.8422 38.6786 75.8422 34.2438C75.8422 29.8089 68.945 26.2137 60.4368 26.2137C51.9286 26.2137 45.0312 29.8089 45.0312 34.2438C45.0312 38.6786 51.9286 42.2738 60.4368 42.2738Z" stroke="#008080" stroke-opacity="0.2" stroke-width="4" stroke-miterlimit="10" stroke-linecap="round" stroke-linejoin="round"/>
<path d="M82.0319 50.2066C85.4344 50.2066 88.1926 48.7688 88.1926 46.9953C88.1926 45.2218 85.4344 43.7841 82.0319 43.7841C78.6294 43.7841 75.8711 45.2218 75.8711 46.9953C75.8711 48.7688 78.6294 50.2066 82.0319 50.2066Z" stroke="#008080" stroke-opacity="0.2" stroke-width="4" stroke-miterlimit="10" stroke-linecap="round" stroke-linejoin="round"/>
</svg>