<svg width="28" height="28" viewBox="0 0 28 28" fill="none" xmlns="http://www.w3.org/2000/svg">
<path d="M14.1173 21.6417L14.0007 21.7583L13.8723 21.6417C8.33065 16.6133 4.66732 13.2883 4.66732 9.91667C4.66732 7.58333 6.41732 5.83333 8.75065 5.83333C10.5473 5.83333 12.2973 7 12.9157 8.58667H15.0857C15.704 7 17.454 5.83333 19.2507 5.83333C21.584 5.83333 23.334 7.58333 23.334 9.91667C23.334 13.2883 19.6707 16.6133 14.1173 21.6417ZM19.2507 3.5C17.2207 3.5 15.2723 4.445 14.0007 5.92667C12.729 4.445 10.7807 3.5 8.75065 3.5C5.15732 3.5 2.33398 6.31167 2.33398 9.91667C2.33398 14.315 6.30065 17.92 12.309 23.3683L14.0007 24.9083L15.6923 23.3683C21.7007 17.92 25.6673 14.315 25.6673 9.91667C25.6673 6.31167 22.844 3.5 19.2507 3.5Z" fill="black"/>
</svg>
