<svg width="30" height="31" viewBox="0 0 30 31" fill="none" xmlns="http://www.w3.org/2000/svg">
<path fill-rule="evenodd" clip-rule="evenodd" d="M24.1071 16.2481C24.9909 15.3504 25.4819 14.1383 25.4721 12.8785C25.4622 11.6187 24.9523 10.4145 24.0546 9.53063C23.6101 9.093 23.0837 8.74721 22.5055 8.513C21.9274 8.2788 21.3087 8.16076 20.685 8.16564C19.4252 8.17548 18.2209 8.68537 17.3371 9.58313C17.0971 9.82313 16.7921 10.1177 16.4221 10.4669L15.3933 11.4356L14.3646 10.4669C13.9937 10.1169 13.6883 9.82229 13.4483 9.58313C12.5575 8.69233 11.3494 8.19189 10.0896 8.19189C8.82981 8.19189 7.62163 8.69233 6.73083 9.58313C4.89583 11.4194 4.87458 14.3881 6.66333 16.2331L15.3933 24.9631L24.1071 16.2481ZM5.66958 8.52313C6.24997 7.94259 6.93904 7.48207 7.69743 7.16787C8.45582 6.85368 9.26868 6.69196 10.0896 6.69196C10.9105 6.69196 11.7233 6.85368 12.4817 7.16787C13.2401 7.48207 13.9292 7.94259 14.5096 8.52313C14.7371 8.75146 15.0317 9.03563 15.3933 9.37563C15.7533 9.03563 16.0479 8.75104 16.2771 8.52188C17.4402 7.34083 19.0249 6.67022 20.6825 6.65756C22.3401 6.6449 23.9348 7.29124 25.1158 8.45438C26.2969 9.61752 26.9675 11.2022 26.9801 12.8598C26.9928 14.5174 26.3465 16.1121 25.1833 17.2931L16.2771 26.2006C16.0427 26.435 15.7248 26.5666 15.3933 26.5666C15.0619 26.5666 14.744 26.435 14.5096 26.2006L5.60083 17.2919C4.45838 16.1136 3.82522 14.5333 3.83808 12.8922C3.85095 11.251 4.5088 9.68082 5.66958 8.52063V8.52313Z" fill="white"/>
</svg>
