<svg width="67" height="66" viewBox="0 0 67 66" fill="none" xmlns="http://www.w3.org/2000/svg">
<rect x="0.5" y="0.5" width="66" height="65" rx="10" fill="#D4E5E4"/>
<path d="M33.5 41.75C32.5717 41.75 31.6815 41.3813 31.0251 40.7249C30.3687 40.0685 30 39.1783 30 38.25C30 36.3075 31.5575 34.75 33.5 34.75C34.4283 34.75 35.3185 35.1187 35.9749 35.7751C36.6313 36.4315 37 37.3217 37 38.25C37 39.1783 36.6313 40.0685 35.9749 40.7249C35.3185 41.3813 34.4283 41.75 33.5 41.75ZM44 47V29.5H23V47H44ZM44 26C44.9283 26 45.8185 26.3687 46.4749 27.0251C47.1313 27.6815 47.5 28.5717 47.5 29.5V47C47.5 47.9283 47.1313 48.8185 46.4749 49.4749C45.8185 50.1312 44.9283 50.5 44 50.5H23C22.0717 50.5 21.1815 50.1312 20.5251 49.4749C19.8687 48.8185 19.5 47.9283 19.5 47V29.5C19.5 27.5575 21.0575 26 23 26H24.75V22.5C24.75 20.1794 25.6719 17.9538 27.3128 16.3128C28.9538 14.6719 31.1794 13.75 33.5 13.75C34.6491 13.75 35.7869 13.9763 36.8485 14.4161C37.9101 14.8558 38.8747 15.5003 39.6872 16.3128C40.4997 17.1253 41.1442 18.0899 41.5839 19.1515C42.0237 20.2131 42.25 21.3509 42.25 22.5V26H44ZM33.5 17.25C32.1076 17.25 30.7723 17.8031 29.7877 18.7877C28.8031 19.7723 28.25 21.1076 28.25 22.5V26H38.75V22.5C38.75 21.1076 38.1969 19.7723 37.2123 18.7877C36.2277 17.8031 34.8924 17.25 33.5 17.25Z" fill="black"/>
</svg>
