<svg width="172" height="71" viewBox="0 0 172 71" fill="none" xmlns="http://www.w3.org/2000/svg">
<path d="M23.7567 43.8946H10.3246L5 17.8828H17.814L18.4947 24.7052L19.1141 17.8828H29.762L30.4427 24.7052L31.186 17.8828H44L38.6141 43.8946H25.1807L24.4387 40.5501L23.7567 43.8946ZM6.30017 18.6747L11.3144 43.1027H22.8907L24.5 35.1798L26.1718 43.1027H37.6856L42.6998 18.6747H32.1759L30.3814 30.515L28.7096 18.6747H20.2291L18.4947 30.515L16.7616 18.6747H6.30017ZM22.3339 42.7068H11.8099L6.91959 19.0715H16.2673L18.5573 34.6958L20.7234 19.0715H28.214L30.3814 34.6958L32.6714 19.0715H42.0191L37.1288 42.7068H26.6661L24.4387 32.4074L22.3339 42.7068Z" fill="#008080"/>
<mask id="path-2-inside-1_1081_715" fill="white">
<path d="M78.9439 29.3226L78.0973 33.1412H77.2605C77.0615 32.6201 76.9103 32.2237 76.8068 31.9521C76.7047 31.6805 76.5953 31.3633 76.4788 31.0006C76.4015 31.2363 76.3302 31.4494 76.2647 31.64C76.1992 31.8306 76.0067 32.331 75.6872 33.1412H74.8485L74 29.3226H74.7601L75.2001 31.6856C75.242 31.9333 75.2859 32.2596 75.3317 32.6648C75.4181 32.4042 75.4902 32.1892 75.5478 32.0198C75.6054 31.8495 75.7979 31.3445 76.1253 30.5048H76.8304C77.015 30.9826 77.1604 31.3583 77.2664 31.6317C77.3725 31.9052 77.491 32.2495 77.622 32.6648L77.7634 31.6856L78.1817 29.3226H78.9439ZM84.5045 33.1412H80.6409V29.3226H84.3395V29.7631H81.4089V30.9578H84.0979V31.3942H81.4089V32.6993H84.5045V33.1412ZM90.6111 32.0654C90.6111 32.4051 90.4278 32.6694 90.0611 32.8581C89.6932 33.0469 89.1818 33.1412 88.5271 33.1412H86.6258V29.3226H88.2855C89.6159 29.3226 90.2811 29.631 90.2811 30.2479C90.2811 30.4781 90.1849 30.6705 89.9924 30.8252C89.7986 30.9799 89.5354 31.0807 89.2028 31.1276C89.6506 31.1617 89.9977 31.263 90.2438 31.4315C90.4887 31.599 90.6111 31.8103 90.6111 32.0654ZM89.5092 30.3156C89.5092 30.1139 89.4077 29.9703 89.2048 29.8847C89.0018 29.7981 88.698 29.7548 88.2934 29.7548H87.3957V30.9329H88.3012C89.1066 30.9329 89.5092 30.7271 89.5092 30.3156ZM89.8353 32.017C89.8353 31.8016 89.7155 31.6372 89.4758 31.524C89.2375 31.4107 88.882 31.3541 88.4093 31.3541H87.3957V32.7076H88.4662C88.9363 32.7076 89.282 32.6505 89.5033 32.5363C89.7246 32.4221 89.8353 32.2491 89.8353 32.017ZM96.3917 31.1456V32.7642C95.7763 33.0533 95.1563 33.1979 94.5316 33.1979C93.8599 33.1979 93.3387 33.0225 92.9682 32.6717C92.5989 32.3218 92.4142 31.8357 92.4142 31.2133C92.4142 30.5586 92.591 30.0697 92.9446 29.7466C93.2994 29.4243 93.8324 29.2632 94.5434 29.2632C95.4718 29.2632 96.0906 29.5753 96.3996 30.1995L95.7102 30.3584C95.4954 29.922 95.1091 29.7037 94.5513 29.7037C94.0982 29.7037 93.7636 29.823 93.5476 30.0614C93.3315 30.299 93.2235 30.6829 93.2235 31.2133C93.2235 32.2435 93.6805 32.7587 94.5945 32.7587C94.7778 32.7587 94.967 32.7389 95.1621 32.6993C95.3586 32.6597 95.5183 32.6095 95.6414 32.5487V31.5986H94.4629V31.1456H96.3917ZM102.683 33.1412H101.797L100.324 31.5129H99.3655V33.1412H98.5975V29.3226H100.538C101.163 29.3226 101.639 29.4137 101.966 29.596C102.293 29.7774 102.457 30.038 102.457 30.3777C102.457 30.6594 102.332 30.8965 102.082 31.089C101.831 31.2814 101.494 31.402 101.072 31.4508L102.683 33.1412ZM101.685 30.386C101.685 29.9652 101.277 29.7548 100.462 29.7548H99.3655V31.0862H100.493C100.877 31.0862 101.171 31.0254 101.377 30.9039C101.582 30.7833 101.685 30.6106 101.685 30.386ZM108.464 31.2133C108.464 31.8485 108.286 32.3379 107.931 32.6813C107.575 33.0257 107.064 33.1979 106.399 33.1979C105.73 33.1979 105.22 33.0289 104.869 32.691C104.518 32.3531 104.343 31.8605 104.343 31.2133C104.343 30.577 104.517 30.0927 104.865 29.7604C105.214 29.4289 105.727 29.2632 106.407 29.2632C107.07 29.2632 107.578 29.4266 107.933 29.7535C108.287 30.0812 108.464 30.5678 108.464 31.2133ZM107.654 31.2133C107.654 30.2069 107.239 29.7037 106.407 29.7037C105.569 29.7037 105.15 30.2069 105.15 31.2133C105.15 31.7224 105.256 32.1073 105.468 32.3678C105.68 32.6284 105.992 32.7587 106.403 32.7587C106.841 32.7587 107.159 32.6266 107.358 32.3623C107.556 32.0981 107.654 31.715 107.654 31.2133ZM114.861 29.3226L114.016 33.1412H113.178C112.98 32.6201 112.829 32.2237 112.726 31.9521C112.622 31.6805 112.513 31.3633 112.398 31.0006C112.319 31.2363 112.247 31.4494 112.182 31.64C112.116 31.8306 111.924 32.331 111.604 33.1412H110.768L109.917 29.3226H110.679L111.117 31.6856C111.16 31.9333 111.205 32.2596 111.251 32.6648C111.336 32.4042 111.407 32.1892 111.465 32.0198C111.523 31.8495 111.715 31.3445 112.042 30.5048H112.748C112.932 30.9826 113.077 31.3583 113.184 31.6317C113.29 31.9052 113.409 32.2495 113.541 32.6648L113.681 31.6856L114.101 29.3226H114.861Z"/>
</mask>
<path d="M78.9439 29.3226L78.0973 33.1412H77.2605C77.0615 32.6201 76.9103 32.2237 76.8068 31.9521C76.7047 31.6805 76.5953 31.3633 76.4788 31.0006C76.4015 31.2363 76.3302 31.4494 76.2647 31.64C76.1992 31.8306 76.0067 32.331 75.6872 33.1412H74.8485L74 29.3226H74.7601L75.2001 31.6856C75.242 31.9333 75.2859 32.2596 75.3317 32.6648C75.4181 32.4042 75.4902 32.1892 75.5478 32.0198C75.6054 31.8495 75.7979 31.3445 76.1253 30.5048H76.8304C77.015 30.9826 77.1604 31.3583 77.2664 31.6317C77.3725 31.9052 77.491 32.2495 77.622 32.6648L77.7634 31.6856L78.1817 29.3226H78.9439ZM84.5045 33.1412H80.6409V29.3226H84.3395V29.7631H81.4089V30.9578H84.0979V31.3942H81.4089V32.6993H84.5045V33.1412ZM90.6111 32.0654C90.6111 32.4051 90.4278 32.6694 90.0611 32.8581C89.6932 33.0469 89.1818 33.1412 88.5271 33.1412H86.6258V29.3226H88.2855C89.6159 29.3226 90.2811 29.631 90.2811 30.2479C90.2811 30.4781 90.1849 30.6705 89.9924 30.8252C89.7986 30.9799 89.5354 31.0807 89.2028 31.1276C89.6506 31.1617 89.9977 31.263 90.2438 31.4315C90.4887 31.599 90.6111 31.8103 90.6111 32.0654ZM89.5092 30.3156C89.5092 30.1139 89.4077 29.9703 89.2048 29.8847C89.0018 29.7981 88.698 29.7548 88.2934 29.7548H87.3957V30.9329H88.3012C89.1066 30.9329 89.5092 30.7271 89.5092 30.3156ZM89.8353 32.017C89.8353 31.8016 89.7155 31.6372 89.4758 31.524C89.2375 31.4107 88.882 31.3541 88.4093 31.3541H87.3957V32.7076H88.4662C88.9363 32.7076 89.282 32.6505 89.5033 32.5363C89.7246 32.4221 89.8353 32.2491 89.8353 32.017ZM96.3917 31.1456V32.7642C95.7763 33.0533 95.1563 33.1979 94.5316 33.1979C93.8599 33.1979 93.3387 33.0225 92.9682 32.6717C92.5989 32.3218 92.4142 31.8357 92.4142 31.2133C92.4142 30.5586 92.591 30.0697 92.9446 29.7466C93.2994 29.4243 93.8324 29.2632 94.5434 29.2632C95.4718 29.2632 96.0906 29.5753 96.3996 30.1995L95.7102 30.3584C95.4954 29.922 95.1091 29.7037 94.5513 29.7037C94.0982 29.7037 93.7636 29.823 93.5476 30.0614C93.3315 30.299 93.2235 30.6829 93.2235 31.2133C93.2235 32.2435 93.6805 32.7587 94.5945 32.7587C94.7778 32.7587 94.967 32.7389 95.1621 32.6993C95.3586 32.6597 95.5183 32.6095 95.6414 32.5487V31.5986H94.4629V31.1456H96.3917ZM102.683 33.1412H101.797L100.324 31.5129H99.3655V33.1412H98.5975V29.3226H100.538C101.163 29.3226 101.639 29.4137 101.966 29.596C102.293 29.7774 102.457 30.038 102.457 30.3777C102.457 30.6594 102.332 30.8965 102.082 31.089C101.831 31.2814 101.494 31.402 101.072 31.4508L102.683 33.1412ZM101.685 30.386C101.685 29.9652 101.277 29.7548 100.462 29.7548H99.3655V31.0862H100.493C100.877 31.0862 101.171 31.0254 101.377 30.9039C101.582 30.7833 101.685 30.6106 101.685 30.386ZM108.464 31.2133C108.464 31.8485 108.286 32.3379 107.931 32.6813C107.575 33.0257 107.064 33.1979 106.399 33.1979C105.73 33.1979 105.22 33.0289 104.869 32.691C104.518 32.3531 104.343 31.8605 104.343 31.2133C104.343 30.577 104.517 30.0927 104.865 29.7604C105.214 29.4289 105.727 29.2632 106.407 29.2632C107.07 29.2632 107.578 29.4266 107.933 29.7535C108.287 30.0812 108.464 30.5678 108.464 31.2133ZM107.654 31.2133C107.654 30.2069 107.239 29.7037 106.407 29.7037C105.569 29.7037 105.15 30.2069 105.15 31.2133C105.15 31.7224 105.256 32.1073 105.468 32.3678C105.68 32.6284 105.992 32.7587 106.403 32.7587C106.841 32.7587 107.159 32.6266 107.358 32.3623C107.556 32.0981 107.654 31.715 107.654 31.2133ZM114.861 29.3226L114.016 33.1412H113.178C112.98 32.6201 112.829 32.2237 112.726 31.9521C112.622 31.6805 112.513 31.3633 112.398 31.0006C112.319 31.2363 112.247 31.4494 112.182 31.64C112.116 31.8306 111.924 32.331 111.604 33.1412H110.768L109.917 29.3226H110.679L111.117 31.6856C111.16 31.9333 111.205 32.2596 111.251 32.6648C111.336 32.4042 111.407 32.1892 111.465 32.0198C111.523 31.8495 111.715 31.3445 112.042 30.5048H112.748C112.932 30.9826 113.077 31.3583 113.184 31.6317C113.29 31.9052 113.409 32.2495 113.541 32.6648L113.681 31.6856L114.101 29.3226H114.861Z" fill="white" stroke="white" stroke-width="2" mask="url(#path-2-inside-1_1081_715)"/>
<path d="M60.8633 43.0542V50.9995H45.125V46.8745H47.3867V36.48H45.125V32.355H60.8633V39.7729H57.8633L56.7383 36.48H53.3867V39.5269H56.3867V42.5972H53.3867V46.8745H56.7383L57.8633 43.0542H60.8633ZM72.2422 50.9995H61.7305V46.8745H63.9922V36.48H62.0469V32.3315H71.5742C73.1211 32.3315 74.4414 32.4565 75.5352 32.7065C76.6055 32.9644 77.457 33.4565 78.0898 34.1831C78.7227 34.9019 79.0391 35.9214 79.0391 37.2417C79.0391 38.1714 78.7695 38.98 78.2305 39.6675C77.6914 40.355 77.0078 40.8511 76.1797 41.1558C77.2656 41.6245 78.0664 42.23 78.582 42.9722C79.1055 43.7144 79.3672 44.7339 79.3672 46.0308C79.3672 47.6167 78.7461 48.8433 77.5039 49.7104C76.2695 50.5698 74.5156 50.9995 72.2422 50.9995ZM69.9922 36.48V39.8667H70.6367C71.5273 39.8667 72.1836 39.7417 72.6055 39.4917C73.0352 39.2417 73.25 38.7729 73.25 38.0854C73.25 37.6089 73.1016 37.2222 72.8047 36.9253C72.5078 36.6284 72.1211 36.48 71.6445 36.48H69.9922ZM69.9922 42.937V46.8745H70.4141C71.3594 46.8745 72.0859 46.7417 72.5938 46.4761C73.1094 46.2104 73.3672 45.6636 73.3672 44.8354C73.3672 43.5542 72.5859 42.9136 71.0234 42.9136C70.8516 42.9136 70.6797 42.9175 70.5078 42.9253C70.3359 42.9253 70.1641 42.9292 69.9922 42.937ZM91.8828 51.3394C89.9688 51.3394 88.2305 50.9839 86.668 50.2729C85.0898 49.5698 83.8281 48.4761 82.8828 46.9917C81.9375 45.5073 81.4648 43.6362 81.4648 41.3784C81.4648 39.5815 81.8359 37.9722 82.5781 36.5503C83.3203 35.1284 84.3984 34.0151 85.8125 33.2104C87.2344 32.3979 88.9062 31.9917 90.8281 31.9917C91.6406 31.9917 92.4297 32.1284 93.1953 32.4019C93.9688 32.6753 94.5781 33.0737 95.0234 33.5972L95.4102 32.355H99.4648V39.2339H95.8438C95.6016 38.2495 95.1367 37.5034 94.4492 36.9956C93.7617 36.4878 93.043 36.2339 92.293 36.2339C91.043 36.2339 90.0547 36.6909 89.3281 37.605C88.6016 38.519 88.2383 39.7769 88.2383 41.3784C88.2383 42.9956 88.5977 44.2651 89.3164 45.187C90.0352 46.1011 91.0508 46.5581 92.3633 46.5581C92.6758 46.5581 93.0117 46.5269 93.3711 46.4644C93.6367 46.4175 93.8867 46.355 94.1211 46.2769C94.3555 46.1909 94.5117 46.1401 94.5898 46.1245V44.4722H92.3398V40.9917H99.8516V49.3706C98.6484 50.0112 97.3594 50.4995 95.9844 50.8354C94.6094 51.1714 93.2422 51.3394 91.8828 51.3394ZM112.156 50.9995H102.418V46.8745H104.293V36.48H102.418V32.355H114.395C116.332 32.355 117.754 32.7456 118.66 33.5269C119.574 34.3081 120.031 35.605 120.031 37.4175C120.031 38.6284 119.691 39.562 119.012 40.2183C118.332 40.8745 117.367 41.3159 116.117 41.5425C117.242 41.7222 118.051 42.144 118.543 42.8081C119.043 43.4722 119.293 44.3003 119.293 45.2925V46.8042H121.906V50.9995H118.133C117.328 50.9995 116.68 50.9722 116.188 50.9175C115.695 50.855 115.305 50.7144 115.016 50.4956C114.734 50.269 114.5 49.9175 114.312 49.4409C114.031 48.7222 113.891 47.5229 113.891 45.8433C113.891 44.8823 113.734 44.1714 113.422 43.7104C113.109 43.2417 112.539 43.0073 111.711 43.0073H110.293V46.8745H112.156V50.9995ZM110.293 36.48V40.3472H111.898C112.75 40.3472 113.383 40.1948 113.797 39.8901C114.211 39.5854 114.418 39.0503 114.418 38.2847C114.418 37.7222 114.203 37.2808 113.773 36.9604C113.352 36.6401 112.805 36.48 112.133 36.48H110.293ZM131.398 51.3394C129.453 51.3394 127.77 50.9214 126.348 50.0854C124.934 49.2495 123.855 48.1011 123.113 46.6401C122.379 45.1792 122.012 43.5112 122.012 41.6362C122.012 39.6909 122.379 37.9956 123.113 36.5503C123.848 35.0972 124.918 33.9761 126.324 33.187C127.738 32.3901 129.43 31.9917 131.398 31.9917C133.359 31.9917 135.047 32.3862 136.461 33.1753C137.867 33.9722 138.938 35.0972 139.672 36.5503C140.414 38.0034 140.785 39.6987 140.785 41.6362C140.785 43.5112 140.418 45.1792 139.684 46.6401C138.949 48.1011 137.871 49.2495 136.449 50.0854C135.035 50.9214 133.352 51.3394 131.398 51.3394ZM131.398 47.1792C132.242 47.1792 132.887 46.6675 133.332 45.644C133.785 44.6206 134.012 43.2534 134.012 41.5425C134.012 39.8784 133.793 38.562 133.355 37.5933C132.926 36.6245 132.273 36.1401 131.398 36.1401C130.516 36.1401 129.859 36.6245 129.43 37.5933C129 38.562 128.785 39.8784 128.785 41.5425C128.785 43.2534 129.008 44.6206 129.453 45.644C129.898 46.6675 130.547 47.1792 131.398 47.1792ZM156.746 42.7144L154.379 50.9995H148.086L144.008 36.48H142.086V32.3315H152.527V36.48H150.746L152.621 43.1245L155.668 32.3315H160.473L163.426 42.7729L165.242 36.48H163.613V32.3315H171.348V36.48H169.379L165.371 50.9995H159.008L156.746 42.7144Z" fill="#008080"/>
</svg>
