<svg width="175" height="23" viewBox="0 0 175 23" fill="none" xmlns="http://www.w3.org/2000/svg">
<path d="M7.44005 22.3683L3.02761 5.76369H0.951172V1.01559H12.2418V5.76369H10.3211L12.3456 13.3661L15.642 1.01559H20.8331L24.0256 12.9545L25.9982 5.76369H24.2333V1.01559H32.5909V5.76369H30.4626L26.128 22.3683H19.2498L16.81 12.8996L14.2404 22.3683H7.44005ZM34.7723 22.3683V17.6477H37.2121V5.76369H34.7723V1.04303H51.7991V9.52375H48.5547L47.3348 5.76369H43.701V9.24929H46.9455V12.7623H43.701V17.6477H47.3348L48.5547 13.2838H51.7991V22.3683H34.7723ZM53.0717 17.6477H55.5115V5.76369H53.4091V1.01559H63.7134C65.4092 1.01559 66.8367 1.16196 67.9961 1.45472C69.1554 1.74747 70.0769 2.30553 70.7603 3.12891C71.4438 3.95228 71.7856 5.12329 71.7856 6.64195C71.7856 7.70319 71.4957 8.62719 70.9161 9.41397C70.3364 10.2007 69.5967 10.768 68.6969 11.1156C69.8735 11.6462 70.743 12.3369 71.3054 13.1877C71.8678 14.0386 72.149 15.205 72.149 16.6871C72.149 18.4985 71.4784 19.8982 70.1374 20.8863C68.7964 21.8743 66.8973 22.3683 64.4402 22.3683H53.0717V17.6477ZM62.7012 9.63353C63.6702 9.63353 64.3839 9.49173 64.8425 9.20812C65.301 8.92452 65.5303 8.38933 65.5303 7.60255C65.5303 7.05364 65.3703 6.60993 65.0501 6.27144C64.73 5.93294 64.3104 5.76369 63.7913 5.76369H62.0004V9.63353H62.7012ZM62.4676 17.6477C63.4885 17.6477 64.2758 17.4967 64.8295 17.1948C65.3832 16.8929 65.6601 16.2662 65.6601 15.3148C65.6601 13.851 64.8122 13.1191 63.1164 13.1191C62.7358 13.1191 62.3637 13.1283 62.0004 13.1466V17.6477H62.4676ZM80.365 21.545C78.6605 20.7399 77.2979 19.4865 76.277 17.7849C75.2561 16.0833 74.7456 13.9425 74.7456 11.3626C74.7456 9.31333 75.1479 7.47447 75.9525 5.84603C76.7571 4.21758 77.9251 2.94136 79.4565 2.01735C80.9879 1.09335 82.7918 0.631348 84.8682 0.631348C85.7507 0.631348 86.6072 0.786873 87.4378 1.09792C88.2684 1.40898 88.9259 1.8664 89.4104 2.47021L89.8257 1.04303H94.2122V8.91994H90.2929C90.0334 7.78552 89.5316 6.93013 88.7875 6.35377C88.0434 5.77741 87.2648 5.48923 86.4515 5.48923C85.1018 5.48923 84.0333 6.0107 83.246 7.05364C82.4587 8.09657 82.065 9.5329 82.065 11.3626C82.065 13.2106 82.4544 14.6607 83.233 15.7128C84.0117 16.7648 85.1105 17.2909 86.5294 17.2909C86.8928 17.2909 87.2561 17.2543 87.6195 17.1811C87.9829 17.1079 88.2771 17.0301 88.502 16.9478C88.727 16.8655 88.874 16.8152 88.9432 16.7969V14.9031H86.5034V10.9235H94.6275V20.502C93.3297 21.2339 91.9368 21.792 90.4487 22.1762C88.9605 22.5604 87.4811 22.7526 86.0103 22.7526C83.9511 22.7526 82.0694 22.35 80.365 21.545ZM97.7428 17.6477H99.7673V5.76369H97.7428V1.04303H110.695C112.788 1.04303 114.328 1.49131 115.315 2.38787C116.301 3.28443 116.794 4.7665 116.794 6.83407C116.794 8.22465 116.426 9.29504 115.691 10.0452C114.956 10.7954 113.913 11.2986 112.563 11.5547C113.775 11.756 114.648 12.2363 115.185 12.9956C115.721 13.755 115.989 14.7018 115.989 15.8363V17.5653H118.819V22.3683H114.744C113.429 22.3683 112.485 22.2768 111.914 22.0939C111.343 21.9109 110.907 21.4077 110.604 20.5844C110.301 19.761 110.149 18.3887 110.149 16.4675C110.149 15.3697 109.981 14.5555 109.643 14.0248C109.306 13.4942 108.687 13.2289 107.788 13.2289H106.256V17.6477H108.281V22.3683H97.7428V17.6477ZM107.995 10.1824C108.912 10.1824 109.596 10.0086 110.046 9.66098C110.496 9.31333 110.721 8.70038 110.721 7.82212C110.721 7.18172 110.491 6.67855 110.033 6.3126C109.574 5.94666 108.981 5.76369 108.255 5.76369H106.256V10.1824H107.995ZM124.491 21.3254C122.96 20.3739 121.796 19.0611 121 17.3869C120.204 15.7128 119.806 13.8053 119.806 11.6645C119.806 9.45056 120.204 7.51107 121 5.84603C121.796 4.18099 122.955 2.89562 124.478 1.98991C126.001 1.0842 127.826 0.631348 129.955 0.631348C132.083 0.631348 133.908 1.0842 135.431 1.98991C136.954 2.89562 138.113 4.18099 138.909 5.84603C139.705 7.51107 140.103 9.45056 140.103 11.6645C140.103 13.8053 139.705 15.7128 138.909 17.3869C138.113 19.0611 136.95 20.3739 135.418 21.3254C133.887 22.2768 132.066 22.7526 129.955 22.7526C127.844 22.7526 126.022 22.2768 124.491 21.3254ZM132.057 16.2479C132.541 15.0769 132.784 13.5125 132.784 11.5547C132.784 9.65183 132.55 8.14689 132.083 7.03992C131.616 5.93294 130.906 5.37945 129.955 5.37945C129.003 5.37945 128.293 5.93294 127.826 7.03992C127.359 8.14689 127.125 9.65183 127.125 11.5547C127.125 13.5125 127.368 15.0769 127.852 16.2479C128.337 17.419 129.037 18.0045 129.955 18.0045C130.872 18.0045 131.572 17.419 132.057 16.2479ZM148.877 22.3683L144.465 5.76369H142.388V1.01559H153.679V5.76369H151.758L153.783 13.3661L157.079 1.01559H162.27L165.463 12.9545L167.435 5.76369H165.67V1.01559H174.028V5.76369H171.9L167.565 22.3683H160.687L158.247 12.8996L155.677 22.3683H148.877Z" fill="black"/>
</svg>
