<svg width="43" height="43" viewBox="0 0 43 43" fill="none" xmlns="http://www.w3.org/2000/svg">
<rect width="43" height="43" rx="21.5" fill="#D4E5E4"/>
<path fill-rule="evenodd" clip-rule="evenodd" d="M21.5004 8.375C21.0031 8.375 20.5262 8.57254 20.1746 8.92417C19.8229 9.27581 19.6254 9.75272 19.6254 10.25V10.4375C17.5078 10.8697 15.6047 12.0203 14.2379 13.6946C12.8712 15.3688 12.125 17.4638 12.1254 19.625V27.125L9.86602 29.615C8.77289 30.8206 9.62789 32.75 11.2535 32.75H18.2529C18.582 33.32 19.0554 33.7934 19.6255 34.1225C20.1955 34.4516 20.8422 34.6248 21.5004 34.6248C22.1586 34.6248 22.8053 34.4516 23.3753 34.1225C23.9454 33.7934 24.4187 33.32 24.7479 32.75H31.7473C33.3729 32.75 34.2279 30.8187 33.1348 29.615L30.8754 27.125V19.625C30.8758 17.4638 30.1295 15.3688 28.7628 13.6946C27.3961 12.0203 25.493 10.8697 23.3754 10.4375V10.25C23.3754 9.75272 23.1778 9.27581 22.8262 8.92417C22.4746 8.57254 21.9977 8.375 21.5004 8.375ZM14.9379 28.2125L14.2066 29.015L13.3704 29.9375H29.6304L28.7923 29.015L28.0629 28.2106V19.625C28.0629 18.7632 27.8931 17.9098 27.5634 17.1136C27.2336 16.3174 26.7502 15.594 26.1408 14.9846C25.5314 14.3752 24.808 13.8918 24.0118 13.562C23.2156 13.2322 22.3622 13.0625 21.5004 13.0625C20.6386 13.0625 19.7852 13.2322 18.989 13.562C18.1928 13.8918 17.4694 14.3752 16.86 14.9846C16.2506 15.594 15.7672 16.3174 15.4374 17.1136C15.1076 17.9098 14.9379 18.7632 14.9379 19.625V28.2125Z" fill="black"/>
</svg>
