<svg width="66" height="65" viewBox="0 0 66 65" fill="none" xmlns="http://www.w3.org/2000/svg">
<rect width="66" height="65" rx="10" fill="#D4E5E4"/>
<path d="M46.65 51.05L42.0125 46.5H23.375C20.6917 46.5 18.4167 45.5667 16.55 43.7C14.6833 41.8333 13.75 39.5583 13.75 36.875C13.75 34.635 14.4442 32.64 15.8325 30.89C17.2208 29.1283 19.0058 28.0025 21.1875 27.5125C21.2808 27.2792 21.3683 27.0517 21.45 26.83C21.5667 26.6083 21.6542 26.3692 21.7125 26.1125L14.45 18.85L16.9 16.4L49.1 48.6M23.375 43H38.5125L24.425 28.9125C24.3667 29.2392 24.3258 29.56 24.3025 29.875C24.2675 30.1433 24.25 30.435 24.25 30.75H23.375C21.6833 30.75 20.2425 31.3508 19.0525 32.5525C17.8508 33.7425 17.25 35.1833 17.25 36.875C17.25 38.5667 17.8508 40.025 19.0525 41.25C20.2425 42.4167 21.6833 43 23.375 43ZM49.8 44.3125L47.2625 41.8625C47.7642 41.4542 48.1375 40.9817 48.3825 40.445C48.6275 39.9083 48.75 39.3017 48.75 38.625C48.75 37.4 48.3242 36.3675 47.4725 35.5275C46.6325 34.6758 45.6 34.25 44.375 34.25H41.75V30.75C41.75 28.335 40.8983 26.27 39.195 24.555C37.4917 22.8517 35.4267 22 33 22C32.2183 22 31.46 22.0933 30.725 22.28C29.99 22.4783 29.29 22.7817 28.625 23.19L26.0875 20.6525C27.1142 19.9525 28.1992 19.4158 29.3425 19.0425C30.4975 18.6808 31.7167 18.5 33 18.5C36.4183 18.5 39.3117 19.69 41.68 22.07C44.06 24.4383 45.25 27.3317 45.25 30.75C47.2683 30.9833 48.9367 31.8583 50.255 33.375C51.585 34.8683 52.25 36.6183 52.25 38.625C52.25 39.7917 52.0342 40.8475 51.6025 41.7925C51.1592 42.7725 50.5583 43.6125 49.8 44.3125Z" fill="black"/>
</svg>
