<svg width="24" height="24" viewBox="0 0 24 24" fill="none" xmlns="http://www.w3.org/2000/svg">
<g id="mdi:offline">
<path id="Vector" d="M19.8 22.6L17.15 20H6.5C4.96667 20 3.66667 19.4667 2.6 18.4C1.53333 17.3334 1 16.0334 1 14.5C1 13.22 1.39667 12.08 2.19 11.08C2.98333 10.0734 4.00333 9.43005 5.25 9.15005C5.30333 9.01672 5.35333 8.88672 5.4 8.76005C5.46667 8.63338 5.51667 8.49672 5.55 8.35005L1.4 4.20005L2.8 2.80005L21.2 21.2001M6.5 18H15.15L7.1 9.95005C7.06667 10.1367 7.04333 10.32 7.03 10.5C7.01 10.6534 7 10.82 7 11H6.5C5.53333 11 4.71 11.3434 4.03 12.03C3.34333 12.71 3 13.5334 3 14.5C3 15.4667 3.34333 16.3 4.03 17C4.71 17.6667 5.53333 18 6.5 18ZM21.6 18.75L20.15 17.35C20.4367 17.1167 20.65 16.8467 20.79 16.54C20.93 16.2334 21 15.8867 21 15.5C21 14.8 20.7567 14.21 20.27 13.73C19.79 13.2434 19.2 13 18.5 13H17V11C17 9.62005 16.5133 8.44005 15.54 7.46005C14.5667 6.48672 13.3867 6.00005 12 6.00005C11.5533 6.00005 11.12 6.05338 10.7 6.16005C10.28 6.27338 9.88 6.44672 9.5 6.68005L8.05 5.23005C8.63667 4.83005 9.25667 4.52338 9.91 4.31005C10.57 4.10338 11.2667 4.00005 12 4.00005C13.9533 4.00005 15.6067 4.68005 16.96 6.04005C18.32 7.39338 19 9.04672 19 11C20.1533 11.1334 21.1067 11.6334 21.86 12.5C22.62 13.3534 23 14.3534 23 15.5C23 16.1667 22.8767 16.77 22.63 17.31C22.3767 17.87 22.0333 18.35 21.6 18.75Z" fill="white"/>
</g>
</svg>
