<svg width="66" height="65" viewBox="0 0 66 65" fill="none" xmlns="http://www.w3.org/2000/svg">
<rect width="66" height="65" rx="10" fill="#D4E5E4"/>
<path d="M33 50C30.5792 50 28.3042 49.5403 26.175 48.621C24.0458 47.7017 22.1938 46.4551 20.6188 44.8813C19.0438 43.3074 17.7972 41.4553 16.879 39.325C15.9608 37.1947 15.5012 34.9197 15.5 32.5C15.4988 30.0803 15.9585 27.8053 16.879 25.675C17.7995 23.5447 19.0461 21.6926 20.6188 20.1188C22.1914 18.5449 24.0435 17.2983 26.175 16.379C28.3065 15.4597 30.5815 15 33 15C35.4185 15 37.6935 15.4597 39.825 16.379C41.9565 17.2983 43.8086 18.5449 45.3813 20.1188C46.9539 21.6926 48.2011 23.5447 49.1228 25.675C50.0444 27.8053 50.5035 30.0803 50.5 32.5C50.4965 34.9197 50.0368 37.1947 49.121 39.325C48.2052 41.4553 46.9586 43.3074 45.3813 44.8813C43.8039 46.4551 41.9518 47.7023 39.825 48.6227C37.6982 49.5433 35.4232 50.0023 33 50ZM31.25 46.4125V43C30.2875 43 29.4638 42.6576 28.779 41.9728C28.0942 41.2879 27.7512 40.4637 27.75 39.5V37.75L19.35 29.35C19.2625 29.875 19.1826 30.4 19.1103 30.925C19.0379 31.45 19.0012 31.975 19 32.5C19 36.0292 20.1597 39.1208 22.479 41.775C24.7983 44.4292 27.722 45.975 31.25 46.4125ZM43.325 41.95C43.9083 41.3083 44.4333 40.6159 44.9 39.8728C45.3667 39.1296 45.7528 38.3567 46.0585 37.554C46.3642 36.7513 46.5975 35.9271 46.7585 35.0813C46.9195 34.2354 47 33.375 47 32.5C47 29.6417 46.2049 27.0313 44.6148 24.6688C43.0246 22.3063 40.903 20.6 38.25 19.55V20.25C38.25 21.2125 37.9076 22.0368 37.2228 22.7228C36.5379 23.4088 35.7137 23.7512 34.75 23.75H31.25V27.25C31.25 27.7458 31.082 28.1618 30.746 28.4978C30.41 28.8338 29.9947 29.0012 29.5 29H26V32.5H36.5C36.9958 32.5 37.4118 32.668 37.7478 33.004C38.0838 33.34 38.2512 33.7553 38.25 34.25V39.5H40C40.7583 39.5 41.4438 39.7263 42.0562 40.179C42.6688 40.6317 43.0917 41.222 43.325 41.95Z" fill="black"/>
</svg>
