<svg width="42" height="42" viewBox="0 0 42 42" fill="none" xmlns="http://www.w3.org/2000/svg">
<path d="M21 5.25488C20.3112 5.25488 19.6292 5.39054 18.9929 5.65412C18.3566 5.91769 17.7784 6.30401 17.2914 6.79103C16.8044 7.27805 16.4181 7.85623 16.1545 8.49255C15.8909 9.12888 15.7552 9.81088 15.7552 10.4996C15.7552 11.1884 15.8909 11.8704 16.1545 12.5067C16.4181 13.143 16.8044 13.7212 17.2914 14.2082C17.7784 14.6953 18.3566 15.0816 18.9929 15.3451C19.6292 15.6087 20.3112 15.7444 21 15.7444C22.391 15.7444 23.725 15.1918 24.7086 14.2082C25.6922 13.2246 26.2448 11.8906 26.2448 10.4996C26.2448 9.10864 25.6922 7.77462 24.7086 6.79103C23.725 5.80745 22.391 5.25488 21 5.25488ZM32.8125 7.87463C31.7682 7.87463 30.7667 8.28948 30.0283 9.0279C29.2898 9.76632 28.875 10.7678 28.875 11.8121C28.875 12.8564 29.2898 13.8579 30.0283 14.5964C30.7667 15.3348 31.7682 15.7496 32.8125 15.7496C33.8568 15.7496 34.8583 15.3348 35.5967 14.5964C36.3352 13.8579 36.75 12.8564 36.75 11.8121C36.75 10.7678 36.3352 9.76632 35.5967 9.0279C34.8583 8.28948 33.8568 7.87463 32.8125 7.87463ZM9.1875 7.87463C8.14321 7.87463 7.14169 8.28948 6.40327 9.0279C5.66484 9.76632 5.25 10.7678 5.25 11.8121C5.25 12.8564 5.66484 13.8579 6.40327 14.5964C7.14169 15.3348 8.14321 15.7496 9.1875 15.7496C10.2318 15.7496 11.2333 15.3348 11.9717 14.5964C12.7102 13.8579 13.125 12.8564 13.125 11.8121C13.125 10.7678 12.7102 9.76632 11.9717 9.0279C11.2333 8.28948 10.2318 7.87463 9.1875 7.87463ZM13.125 20.9813C13.1299 20.2883 13.4086 19.6253 13.9003 19.137C14.3921 18.6487 15.057 18.3746 15.75 18.3746H26.25C26.9462 18.3746 27.6139 18.6512 28.1062 19.1435C28.5984 19.6358 28.875 20.3034 28.875 20.9996V28.8746C28.8757 29.7008 28.7464 30.522 28.4918 31.308C27.9105 33.0896 26.7132 34.6056 25.1147 35.5839C23.5163 36.5621 21.6215 36.9385 19.7705 36.6453C17.9196 36.3522 16.2337 35.4089 15.0157 33.9847C13.7977 32.5604 13.1274 30.7486 13.125 28.8746V20.9813ZM10.5 20.9996C10.5 20.0415 10.7546 19.1464 11.2035 18.3746H5.25C4.55381 18.3746 3.88613 18.6512 3.39384 19.1435C2.90156 19.6358 2.625 20.3034 2.625 20.9996V27.5621C2.62464 28.6366 2.88809 29.6946 3.39222 30.6435C3.89634 31.5923 4.62571 32.4028 5.51629 33.0039C6.40686 33.6049 7.43139 33.9781 8.4999 34.0907C9.56841 34.2033 10.6482 34.0518 11.6445 33.6495C10.8906 32.1699 10.4983 30.5326 10.5 28.872V20.9996ZM31.5 20.9996V28.8746C31.5 30.594 31.0879 32.2163 30.3555 33.6495C31.3518 34.0518 32.4316 34.2033 33.5001 34.0907C34.5686 33.9781 35.5931 33.6049 36.4837 33.0039C37.3743 32.4028 38.1037 31.5923 38.6078 30.6435C39.1119 29.6946 39.3754 28.6366 39.375 27.5621V20.9996C39.375 20.3034 39.0984 19.6358 38.6062 19.1435C38.1139 18.6512 37.4462 18.3746 36.75 18.3746H30.7965C31.2428 19.1464 31.5 20.0415 31.5 20.9996Z" fill="black"/>
</svg>
