<svg width="29" height="27" viewBox="0 0 29 27" fill="none" xmlns="http://www.w3.org/2000/svg">
<path fill-rule="evenodd" clip-rule="evenodd" d="M19.2923 10.0228C19.2923 11.3519 18.7643 12.6266 17.8245 13.5664C16.8847 14.5062 15.61 15.0342 14.2809 15.0342C12.9518 15.0342 11.6771 14.5062 10.7373 13.5664C9.79751 12.6266 9.26953 11.3519 9.26953 10.0228C9.26953 8.69374 9.79751 7.41908 10.7373 6.47927C11.6771 5.53946 12.9518 5.01147 14.2809 5.01147C15.61 5.01147 16.8847 5.53946 17.8245 6.47927C18.7643 7.41908 19.2923 8.69374 19.2923 10.0228ZM16.7866 10.0228C16.7866 10.6874 16.5226 11.3247 16.0527 11.7946C15.5828 12.2645 14.9454 12.5285 14.2809 12.5285C13.6163 12.5285 12.979 12.2645 12.5091 11.7946C12.0392 11.3247 11.7752 10.6874 11.7752 10.0228C11.7752 9.35829 12.0392 8.72096 12.5091 8.25105C12.979 7.78115 13.6163 7.51716 14.2809 7.51716C14.9454 7.51716 15.5828 7.78115 16.0527 8.25105C16.5226 8.72096 16.7866 9.35829 16.7866 10.0228Z" fill="#008080"/>
<path fill-rule="evenodd" clip-rule="evenodd" d="M14.2813 0C6.67024 0 0.5 6.17024 0.5 13.7813C0.5 21.3923 6.67024 27.5625 14.2813 27.5625C21.8923 27.5625 28.0625 21.3923 28.0625 13.7813C28.0625 6.17024 21.8923 0 14.2813 0ZM3.00568 13.7813C3.00568 16.3997 3.89896 18.8102 5.3961 20.7245C6.44779 19.344 7.80426 18.2253 9.35964 17.4555C10.915 16.6857 12.6272 16.2858 14.3627 16.2869C16.0758 16.2849 17.7667 16.6742 19.3066 17.425C20.8464 18.1758 22.1944 19.2683 23.2478 20.6193C24.3334 19.1955 25.0642 17.5338 25.38 15.7715C25.6958 14.0092 25.5874 12.1971 25.0638 10.485C24.5402 8.77294 23.6164 7.21016 22.3689 5.92598C21.1215 4.64181 19.5861 3.67315 17.8899 3.10017C16.1937 2.52718 14.3855 2.36633 12.6148 2.63093C10.8441 2.89553 9.16188 3.57798 7.7073 4.6218C6.25273 5.66562 5.06762 7.0408 4.25004 8.63357C3.43246 10.2263 3.00591 11.9909 3.00568 13.7813ZM14.2813 25.0568C11.6928 25.061 9.18237 24.1705 7.17514 22.5361C7.98298 21.3792 9.0584 20.4347 10.3098 19.7829C11.5613 19.1311 12.9517 18.7914 14.3627 18.7926C15.7561 18.7914 17.1296 19.1227 18.3693 19.7589C19.6089 20.3952 20.6788 21.3181 21.4901 22.4509C19.4674 24.1385 16.9155 25.0609 14.2813 25.0568Z" fill="#008080"/>
</svg>
