<svg width="30" height="30" viewBox="0 0 30 30" fill="none" xmlns="http://www.w3.org/2000/svg">
<g id="gg:profile" clip-path="url(#clip0_1093_1139)">
<g id="Group">
<path id="Vector" fill-rule="evenodd" clip-rule="evenodd" d="M20.2923 13.0227C20.2923 14.3518 19.7643 15.6265 18.8245 16.5663C17.8847 17.5061 16.61 18.0341 15.2809 18.0341C13.9518 18.0341 12.6771 17.5061 11.7373 16.5663C10.7975 15.6265 10.2695 14.3518 10.2695 13.0227C10.2695 11.6936 10.7975 10.419 11.7373 9.47915C12.6771 8.53933 13.9518 8.01135 15.2809 8.01135C16.61 8.01135 17.8847 8.53933 18.8245 9.47915C19.7643 10.419 20.2923 11.6936 20.2923 13.0227ZM17.7866 13.0227C17.7866 13.6873 17.5226 14.3246 17.0527 14.7945C16.5828 15.2644 15.9454 15.5284 15.2809 15.5284C14.6163 15.5284 13.979 15.2644 13.5091 14.7945C13.0392 14.3246 12.7752 13.6873 12.7752 13.0227C12.7752 12.3582 13.0392 11.7208 13.5091 11.2509C13.979 10.781 14.6163 10.517 15.2809 10.517C15.9454 10.517 16.5828 10.781 17.0527 11.2509C17.5226 11.7208 17.7866 12.3582 17.7866 13.0227Z" fill="#008080"/>
<path id="Vector_2" fill-rule="evenodd" clip-rule="evenodd" d="M15.2813 3C7.67024 3 1.5 9.17024 1.5 16.7813C1.5 24.3923 7.67024 30.5625 15.2813 30.5625C22.8923 30.5625 29.0625 24.3923 29.0625 16.7813C29.0625 9.17024 22.8923 3 15.2813 3ZM4.00568 16.7813C4.00568 19.3997 4.89896 21.8102 6.3961 23.7245C7.44779 22.344 8.80426 21.2253 10.3596 20.4555C11.915 19.6857 13.6272 19.2858 15.3627 19.2869C17.0758 19.2849 18.7667 19.6742 20.3066 20.425C21.8464 21.1758 23.1944 22.2683 24.2478 23.6193C25.3334 22.1955 26.0642 20.5338 26.38 18.7715C26.6958 17.0092 26.5874 15.1971 26.0638 13.485C25.5402 11.7729 24.6164 10.2102 23.3689 8.92598C22.1215 7.64181 20.5861 6.67315 18.8899 6.10017C17.1937 5.52718 15.3855 5.36633 13.6148 5.63093C11.8441 5.89553 10.1619 6.57798 8.7073 7.6218C7.25273 8.66562 6.06762 10.0408 5.25004 11.6336C4.43246 13.2263 4.00591 14.9909 4.00568 16.7813ZM15.2813 28.0568C12.6928 28.061 10.1824 27.1705 8.17514 25.5361C8.98298 24.3792 10.0584 23.4347 11.3098 22.7829C12.5613 22.1311 13.9517 21.7914 15.3627 21.7926C16.7561 21.7914 18.1296 22.1227 19.3693 22.7589C20.6089 23.3952 21.6788 24.3181 22.4901 25.4509C20.4674 27.1385 17.9155 28.0609 15.2813 28.0568Z" fill="#008080"/>
</g>
</g>
<defs>
<clipPath id="clip0_1093_1139">
<rect width="30" height="30" fill="white"/>
</clipPath>
</defs>
</svg>
