<svg width="28" height="28" viewBox="0 0 28 28" fill="none" xmlns="http://www.w3.org/2000/svg">
<path d="M14.6596 7.46485H13.3444C13.224 7.46485 13.1256 7.56328 13.1256 7.6836V15.2113C13.1256 15.2824 13.1584 15.3481 13.2158 15.3891L17.7358 18.6895C17.8342 18.7605 17.9709 18.7414 18.042 18.643L18.824 17.5766C18.8979 17.4754 18.876 17.3387 18.7776 17.2703L14.8783 14.4512V7.6836C14.8783 7.56328 14.7799 7.46485 14.6596 7.46485ZM20.6697 9.5211L24.9572 10.5684C25.094 10.6012 25.228 10.4973 25.228 10.3578L25.2498 5.9418C25.2498 5.7586 25.0393 5.65469 24.8971 5.76953L20.5877 9.13555C20.5551 9.16075 20.5304 9.19462 20.5162 9.23328C20.502 9.27194 20.499 9.31382 20.5076 9.3541C20.5162 9.39437 20.5359 9.43141 20.5646 9.46095C20.5933 9.4905 20.6297 9.51134 20.6697 9.5211ZM25.2553 17.7543L23.7049 17.2211C23.6509 17.2026 23.5917 17.2059 23.5401 17.2305C23.4885 17.255 23.4485 17.2987 23.4287 17.3523C23.3768 17.4918 23.3221 17.6285 23.2647 17.7652C22.778 18.9164 22.0807 19.9527 21.1893 20.8414C20.3078 21.7257 19.2631 22.4305 18.1131 22.9168C16.9218 23.4205 15.6413 23.679 14.3479 23.677C13.0408 23.677 11.7748 23.4227 10.5826 22.9168C9.43267 22.4305 8.38798 21.7257 7.50647 20.8414C6.61779 19.9527 5.92053 18.9164 5.43108 17.7652C4.93016 16.5733 4.67353 15.2929 4.67639 14C4.67639 12.693 4.93069 11.4242 5.43654 10.232C5.92326 9.08086 6.62053 8.04453 7.51194 7.15586C8.39344 6.27162 9.43814 5.5668 10.5881 5.08047C11.7748 4.57461 13.0436 4.32032 14.3506 4.32032C15.6576 4.32032 16.9237 4.57461 18.1158 5.08047C19.2658 5.5668 20.3105 6.27162 21.192 7.15586C21.4709 7.4375 21.7334 7.73008 21.974 8.03907L23.6092 6.75938C21.4572 4.0086 18.1076 2.23946 14.3451 2.24219C7.79358 2.24493 2.53264 7.56602 2.59826 14.1203C2.66389 20.5598 7.90022 25.7578 14.3506 25.7578C19.4229 25.7578 23.7432 22.5422 25.3893 18.0387C25.4303 17.9238 25.3701 17.7953 25.2553 17.7543Z" fill="black"/>
</svg>
