<svg width="24" height="30" viewBox="0 0 24 30" fill="none" xmlns="http://www.w3.org/2000/svg">
<path d="M13.3564 11.7132C13.5626 11.0945 14.4364 11.0945 14.6426 11.7132L15.852 15.3451C16.1182 16.1435 16.5667 16.8689 17.162 17.4638C17.7572 18.0588 18.4829 18.5069 19.2814 18.7726L22.9114 19.982C23.5301 20.1882 23.5301 21.062 22.9114 21.2682L19.2795 22.4776C18.4811 22.7438 17.7557 23.1923 17.1608 23.7876C16.5659 24.3828 16.1178 25.1085 15.852 25.907L14.6426 29.537C14.5982 29.6725 14.5121 29.7905 14.3966 29.8741C14.2811 29.9578 14.1421 30.0028 13.9995 30.0028C13.8569 30.0028 13.718 29.9578 13.6025 29.8741C13.487 29.7905 13.4009 29.6725 13.3564 29.537L12.147 25.9051C11.881 25.1069 11.4328 24.3817 10.8379 23.7868C10.243 23.1918 9.5177 22.7436 8.71952 22.4776L5.08765 21.2682C4.95216 21.2238 4.83417 21.1377 4.75052 21.0222C4.66688 20.9067 4.62184 20.7677 4.62184 20.6251C4.62184 20.4825 4.66688 20.3436 4.75052 20.2281C4.83417 20.1126 4.95216 20.0265 5.08765 19.982L8.71952 18.7726C9.5177 18.5066 10.243 18.0584 10.8379 17.4635C11.4328 16.8686 11.881 16.1433 12.147 15.3451L13.3564 11.7132ZM6.11327 2.15262C6.14016 2.07142 6.19195 2.00076 6.26129 1.95068C6.33063 1.9006 6.41399 1.87365 6.49952 1.87365C6.58506 1.87365 6.66841 1.9006 6.73775 1.95068C6.80709 2.00076 6.85889 2.07142 6.88577 2.15262L7.6114 4.33137C7.93577 5.30262 8.69702 6.06387 9.66827 6.38825L11.847 7.11387C11.9282 7.14076 11.9989 7.19255 12.049 7.26189C12.099 7.33123 12.126 7.41459 12.126 7.50012C12.126 7.58566 12.099 7.66901 12.049 7.73835C11.9989 7.80769 11.9282 7.85948 11.847 7.88637L9.66827 8.612C9.18898 8.77107 8.75344 9.03985 8.39635 9.39695C8.03925 9.75404 7.77047 10.1896 7.6114 10.6689L6.88577 12.8476C6.85889 12.9288 6.80709 12.9995 6.73775 13.0496C6.66841 13.0996 6.58506 13.1266 6.49952 13.1266C6.41399 13.1266 6.33063 13.0996 6.26129 13.0496C6.19195 12.9995 6.14016 12.9288 6.11327 12.8476L5.38765 10.6689C5.22858 10.1896 4.95979 9.75404 4.6027 9.39695C4.24561 9.03985 3.81007 8.77107 3.33077 8.612L1.15202 7.88637C1.07082 7.85948 1.00017 7.80769 0.950084 7.73835C0.900003 7.66901 0.873047 7.58566 0.873047 7.50012C0.873047 7.41459 0.900003 7.33123 0.950084 7.26189C1.00017 7.19255 1.07082 7.14076 1.15202 7.11387L3.33077 6.38825C3.81007 6.22918 4.24561 5.96039 4.6027 5.6033C4.95979 5.24621 5.22858 4.81067 5.38765 4.33137L6.11327 2.15262ZM19.3676 0.185747C19.3862 0.132359 19.4208 0.0860645 19.4669 0.0533001C19.5129 0.0205358 19.568 0.00292969 19.6245 0.00292969C19.681 0.00292969 19.7361 0.0205358 19.7822 0.0533001C19.8282 0.0860645 19.8629 0.132359 19.8814 0.185747L20.3651 1.637C20.5808 2.28575 21.0889 2.79387 21.7376 3.0095L23.1889 3.49325C23.2423 3.51176 23.2886 3.54644 23.3213 3.59248C23.3541 3.63851 23.3717 3.69362 23.3717 3.75012C23.3717 3.80663 23.3541 3.86173 23.3213 3.90777C23.2886 3.9538 23.2423 3.98849 23.1889 4.007L21.7376 4.49075C21.4182 4.59762 21.128 4.77723 20.8898 5.0154C20.6516 5.25358 20.472 5.54382 20.3651 5.86325L19.8814 7.3145C19.8629 7.36789 19.8282 7.41418 19.7822 7.44694C19.7361 7.47971 19.681 7.49731 19.6245 7.49731C19.568 7.49731 19.5129 7.47971 19.4669 7.44694C19.4208 7.41418 19.3862 7.36789 19.3676 7.3145L18.8839 5.86325C18.777 5.54382 18.5974 5.25358 18.3592 5.0154C18.1211 4.77723 17.8308 4.59762 17.5114 4.49075L16.062 4.007C16.0086 3.98849 15.9623 3.9538 15.9296 3.90777C15.8968 3.86173 15.8792 3.80663 15.8792 3.75012C15.8792 3.69362 15.8968 3.63851 15.9296 3.59248C15.9623 3.54644 16.0086 3.51176 16.062 3.49325L17.5133 3.0095C18.162 2.79387 18.6701 2.28575 18.8858 1.637L19.3676 0.185747Z" fill="white"/>
</svg>
