<svg xmlns="http://www.w3.org/2000/svg" width="40" height="40" viewBox="0 0 40 40" fill="none">
<g clip-path="url(#clip0_934_707)">
<path fill-rule="evenodd" clip-rule="evenodd" d="M27.057 17.3635C27.057 19.1356 26.353 20.8351 25.0999 22.0882C23.8469 23.3413 22.1473 24.0453 20.3752 24.0453C18.603 24.0453 16.9035 23.3413 15.6504 22.0882C14.3973 20.8351 13.6934 19.1356 13.6934 17.3635C13.6934 15.5913 14.3973 13.8918 15.6504 12.6387C16.9035 11.3856 18.603 10.6816 20.3752 10.6816C22.1473 10.6816 23.8469 11.3856 25.0999 12.6387C26.353 13.8918 27.057 15.5913 27.057 17.3635ZM23.7161 17.3635C23.7161 18.2495 23.3641 19.0993 22.7376 19.7258C22.111 20.3524 21.2612 20.7044 20.3752 20.7044C19.4891 20.7044 18.6393 20.3524 18.0128 19.7258C17.3863 19.0993 17.0343 18.2495 17.0343 17.3635C17.0343 16.4774 17.3863 15.6276 18.0128 15.0011C18.6393 14.3745 19.4891 14.0225 20.3752 14.0225C21.2612 14.0225 22.111 14.3745 22.7376 15.0011C23.3641 15.6276 23.7161 16.4774 23.7161 17.3635Z" fill="black"/>
<path fill-rule="evenodd" clip-rule="evenodd" d="M20.375 4C10.227 4 2 12.227 2 22.375C2 32.523 10.227 40.75 20.375 40.75C30.523 40.75 38.75 32.523 38.75 22.375C38.75 12.227 30.523 4 20.375 4ZM5.34091 22.375C5.34091 25.8663 6.53194 29.0802 8.52814 31.6327C9.93039 29.792 11.739 28.3003 13.8129 27.274C15.8867 26.2476 18.1697 25.7144 20.4836 25.7159C22.7677 25.7132 25.0223 26.2322 27.0754 27.2333C29.1285 28.2344 30.9259 29.6911 32.3304 31.4923C33.7778 29.594 34.7523 27.3784 35.1734 25.0287C35.5944 22.679 35.4499 20.2628 34.7518 17.98C34.0536 15.6972 32.8219 13.6135 31.1586 11.9013C29.4953 10.1891 27.4481 8.89754 25.1866 8.13355C22.925 7.36957 20.514 7.15511 18.1531 7.50791C15.7921 7.86071 13.5492 8.77064 11.6097 10.1624C9.67031 11.5542 8.09016 13.3877 7.00005 15.5114C5.90995 17.6351 5.34121 19.9879 5.34091 22.375ZM20.375 37.4091C16.9237 37.4147 13.5765 36.2274 10.9002 34.0481C11.9773 32.5057 13.4112 31.2463 15.0798 30.3772C16.7484 29.5082 18.6022 29.0552 20.4836 29.0568C22.3414 29.0552 24.1728 29.4969 25.8257 30.3453C27.4785 31.1936 28.9051 32.4241 29.9868 33.9345C27.2898 36.1847 23.8874 37.4146 20.375 37.4091Z" fill="black"/>
</g>
<defs>
<clipPath id="clip0_934_707">
<rect width="40" height="40" fill="white"/>
</clipPath>
</defs>
</svg>