<svg width="50" height="50" viewBox="0 0 50 50" fill="none" xmlns="http://www.w3.org/2000/svg">
<g id="material-symbols-light:meeting-room">
<path id="Vector" d="M9.375 41.6666V39.5833H13.5417V8.33325H30.2083V10.4166H36.4583V39.5833H40.625V41.6666H34.375V12.4999H30.2083V41.6666H9.375ZM23.9583 26.6041C24.3889 26.6041 24.7639 26.4444 25.0833 26.1249C25.4028 25.8055 25.5625 25.4305 25.5625 24.9999C25.5625 24.5694 25.4028 24.1944 25.0833 23.8749C24.7639 23.5555 24.3889 23.3958 23.9583 23.3958C23.5278 23.3958 23.1528 23.5555 22.8333 23.8749C22.5139 24.1944 22.3542 24.5694 22.3542 24.9999C22.3542 25.4305 22.5139 25.8055 22.8333 26.1249C23.1528 26.4444 23.5278 26.6041 23.9583 26.6041Z" fill="white"/>
</g>
</svg>
