<svg width="45" height="45" viewBox="0 0 45 45" fill="none" xmlns="http://www.w3.org/2000/svg">
<path d="M36.2198 30.7574C35.1199 29.6566 33.8346 28.7581 32.423 28.1031C34.4137 26.4903 35.6837 24.0294 35.6837 21.2696C35.6837 16.4004 31.6232 12.4058 26.754 12.4805C21.9596 12.5552 18.0968 16.462 18.0968 21.2696C18.0968 24.0294 19.3712 26.4903 21.3575 28.1031C19.9456 28.7576 18.6603 29.6561 17.5607 30.7574C15.1612 33.1612 13.7989 36.334 13.711 39.7178C13.7099 39.7647 13.7181 39.8114 13.7352 39.8551C13.7524 39.8987 13.7781 39.9385 13.8109 39.9721C13.8436 40.0057 13.8828 40.0324 13.926 40.0506C13.9692 40.0688 14.0157 40.0782 14.0626 40.0782H16.5235C16.7125 40.0782 16.8707 39.9288 16.8751 39.7398C16.9586 37.191 17.9913 34.8047 19.8063 32.9942C20.735 32.0605 21.8397 31.3203 23.0564 30.8164C24.2731 30.3125 25.5777 30.055 26.8946 30.0586C29.5709 30.0586 32.089 31.1002 33.983 32.9942C35.7936 34.8047 36.8263 37.191 36.9142 39.7398C36.9186 39.9288 37.0768 40.0782 37.2657 40.0782H39.7267C39.7736 40.0782 39.82 40.0688 39.8633 40.0506C39.9065 40.0324 39.9457 40.0057 39.9784 39.9721C40.0112 39.9385 40.0369 39.8987 40.054 39.8551C40.0712 39.8114 40.0794 39.7647 40.0782 39.7178C39.9903 36.334 38.628 33.1612 36.2198 30.7574ZM26.8946 26.8946C25.3917 26.8946 23.9767 26.3101 22.9176 25.2466C22.3861 24.7193 21.9662 24.0903 21.6831 23.3972C21.4 22.7041 21.2594 21.9611 21.2696 21.2125C21.2828 19.7711 21.8585 18.378 22.8649 17.3453C23.9195 16.2642 25.3302 15.6622 26.8375 15.6446C28.3273 15.6314 29.7731 16.2115 30.8365 17.253C31.9264 18.3209 32.524 19.7491 32.524 21.2696C32.524 22.7725 31.9396 24.1832 30.8761 25.2466C30.3543 25.7709 29.7338 26.1865 29.0504 26.4693C28.367 26.7522 27.6343 26.8967 26.8946 26.8946ZM15.8863 22.4297C15.8468 22.0474 15.8248 21.6607 15.8248 21.2696C15.8248 20.5709 15.8907 19.8897 16.0138 19.2261C16.0445 19.0679 15.961 18.9053 15.816 18.8394C15.2184 18.5713 14.6691 18.2022 14.1944 17.7364C13.6352 17.1941 13.1951 16.5413 12.9023 15.8194C12.6095 15.0976 12.4703 14.3226 12.4938 13.544C12.5333 12.1334 13.1002 10.793 14.089 9.78228C15.1744 8.67046 16.6334 8.06402 18.1847 8.0816C19.5865 8.09478 20.9401 8.63531 21.964 9.59332C22.3111 9.91851 22.61 10.2789 22.8605 10.6656C22.9484 10.8018 23.1197 10.8589 23.2692 10.8062C24.0426 10.5381 24.86 10.3492 25.6993 10.2613C25.9454 10.2349 26.086 9.97125 25.9762 9.75152C24.548 6.92584 21.63 4.97466 18.255 4.92193C13.3815 4.84722 9.32091 8.84185 9.32091 13.7066C9.32091 16.4664 10.5909 18.9273 12.5817 20.5401C11.1842 21.1861 9.89659 22.0782 8.78038 23.1944C6.37218 25.5982 5.00988 28.771 4.92198 32.1592C4.92081 32.2061 4.92904 32.2528 4.94618 32.2965C4.96332 32.3401 4.98903 32.3799 5.0218 32.4135C5.05456 32.4471 5.09371 32.4738 5.13695 32.492C5.18019 32.5102 5.22663 32.5196 5.27355 32.5196H7.73888C7.92784 32.5196 8.08605 32.3702 8.09044 32.1812C8.17394 29.6324 9.20665 27.2461 11.0216 25.4356C12.3136 24.1436 13.8956 23.2471 15.6227 22.8121C15.7941 22.7681 15.9083 22.6055 15.8863 22.4297Z" fill="black"/>
</svg>
