<svg width="175" height="23" viewBox="0 0 175 23" fill="none" xmlns="http://www.w3.org/2000/svg">
<path d="M7.44005 22.3686L3.02761 5.76394H0.951172V1.01583H12.2418V5.76394H10.3211L12.3456 13.3664L15.642 1.01583H20.8331L24.0256 12.9547L25.9982 5.76394H24.2333V1.01583H32.5909V5.76394H30.4626L26.128 22.3686H19.2498L16.81 12.8998L14.2404 22.3686H7.44005ZM34.7723 22.3686V17.6479H37.2121V5.76394H34.7723V1.04328H51.7991V9.52399H48.5547L47.3348 5.76394H43.701V9.24954H46.9455V12.7626H43.701V17.6479H47.3348L48.5547 13.2841H51.7991V22.3686H34.7723ZM53.0717 17.6479H55.5115V5.76394H53.4091V1.01583H63.7134C65.4092 1.01583 66.8367 1.16221 67.9961 1.45496C69.1554 1.74772 70.0769 2.30578 70.7603 3.12915C71.4438 3.95252 71.7856 5.12354 71.7856 6.6422C71.7856 7.70343 71.4957 8.62743 70.9161 9.41421C70.3364 10.201 69.5967 10.7682 68.6969 11.1158C69.8735 11.6465 70.743 12.3372 71.3054 13.188C71.8678 14.0388 72.149 15.2052 72.149 16.6873C72.149 18.4987 71.4784 19.8985 70.1374 20.8865C68.7964 21.8746 66.8973 22.3686 64.4402 22.3686H53.0717V17.6479ZM62.7012 9.63378C63.6702 9.63378 64.3839 9.49197 64.8425 9.20837C65.301 8.92476 65.5303 8.38957 65.5303 7.6028C65.5303 7.05388 65.3703 6.61018 65.0501 6.27168C64.73 5.93318 64.3104 5.76394 63.7913 5.76394H62.0004V9.63378H62.7012ZM62.4676 17.6479C63.4885 17.6479 64.2758 17.497 64.8295 17.1951C65.3832 16.8932 65.6601 16.2665 65.6601 15.315C65.6601 13.8513 64.8122 13.1194 63.1164 13.1194C62.7358 13.1194 62.3637 13.1285 62.0004 13.1468V17.6479H62.4676ZM80.365 21.5452C78.6605 20.7401 77.2979 19.4868 76.277 17.7851C75.2561 16.0835 74.7456 13.9427 74.7456 11.3629C74.7456 9.31358 75.1479 7.47472 75.9525 5.84627C76.7571 4.21783 77.9251 2.9416 79.4565 2.0176C80.9879 1.09359 82.7918 0.631592 84.8682 0.631592C85.7507 0.631592 86.6072 0.787117 87.4378 1.09817C88.2684 1.40922 88.9259 1.86665 89.4104 2.47045L89.8257 1.04328H94.2122V8.92019H90.2929C90.0334 7.78577 89.5316 6.93038 88.7875 6.35402C88.0434 5.77766 87.2648 5.48948 86.4515 5.48948C85.1018 5.48948 84.0333 6.01095 83.246 7.05388C82.4587 8.09682 82.065 9.53314 82.065 11.3629C82.065 13.2109 82.4544 14.6609 83.233 15.713C84.0117 16.7651 85.1105 17.2911 86.5294 17.2911C86.8928 17.2911 87.2561 17.2545 87.6195 17.1813C87.9829 17.1082 88.2771 17.0304 88.502 16.9481C88.727 16.8657 88.874 16.8154 88.9432 16.7971V14.9033H86.5034V10.9237H94.6275V20.5023C93.3297 21.2342 91.9368 21.7922 90.4487 22.1765C88.9605 22.5607 87.4811 22.7528 86.0103 22.7528C83.9511 22.7528 82.0694 22.3503 80.365 21.5452ZM97.7428 17.6479H99.7673V5.76394H97.7428V1.04328H110.695C112.788 1.04328 114.328 1.49156 115.315 2.38812C116.301 3.28467 116.794 4.76674 116.794 6.83432C116.794 8.2249 116.426 9.29528 115.691 10.0455C114.956 10.7956 113.913 11.2988 112.563 11.555C113.775 11.7562 114.648 12.2365 115.185 12.9959C115.721 13.7552 115.989 14.7021 115.989 15.8365V17.5656H118.819V22.3686H114.744C113.429 22.3686 112.485 22.2771 111.914 22.0941C111.343 21.9111 110.907 21.408 110.604 20.5846C110.301 19.7612 110.149 18.389 110.149 16.4678C110.149 15.3699 109.981 14.5557 109.643 14.0251C109.306 13.4945 108.687 13.2292 107.788 13.2292H106.256V17.6479H108.281V22.3686H97.7428V17.6479ZM107.995 10.1827C108.912 10.1827 109.596 10.0089 110.046 9.66122C110.496 9.31358 110.721 8.70062 110.721 7.82236C110.721 7.18196 110.491 6.67879 110.033 6.31285C109.574 5.94691 108.981 5.76394 108.255 5.76394H106.256V10.1827H107.995ZM124.491 21.3256C122.96 20.3742 121.796 19.0614 121 17.3872C120.204 15.713 119.806 13.8055 119.806 11.6648C119.806 9.4508 120.204 7.51131 121 5.84627C121.796 4.18123 122.955 2.89586 124.478 1.99015C126.001 1.08445 127.826 0.631592 129.955 0.631592C132.083 0.631592 133.908 1.08445 135.431 1.99015C136.954 2.89586 138.113 4.18123 138.909 5.84627C139.705 7.51131 140.103 9.4508 140.103 11.6648C140.103 13.8055 139.705 15.713 138.909 17.3872C138.113 19.0614 136.95 20.3742 135.418 21.3256C133.887 22.2771 132.066 22.7528 129.955 22.7528C127.844 22.7528 126.022 22.2771 124.491 21.3256ZM132.057 16.2482C132.541 15.0772 132.784 13.5128 132.784 11.555C132.784 9.65207 132.55 8.14714 132.083 7.04016C131.616 5.93318 130.906 5.3797 129.955 5.3797C129.003 5.3797 128.293 5.93318 127.826 7.04016C127.359 8.14714 127.125 9.65207 127.125 11.555C127.125 13.5128 127.368 15.0772 127.852 16.2482C128.337 17.4192 129.037 18.0047 129.955 18.0047C130.872 18.0047 131.572 17.4192 132.057 16.2482ZM148.877 22.3686L144.465 5.76394H142.388V1.01583H153.679V5.76394H151.758L153.783 13.3664L157.079 1.01583H162.27L165.463 12.9547L167.435 5.76394H165.67V1.01583H174.028V5.76394H171.9L167.565 22.3686H160.687L158.247 12.8998L155.677 22.3686H148.877Z" fill="black"/>
</svg>
